M48
;GenerationSoftware,Autodesk,EAGLE,9.6.2*%
;CreationDate,2023-01-17T19:06:03Z*%
FMAT,2
ICI,OFF
METRIC,TZ,000.000
T1C0.200
%
G90
M71
T1
X5600Y16050
X8850Y10000
X9050Y17950
X10000Y19000
X11000Y18000
X9000Y20000
X10000Y21000
X11000Y20000
X10000Y17000
X11000Y16000
X12000Y17000
X13000Y16000
X12000Y19000
X13000Y18000
X14000Y17000
X15000Y16000
X16000Y17000
X17000Y16000
X18000Y17000
X19000Y16000
X21000Y16000
X21000Y18000
X18000Y19000
X17000Y18000
X15000Y18000
X18000Y21000
X20000Y21000
X19000Y18000
X12950Y7050
X11500Y3800
X21250Y4700
X1300Y4200
X900Y7000
X2950Y13550
X900Y6450
X20400Y10100
X19800Y8150
X8850Y16900
X2700Y16300
X550Y17200
X550Y18800
X4400Y5050
X12950Y9700
X2900Y11750
X900Y14250
X1050Y8700
X1250Y12900
X10350Y9950
X1250Y16500
X850Y10200
X1500Y5950
X20400Y5300
X9650Y7450
X20350Y14900
X15400Y6200
X14396Y6194
X9700Y14700
X17006Y4950
X2800Y7900
X9700Y13000
X7246Y3950
X10100Y14200
X7700Y3500
X4500Y17580
X3900Y9150
X5050Y17700
X4878Y5372
X5650Y17700
X4700Y4550
X6200Y17600
X5300Y4650
X3940Y17640
X20800Y10750
X6500Y13350
X12400Y11900
X6500Y16050
X20800Y9500
X4700Y13350
X12100Y10950
X5600Y13350
X13050Y10600
X4700Y12450
X20500Y8450
X907Y12443
X1250Y13800
X3554Y5600
X9350Y14250
X3343Y9104
X7060Y17790
X9150Y4350
X10700Y14250
X8150Y9950
X19250Y7500
X7638Y9538
X19767Y6250
X900Y13350
X3754Y6800
X1250Y14700
X3804Y6200
X7600Y17100
X10350Y10850
X5300Y9850
X17083Y5546
X4900Y9450
X16450Y5150
X3800Y15150
X11050Y4800
X4700Y16950
X5450Y7450
X4700Y14250
X7543Y14600
X16150Y7650
X900Y15150
X14450Y14100
X12000Y4150
X1250Y15600
X13800Y14100
X11100Y3300
X1250Y17850
X16000Y16000
X16750Y7400
X1971Y18329
X18550Y17450
X10000Y3150
X9500Y2900
X15300Y14100
X5600Y16950
X9768Y3747
X12800Y13250
X13457Y7457
X6500Y15150
X9800Y4350
X12000Y13200
X10600Y4250
X12500Y14250
X3800Y16950
X9850Y10354
X3350Y2850
X3800Y16050
X9800Y10996
X3050Y3350
X9700Y15600
X18204Y4650
X7620Y17700
X4954Y7150
X1250Y12000
X2050Y5500
X3700Y7450
X28109Y16050
X31359Y10000
X31559Y17950
X32509Y19000
X33509Y18000
X31509Y20000
X32509Y21000
X33509Y20000
X32509Y17000
X33509Y16000
X34509Y17000
X35509Y16000
X34509Y19000
X35509Y18000
X36509Y17000
X37509Y16000
X38509Y17000
X39509Y16000
X40509Y17000
X41509Y16000
X43509Y16000
X43509Y18000
X40509Y19000
X39509Y18000
X37509Y18000
X40509Y21000
X42509Y21000
X41509Y18000
X35459Y7050
X34009Y3800
X43759Y4700
X23809Y4200
X23409Y7000
X25459Y13550
X23409Y6450
X42909Y10100
X42309Y8150
X31359Y16900
X25209Y16300
X23059Y17200
X23059Y18800
X26909Y5050
X35459Y9700
X25409Y11750
X23409Y14250
X23559Y8700
X23759Y12900
X32859Y9950
X23759Y16500
X23359Y10200
X24009Y5950
X42909Y5300
X32159Y7450
X42859Y14900
X37909Y6200
X36906Y6194
X32209Y14700
X39515Y4950
X25309Y7900
X32209Y13000
X29756Y3950
X32609Y14200
X30209Y3500
X27009Y17580
X26409Y9150
X27559Y17700
X27387Y5372
X28159Y17700
X27209Y4550
X28709Y17600
X27809Y4650
X26449Y17640
X43309Y10750
X29009Y13350
X34909Y11900
X29009Y16050
X43309Y9500
X27209Y13350
X34609Y10950
X28109Y13350
X35559Y10600
X27209Y12450
X43009Y8450
X23417Y12443
X23759Y13800
X26063Y5600
X31859Y14250
X25852Y9104
X29569Y17790
X31659Y4350
X33209Y14250
X30659Y9950
X41759Y7500
X30147Y9538
X42276Y6250
X23409Y13350
X26263Y6800
X23759Y14700
X26313Y6200
X30109Y17100
X32859Y10850
X27809Y9850
X39592Y5546
X27409Y9450
X38959Y5150
X26309Y15150
X33559Y4800
X27209Y16950
X27959Y7450
X27209Y14250
X30053Y14600
X38659Y7650
X23409Y15150
X36959Y14100
X34509Y4150
X23759Y15600
X36309Y14100
X33609Y3300
X23759Y17850
X38509Y16000
X39259Y7400
X24481Y18329
X41059Y17450
X32509Y3150
X32009Y2900
X37809Y14100
X28109Y16950
X32277Y3747
X35309Y13250
X35967Y7457
X29009Y15150
X32309Y4350
X34509Y13200
X33109Y4250
X35009Y14250
X26309Y16950
X32359Y10354
X25859Y2850
X26309Y16050
X32309Y10996
X25559Y3350
X32209Y15600
X40713Y4650
X30129Y17700
X27463Y7150
X23759Y12000
X24559Y5500
X26209Y7450
X50619Y16050
X53869Y10000
X54069Y17950
X55019Y19000
X56019Y18000
X54019Y20000
X55019Y21000
X56019Y20000
X55019Y17000
X56019Y16000
X57019Y17000
X58019Y16000
X57019Y19000
X58019Y18000
X59019Y17000
X60019Y16000
X61019Y17000
X62019Y16000
X63019Y17000
X64019Y16000
X66019Y16000
X66019Y18000
X63019Y19000
X62019Y18000
X60019Y18000
X63019Y21000
X65019Y21000
X64019Y18000
X57969Y7050
X56519Y3800
X66269Y4700
X46319Y4200
X45919Y7000
X47969Y13550
X45919Y6450
X65419Y10100
X64819Y8150
X53869Y16900
X47719Y16300
X45569Y17200
X45569Y18800
X49419Y5050
X57969Y9700
X47919Y11750
X45919Y14250
X46069Y8700
X46269Y12900
X55369Y9950
X46269Y16500
X45869Y10200
X46519Y5950
X65419Y5300
X54669Y7450
X65369Y14900
X60419Y6200
X59415Y6194
X54719Y14700
X62025Y4950
X47819Y7900
X54719Y13000
X52265Y3950
X55119Y14200
X52719Y3500
X49519Y17580
X48919Y9150
X50069Y17700
X49897Y5372
X50669Y17700
X49719Y4550
X51219Y17600
X50319Y4650
X48959Y17640
X65819Y10750
X51519Y13350
X57419Y11900
X51519Y16050
X65819Y9500
X49719Y13350
X57119Y10950
X50619Y13350
X58069Y10600
X49719Y12450
X65519Y8450
X45926Y12443
X46269Y13800
X48573Y5600
X54369Y14250
X48362Y9104
X52079Y17790
X54169Y4350
X55719Y14250
X53169Y9950
X64269Y7500
X52657Y9538
X64786Y6250
X45919Y13350
X48773Y6800
X46269Y14700
X48823Y6200
X52619Y17100
X55369Y10850
X50319Y9850
X62102Y5546
X49919Y9450
X61469Y5150
X48819Y15150
X56069Y4800
X49719Y16950
X50469Y7450
X49719Y14250
X52562Y14600
X61169Y7650
X45919Y15150
X59469Y14100
X57019Y4150
X46269Y15600
X58819Y14100
X56119Y3300
X46269Y17850
X61019Y16000
X61769Y7400
X46990Y18329
X63569Y17450
X55019Y3150
X54519Y2900
X60319Y14100
X50619Y16950
X54786Y3747
X57819Y13250
X58476Y7457
X51519Y15150
X54819Y4350
X57019Y13200
X55619Y4250
X57519Y14250
X48819Y16950
X54869Y10354
X48369Y2850
X48819Y16050
X54819Y10996
X48069Y3350
X54719Y15600
X63223Y4650
X52639Y17700
X49973Y7150
X46269Y12000
X47069Y5500
X48719Y7450
X16399Y53800
X13149Y59850
X12949Y51900
X11999Y50850
X10999Y51850
X12999Y49850
X11999Y48850
X10999Y49850
X11999Y52850
X10999Y53850
X9999Y52850
X8999Y53850
X9999Y50850
X8999Y51850
X7999Y52850
X6999Y53850
X5999Y52850
X4999Y53850
X3999Y52850
X2999Y53850
X999Y53850
X999Y51850
X3999Y50850
X4999Y51850
X6999Y51850
X3999Y48850
X1999Y48850
X2999Y51850
X9049Y62800
X10499Y66050
X749Y65150
X20699Y65650
X21099Y62850
X19049Y56300
X21099Y63400
X1599Y59750
X2199Y61700
X13149Y52950
X19299Y53550
X21449Y52650
X21449Y51050
X17599Y64800
X9049Y60150
X19099Y58100
X21099Y55600
X20949Y61150
X20749Y56950
X11649Y59900
X20749Y53350
X21149Y59650
X20499Y63900
X1599Y64550
X12349Y62400
X1649Y54950
X6599Y63650
X7603Y63656
X12299Y55150
X4993Y64900
X19199Y61950
X12299Y56850
X14753Y65900
X11899Y55650
X14299Y66350
X17499Y52270
X18099Y60700
X16949Y52150
X17121Y64478
X16349Y52150
X17299Y65300
X15799Y52250
X16699Y65200
X18059Y52210
X1199Y59100
X15499Y56500
X9599Y57950
X15499Y53800
X1199Y60350
X17299Y56500
X9899Y58900
X16399Y56500
X8949Y59250
X17299Y57400
X1499Y61400
X21092Y57407
X20749Y56050
X18445Y64250
X12649Y55600
X18656Y60746
X14939Y52060
X12849Y65500
X11299Y55600
X13849Y59900
X2749Y62350
X14361Y60312
X2232Y63600
X21099Y56500
X18245Y63050
X20749Y55150
X18195Y63650
X14399Y52750
X11649Y59000
X16699Y60000
X4916Y64304
X17099Y60400
X5549Y64700
X18199Y54700
X10949Y65050
X17299Y52900
X16549Y62400
X17299Y55600
X14456Y55250
X5849Y62200
X21099Y54700
X7549Y55750
X9999Y65700
X20749Y54250
X8199Y55750
X10899Y66550
X20749Y52000
X5999Y53850
X5249Y62450
X20028Y51521
X3449Y52400
X11999Y66700
X12499Y66950
X6699Y55750
X16399Y52900
X12231Y66103
X9199Y56600
X8542Y62393
X15499Y54700
X12199Y65500
X9999Y56650
X11399Y65600
X9499Y55600
X18199Y52900
X12149Y59496
X18649Y67000
X18199Y53800
X12199Y58854
X18949Y66500
X12299Y54250
X3795Y65200
X14379Y52150
X17045Y62700
X20749Y57850
X19949Y64350
X18299Y62400
X38911Y53800
X35661Y59850
X35461Y51900
X34511Y50850
X33511Y51850
X35511Y49850
X34511Y48850
X33511Y49850
X34511Y52850
X33511Y53850
X32511Y52850
X31511Y53850
X32511Y50850
X31511Y51850
X30511Y52850
X29511Y53850
X28511Y52850
X27511Y53850
X26511Y52850
X25511Y53850
X23511Y53850
X23511Y51850
X26511Y50850
X27511Y51850
X29511Y51850
X26511Y48850
X24511Y48850
X25511Y51850
X31561Y62800
X33011Y66050
X23261Y65150
X43211Y65650
X43611Y62850
X41561Y56300
X43611Y63400
X24111Y59750
X24711Y61700
X35661Y52950
X41811Y53550
X43961Y52650
X43961Y51050
X40111Y64800
X31561Y60150
X41611Y58100
X43611Y55600
X43461Y61150
X43261Y56950
X34161Y59900
X43261Y53350
X43661Y59650
X43011Y63900
X24111Y64550
X34861Y62400
X24161Y54950
X29111Y63650
X30115Y63656
X34811Y55150
X27505Y64900
X41711Y61950
X34811Y56850
X37265Y65900
X34411Y55650
X36811Y66350
X40011Y52270
X40611Y60700
X39461Y52150
X39633Y64478
X38861Y52150
X39811Y65300
X38311Y52250
X39211Y65200
X40571Y52210
X23711Y59100
X38011Y56500
X32111Y57950
X38011Y53800
X23711Y60350
X39811Y56500
X32411Y58900
X38911Y56500
X31461Y59250
X39811Y57400
X24011Y61400
X43604Y57407
X43261Y56050
X40957Y64250
X35161Y55600
X41168Y60746
X37451Y52060
X35361Y65500
X33811Y55600
X36361Y59900
X25261Y62350
X36873Y60312
X24744Y63600
X43611Y56500
X40757Y63050
X43261Y55150
X40707Y63650
X36911Y52750
X34161Y59000
X39211Y60000
X27428Y64304
X39611Y60400
X28061Y64700
X40711Y54700
X33461Y65050
X39811Y52900
X39061Y62400
X39811Y55600
X36968Y55250
X28361Y62200
X43611Y54700
X30061Y55750
X32511Y65700
X43261Y54250
X30711Y55750
X33411Y66550
X43261Y52000
X28511Y53850
X27761Y62450
X42540Y51521
X25961Y52400
X34511Y66700
X35011Y66950
X29211Y55750
X38911Y52900
X34743Y66103
X31711Y56600
X31054Y62393
X38011Y54700
X34711Y65500
X32511Y56650
X33911Y65600
X32011Y55600
X40711Y52900
X34661Y59496
X41161Y67000
X40711Y53800
X34711Y58854
X41461Y66500
X34811Y54250
X26307Y65200
X36891Y52150
X39557Y62700
X43261Y57850
X42461Y64350
X40811Y62400
X61420Y53800
X58170Y59850
X57970Y51900
X57020Y50850
X56020Y51850
X58020Y49850
X57020Y48850
X56020Y49850
X57020Y52850
X56020Y53850
X55020Y52850
X54020Y53850
X55020Y50850
X54020Y51850
X53020Y52850
X52020Y53850
X51020Y52850
X50020Y53850
X49020Y52850
X48020Y53850
X46020Y53850
X46020Y51850
X49020Y50850
X50020Y51850
X52020Y51850
X49020Y48850
X47020Y48850
X48020Y51850
X54070Y62800
X55520Y66050
X45770Y65150
X65720Y65650
X66120Y62850
X64070Y56300
X66120Y63400
X46620Y59750
X47220Y61700
X58170Y52950
X64320Y53550
X66470Y52650
X66470Y51050
X62620Y64800
X54070Y60150
X64120Y58100
X66120Y55600
X65970Y61150
X65770Y56950
X56670Y59900
X65770Y53350
X66170Y59650
X65520Y63900
X46620Y64550
X57370Y62400
X46670Y54950
X51620Y63650
X52624Y63656
X57320Y55150
X50015Y64900
X64220Y61950
X57320Y56850
X59774Y65900
X56920Y55650
X59320Y66350
X62520Y52270
X63120Y60700
X61970Y52150
X62143Y64478
X61370Y52150
X62320Y65300
X60820Y52250
X61720Y65200
X63080Y52210
X46220Y59100
X60520Y56500
X54620Y57950
X60520Y53800
X46220Y60350
X62320Y56500
X54920Y58900
X61420Y56500
X53970Y59250
X62320Y57400
X46520Y61400
X66113Y57407
X65770Y56050
X63467Y64250
X57670Y55600
X63678Y60746
X59960Y52060
X57870Y65500
X56320Y55600
X58870Y59900
X47770Y62350
X59383Y60312
X47253Y63600
X66120Y56500
X63267Y63050
X65770Y55150
X63217Y63650
X59420Y52750
X56670Y59000
X61720Y60000
X49938Y64304
X62120Y60400
X50570Y64700
X63220Y54700
X55970Y65050
X62320Y52900
X61570Y62400
X62320Y55600
X59477Y55250
X50870Y62200
X66120Y54700
X52570Y55750
X55020Y65700
X65770Y54250
X53220Y55750
X55920Y66550
X65770Y52000
X51020Y53850
X50270Y62450
X65049Y51521
X48470Y52400
X57020Y66700
X57520Y66950
X51720Y55750
X61420Y52900
X57253Y66103
X54220Y56600
X53563Y62393
X60520Y54700
X57220Y65500
X55020Y56650
X56420Y65600
X54520Y55600
X63220Y52900
X57170Y59496
X63670Y67000
X63220Y53800
X57220Y58854
X63970Y66500
X57320Y54250
X48817Y65200
X59400Y52150
X62067Y62700
X65770Y57850
X64970Y64350
X63320Y62400
X12900Y21000
X17100Y21000
X15000Y19700
X35409Y21000
X39609Y21000
X37509Y19700
X57919Y21000
X62119Y21000
X60019Y19700
X9099Y48850
X4899Y48850
X6999Y50150
X31611Y48850
X27411Y48850
X29511Y50150
X54120Y48850
X49920Y48850
X52020Y50150
M30