M48
;GenerationSoftware,Autodesk,EAGLE,9.6.2*%
;CreationDate,2023-04-21T22:31:49Z*%
FMAT,2
ICI,OFF
METRIC,TZ,000.000
T1C0.200
%
G90
M71
T1
X5600Y16050
X8850Y10000
X9050Y17950
X10000Y19000
X11000Y18000
X9000Y20000
X10000Y21000
X11000Y20000
X10000Y17000
X11000Y16000
X12000Y17000
X13000Y16000
X12000Y19000
X13000Y18000
X14000Y17000
X15000Y16000
X16000Y17000
X17000Y16000
X18000Y17000
X19000Y16000
X21000Y16000
X21000Y18000
X18000Y19000
X17000Y18000
X15000Y18000
X18000Y21000
X20000Y21000
X19000Y18000
X12950Y7050
X11500Y3800
X21200Y5300
X1300Y4200
X900Y7000
X2950Y13550
X900Y6450
X20400Y10350
X8850Y16900
X2700Y16300
X550Y17200
X550Y18800
X4400Y5050
X12950Y9700
X2900Y11750
X18700Y3050
X7450Y13200
X900Y14250
X1050Y8700
X1250Y12900
X10350Y9950
X1250Y16500
X850Y10200
X1500Y5950
X20300Y4350
X9650Y7450
X20350Y15250
X15400Y6200
X14396Y6194
X9700Y14700
X17006Y4600
X2800Y7900
X9700Y13000
X7246Y3950
X10100Y14200
X7700Y3500
X4500Y17580
X3900Y9150
X5050Y17700
X4878Y5372
X5650Y17700
X4700Y4550
X6200Y17600
X5300Y4650
X3940Y17640
X20650Y10900
X6500Y13350
X12500Y12300
X6500Y16050
X20550Y9700
X4700Y13350
X12000Y11050
X5600Y13350
X13050Y11150
X4700Y12450
X20150Y8700
X907Y12443
X1250Y13800
X3554Y5600
X9350Y14250
X3343Y9104
X7060Y17790
X9150Y4350
X10700Y14250
X8150Y9950
X19550Y7500
X7638Y9538
X19617Y6100
X900Y13350
X3754Y6800
X1250Y14700
X3804Y6200
X7600Y17100
X10350Y10850
X5300Y9850
X16783Y5196
X4900Y9450
X16200Y5450
X3800Y15150
X11050Y4800
X4700Y16950
X5450Y7450
X4700Y14250
X7543Y14600
X16150Y7650
X900Y15150
X14450Y14250
X12000Y4150
X1250Y15600
X13800Y14250
X11100Y3300
X1250Y17850
X16000Y16000
X16750Y7400
X1971Y18329
X18550Y17450
X10000Y3150
X9500Y2900
X15300Y14250
X5600Y16950
X9768Y3747
X12550Y13350
X13457Y7457
X6500Y15150
X9800Y4350
X12000Y13200
X10600Y4250
X12500Y14250
X3800Y16950
X9850Y10354
X3350Y2850
X3800Y16050
X9800Y10996
X3050Y3350
X9700Y15600
X18204Y4250
X7620Y17700
X4954Y7150
X1250Y12000
X2050Y5500
X3700Y7450
X18700Y3750
X18900Y7650
X28109Y16050
X31359Y10000
X31559Y17950
X32509Y19000
X33509Y18000
X31509Y20000
X32509Y21000
X33509Y20000
X32509Y17000
X33509Y16000
X34509Y17000
X35509Y16000
X34509Y19000
X35509Y18000
X36509Y17000
X37509Y16000
X38509Y17000
X39509Y16000
X40509Y17000
X41509Y16000
X43509Y16000
X43509Y18000
X40509Y19000
X39509Y18000
X37509Y18000
X40509Y21000
X42509Y21000
X41509Y18000
X35459Y7050
X34009Y3800
X43709Y5300
X23809Y4200
X23409Y7000
X25459Y13550
X23409Y6450
X42909Y10350
X31359Y16900
X25209Y16300
X23059Y17200
X23059Y18800
X26909Y5050
X35459Y9700
X25409Y11750
X41209Y3050
X29959Y13200
X23409Y14250
X23559Y8700
X23759Y12900
X32859Y9950
X23759Y16500
X23359Y10200
X24009Y5950
X42809Y4350
X32159Y7450
X42859Y15250
X37909Y6200
X36906Y6194
X32209Y14700
X39515Y4600
X25309Y7900
X32209Y13000
X29756Y3950
X32609Y14200
X30209Y3500
X27009Y17580
X26409Y9150
X27559Y17700
X27387Y5372
X28159Y17700
X27209Y4550
X28709Y17600
X27809Y4650
X26449Y17640
X43159Y10900
X29009Y13350
X35009Y12300
X29009Y16050
X43059Y9700
X27209Y13350
X34509Y11050
X28109Y13350
X35559Y11150
X27209Y12450
X42659Y8700
X23417Y12443
X23759Y13800
X26063Y5600
X31859Y14250
X25852Y9104
X29569Y17790
X31659Y4350
X33209Y14250
X30659Y9950
X42059Y7500
X30147Y9538
X42126Y6100
X23409Y13350
X26263Y6800
X23759Y14700
X26313Y6200
X30109Y17100
X32859Y10850
X27809Y9850
X39292Y5196
X27409Y9450
X38709Y5450
X26309Y15150
X33559Y4800
X27209Y16950
X27959Y7450
X27209Y14250
X30053Y14600
X38659Y7650
X23409Y15150
X36959Y14250
X34509Y4150
X23759Y15600
X36309Y14250
X33609Y3300
X23759Y17850
X38509Y16000
X39259Y7400
X24481Y18329
X41059Y17450
X32509Y3150
X32009Y2900
X37809Y14250
X28109Y16950
X32277Y3747
X35059Y13350
X35967Y7457
X29009Y15150
X32309Y4350
X34509Y13200
X33109Y4250
X35009Y14250
X26309Y16950
X32359Y10354
X25859Y2850
X26309Y16050
X32309Y10996
X25559Y3350
X32209Y15600
X40713Y4250
X30129Y17700
X27463Y7150
X23759Y12000
X24559Y5500
X26209Y7450
X41209Y3750
X41409Y7650
X50619Y16050
X53869Y10000
X54069Y17950
X55019Y19000
X56019Y18000
X54019Y20000
X55019Y21000
X56019Y20000
X55019Y17000
X56019Y16000
X57019Y17000
X58019Y16000
X57019Y19000
X58019Y18000
X59019Y17000
X60019Y16000
X61019Y17000
X62019Y16000
X63019Y17000
X64019Y16000
X66019Y16000
X66019Y18000
X63019Y19000
X62019Y18000
X60019Y18000
X63019Y21000
X65019Y21000
X64019Y18000
X57969Y7050
X56519Y3800
X66219Y5300
X46319Y4200
X45919Y7000
X47969Y13550
X45919Y6450
X65419Y10350
X53869Y16900
X47719Y16300
X45569Y17200
X45569Y18800
X49419Y5050
X57969Y9700
X47919Y11750
X63719Y3050
X52469Y13200
X45919Y14250
X46069Y8700
X46269Y12900
X55369Y9950
X46269Y16500
X45869Y10200
X46519Y5950
X65319Y4350
X54669Y7450
X65369Y15250
X60419Y6200
X59415Y6194
X54719Y14700
X62025Y4600
X47819Y7900
X54719Y13000
X52265Y3950
X55119Y14200
X52719Y3500
X49519Y17580
X48919Y9150
X50069Y17700
X49897Y5372
X50669Y17700
X49719Y4550
X51219Y17600
X50319Y4650
X48959Y17640
X65669Y10900
X51519Y13350
X57519Y12300
X51519Y16050
X65569Y9700
X49719Y13350
X57019Y11050
X50619Y13350
X58069Y11150
X49719Y12450
X65169Y8700
X45926Y12443
X46269Y13800
X48573Y5600
X54369Y14250
X48362Y9104
X52079Y17790
X54169Y4350
X55719Y14250
X53169Y9950
X64569Y7500
X52657Y9538
X64636Y6100
X45919Y13350
X48773Y6800
X46269Y14700
X48823Y6200
X52619Y17100
X55369Y10850
X50319Y9850
X61802Y5196
X49919Y9450
X61219Y5450
X48819Y15150
X56069Y4800
X49719Y16950
X50469Y7450
X49719Y14250
X52562Y14600
X61169Y7650
X45919Y15150
X59469Y14250
X57019Y4150
X46269Y15600
X58819Y14250
X56119Y3300
X46269Y17850
X61019Y16000
X61769Y7400
X46990Y18329
X63569Y17450
X55019Y3150
X54519Y2900
X60319Y14250
X50619Y16950
X54786Y3747
X57569Y13350
X58476Y7457
X51519Y15150
X54819Y4350
X57019Y13200
X55619Y4250
X57519Y14250
X48819Y16950
X54869Y10354
X48369Y2850
X48819Y16050
X54819Y10996
X48069Y3350
X54719Y15600
X63223Y4250
X52639Y17700
X49973Y7150
X46269Y12000
X47069Y5500
X48719Y7450
X63719Y3750
X63919Y7650
X73131Y16050
X76381Y10000
X76581Y17950
X77531Y19000
X78531Y18000
X76531Y20000
X77531Y21000
X78531Y20000
X77531Y17000
X78531Y16000
X79531Y17000
X80531Y16000
X79531Y19000
X80531Y18000
X81531Y17000
X82531Y16000
X83531Y17000
X84531Y16000
X85531Y17000
X86531Y16000
X88531Y16000
X88531Y18000
X85531Y19000
X84531Y18000
X82531Y18000
X85531Y21000
X87531Y21000
X86531Y18000
X80481Y7050
X79031Y3800
X88731Y5300
X68831Y4200
X68431Y7000
X70481Y13550
X68431Y6450
X87931Y10350
X76381Y16900
X70231Y16300
X68081Y17200
X68081Y18800
X71931Y5050
X80481Y9700
X70431Y11750
X86231Y3050
X74981Y13200
X68431Y14250
X68581Y8700
X68781Y12900
X77881Y9950
X68781Y16500
X68381Y10200
X69031Y5950
X87831Y4350
X77181Y7450
X87881Y15250
X82931Y6200
X81927Y6194
X77231Y14700
X84537Y4600
X70331Y7900
X77231Y13000
X74777Y3950
X77631Y14200
X75231Y3500
X72031Y17580
X71431Y9150
X72581Y17700
X72409Y5372
X73181Y17700
X72231Y4550
X73731Y17600
X72831Y4650
X71471Y17640
X88181Y10900
X74031Y13350
X80031Y12300
X74031Y16050
X88081Y9700
X72231Y13350
X79531Y11050
X73131Y13350
X80581Y11150
X72231Y12450
X87681Y8700
X68438Y12443
X68781Y13800
X71085Y5600
X76881Y14250
X70874Y9104
X74591Y17790
X76681Y4350
X78231Y14250
X75681Y9950
X87081Y7500
X75169Y9538
X87148Y6100
X68431Y13350
X71285Y6800
X68781Y14700
X71335Y6200
X75131Y17100
X77881Y10850
X72831Y9850
X84314Y5196
X72431Y9450
X83731Y5450
X71331Y15150
X78581Y4800
X72231Y16950
X72981Y7450
X72231Y14250
X75074Y14600
X83681Y7650
X68431Y15150
X81981Y14250
X79531Y4150
X68781Y15600
X81331Y14250
X78631Y3300
X68781Y17850
X83531Y16000
X84281Y7400
X69502Y18329
X86081Y17450
X77531Y3150
X77031Y2900
X82831Y14250
X73131Y16950
X77299Y3747
X80081Y13350
X80988Y7457
X74031Y15150
X77331Y4350
X79531Y13200
X78131Y4250
X80031Y14250
X71331Y16950
X77381Y10354
X70881Y2850
X71331Y16050
X77331Y10996
X70581Y3350
X77231Y15600
X85735Y4250
X75151Y17700
X72485Y7150
X68781Y12000
X69581Y5500
X71231Y7450
X86231Y3750
X86431Y7650
X95640Y16050
X98890Y10000
X99090Y17950
X100040Y19000
X101040Y18000
X99040Y20000
X100040Y21000
X101040Y20000
X100040Y17000
X101040Y16000
X102040Y17000
X103040Y16000
X102040Y19000
X103040Y18000
X104040Y17000
X105040Y16000
X106040Y17000
X107040Y16000
X108040Y17000
X109040Y16000
X111040Y16000
X111040Y18000
X108040Y19000
X107040Y18000
X105040Y18000
X108040Y21000
X110040Y21000
X109040Y18000
X102990Y7050
X101540Y3800
X111240Y5300
X91340Y4200
X90940Y7000
X92990Y13550
X90940Y6450
X110440Y10350
X98890Y16900
X92740Y16300
X90590Y17200
X90590Y18800
X94440Y5050
X102990Y9700
X92940Y11750
X108740Y3050
X97490Y13200
X90940Y14250
X91090Y8700
X91290Y12900
X100390Y9950
X91290Y16500
X90890Y10200
X91540Y5950
X110340Y4350
X99690Y7450
X110390Y15250
X105440Y6200
X104437Y6194
X99740Y14700
X107046Y4600
X92840Y7900
X99740Y13000
X97287Y3950
X100140Y14200
X97740Y3500
X94540Y17580
X93940Y9150
X95090Y17700
X94918Y5372
X95690Y17700
X94740Y4550
X96240Y17600
X95340Y4650
X93980Y17640
X110690Y10900
X96540Y13350
X102540Y12300
X96540Y16050
X110590Y9700
X94740Y13350
X102040Y11050
X95640Y13350
X103090Y11150
X94740Y12450
X110190Y8700
X90948Y12443
X91290Y13800
X93594Y5600
X99390Y14250
X93383Y9104
X97100Y17790
X99190Y4350
X100740Y14250
X98190Y9950
X109590Y7500
X97678Y9538
X109657Y6100
X90940Y13350
X93794Y6800
X91290Y14700
X93844Y6200
X97640Y17100
X100390Y10850
X95340Y9850
X106823Y5196
X94940Y9450
X106240Y5450
X93840Y15150
X101090Y4800
X94740Y16950
X95490Y7450
X94740Y14250
X97584Y14600
X106190Y7650
X90940Y15150
X104490Y14250
X102040Y4150
X91290Y15600
X103840Y14250
X101140Y3300
X91290Y17850
X106040Y16000
X106790Y7400
X92012Y18329
X108590Y17450
X100040Y3150
X99540Y2900
X105340Y14250
X95640Y16950
X99808Y3747
X102590Y13350
X103498Y7457
X96540Y15150
X99840Y4350
X102040Y13200
X100640Y4250
X102540Y14250
X93840Y16950
X99890Y10354
X93390Y2850
X93840Y16050
X99840Y10996
X93090Y3350
X99740Y15600
X108244Y4250
X97660Y17700
X94994Y7150
X91290Y12000
X92090Y5500
X93740Y7450
X108740Y3750
X108940Y7650
X118150Y16050
X121400Y10000
X121600Y17950
X122550Y19000
X123550Y18000
X121550Y20000
X122550Y21000
X123550Y20000
X122550Y17000
X123550Y16000
X124550Y17000
X125550Y16000
X124550Y19000
X125550Y18000
X126550Y17000
X127550Y16000
X128550Y17000
X129550Y16000
X130550Y17000
X131550Y16000
X133550Y16000
X133550Y18000
X130550Y19000
X129550Y18000
X127550Y18000
X130550Y21000
X132550Y21000
X131550Y18000
X125500Y7050
X124050Y3800
X133750Y5300
X113850Y4200
X113450Y7000
X115500Y13550
X113450Y6450
X132950Y10350
X121400Y16900
X115250Y16300
X113100Y17200
X113100Y18800
X116950Y5050
X125500Y9700
X115450Y11750
X131250Y3050
X120000Y13200
X113450Y14250
X113600Y8700
X113800Y12900
X122900Y9950
X113800Y16500
X113400Y10200
X114050Y5950
X132850Y4350
X122200Y7450
X132900Y15250
X127950Y6200
X126946Y6194
X122250Y14700
X129556Y4600
X115350Y7900
X122250Y13000
X119796Y3950
X122650Y14200
X120250Y3500
X117050Y17580
X116450Y9150
X117600Y17700
X117428Y5372
X118200Y17700
X117250Y4550
X118750Y17600
X117850Y4650
X116490Y17640
X133200Y10900
X119050Y13350
X125050Y12300
X119050Y16050
X133100Y9700
X117250Y13350
X124550Y11050
X118150Y13350
X125600Y11150
X117250Y12450
X132700Y8700
X113457Y12443
X113800Y13800
X116104Y5600
X121900Y14250
X115893Y9104
X119610Y17790
X121700Y4350
X123250Y14250
X120700Y9950
X132100Y7500
X120187Y9538
X132167Y6100
X113450Y13350
X116304Y6800
X113800Y14700
X116354Y6200
X120150Y17100
X122900Y10850
X117850Y9850
X129333Y5196
X117450Y9450
X128750Y5450
X116350Y15150
X123600Y4800
X117250Y16950
X118000Y7450
X117250Y14250
X120093Y14600
X128700Y7650
X113450Y15150
X127000Y14250
X124550Y4150
X113800Y15600
X126350Y14250
X123650Y3300
X113800Y17850
X128550Y16000
X129300Y7400
X114521Y18329
X131100Y17450
X122550Y3150
X122050Y2900
X127850Y14250
X118150Y16950
X122317Y3747
X125100Y13350
X126007Y7457
X119050Y15150
X122350Y4350
X124550Y13200
X123150Y4250
X125050Y14250
X116350Y16950
X122400Y10354
X115900Y2850
X116350Y16050
X122350Y10996
X115600Y3350
X122250Y15600
X130754Y4250
X120170Y17700
X117504Y7150
X113800Y12000
X114600Y5500
X116250Y7450
X131250Y3750
X131450Y7650
X140659Y16050
X143909Y10000
X144109Y17950
X145059Y19000
X146059Y18000
X144059Y20000
X145059Y21000
X146059Y20000
X145059Y17000
X146059Y16000
X147059Y17000
X148059Y16000
X147059Y19000
X148059Y18000
X149059Y17000
X150059Y16000
X151059Y17000
X152059Y16000
X153059Y17000
X154059Y16000
X156059Y16000
X156059Y18000
X153059Y19000
X152059Y18000
X150059Y18000
X153059Y21000
X155059Y21000
X154059Y18000
X148009Y7050
X146559Y3800
X156259Y5300
X136359Y4200
X135959Y7000
X138009Y13550
X135959Y6450
X155459Y10350
X143909Y16900
X137759Y16300
X135609Y17200
X135609Y18800
X139459Y5050
X148009Y9700
X137959Y11750
X153759Y3050
X142509Y13200
X135959Y14250
X136109Y8700
X136309Y12900
X145409Y9950
X136309Y16500
X135909Y10200
X136559Y5950
X155359Y4350
X144709Y7450
X155409Y15250
X150459Y6200
X149456Y6194
X144759Y14700
X152065Y4600
X137859Y7900
X144759Y13000
X142306Y3950
X145159Y14200
X142759Y3500
X139559Y17580
X138959Y9150
X140109Y17700
X139937Y5372
X140709Y17700
X139759Y4550
X141259Y17600
X140359Y4650
X138999Y17640
X155709Y10900
X141559Y13350
X147559Y12300
X141559Y16050
X155609Y9700
X139759Y13350
X147059Y11050
X140659Y13350
X148109Y11150
X139759Y12450
X155209Y8700
X135967Y12443
X136309Y13800
X138613Y5600
X144409Y14250
X138402Y9104
X142119Y17790
X144209Y4350
X145759Y14250
X143209Y9950
X154609Y7500
X142697Y9538
X154676Y6100
X135959Y13350
X138813Y6800
X136309Y14700
X138863Y6200
X142659Y17100
X145409Y10850
X140359Y9850
X151842Y5196
X139959Y9450
X151259Y5450
X138859Y15150
X146109Y4800
X139759Y16950
X140509Y7450
X139759Y14250
X142603Y14600
X151209Y7650
X135959Y15150
X149509Y14250
X147059Y4150
X136309Y15600
X148859Y14250
X146159Y3300
X136309Y17850
X151059Y16000
X151809Y7400
X137031Y18329
X153609Y17450
X145059Y3150
X144559Y2900
X150359Y14250
X140659Y16950
X144827Y3747
X147609Y13350
X148517Y7457
X141559Y15150
X144859Y4350
X147059Y13200
X145659Y4250
X147559Y14250
X138859Y16950
X144909Y10354
X138409Y2850
X138859Y16050
X144859Y10996
X138109Y3350
X144759Y15600
X153263Y4250
X142679Y17700
X140013Y7150
X136309Y12000
X137109Y5500
X138759Y7450
X153759Y3750
X153959Y7650
X163169Y16050
X166419Y10000
X166619Y17950
X167569Y19000
X168569Y18000
X166569Y20000
X167569Y21000
X168569Y20000
X167569Y17000
X168569Y16000
X169569Y17000
X170569Y16000
X169569Y19000
X170569Y18000
X171569Y17000
X172569Y16000
X173569Y17000
X174569Y16000
X175569Y17000
X176569Y16000
X178569Y16000
X178569Y18000
X175569Y19000
X174569Y18000
X172569Y18000
X175569Y21000
X177569Y21000
X176569Y18000
X170519Y7050
X169069Y3800
X178769Y5300
X158869Y4200
X158469Y7000
X160519Y13550
X158469Y6450
X177969Y10350
X166419Y16900
X160269Y16300
X158119Y17200
X158119Y18800
X161969Y5050
X170519Y9700
X160469Y11750
X176269Y3050
X165019Y13200
X158469Y14250
X158619Y8700
X158819Y12900
X167919Y9950
X158819Y16500
X158419Y10200
X159069Y5950
X177869Y4350
X167219Y7450
X177919Y15250
X172969Y6200
X171965Y6194
X167269Y14700
X174575Y4600
X160369Y7900
X167269Y13000
X164815Y3950
X167669Y14200
X165269Y3500
X162069Y17580
X161469Y9150
X162619Y17700
X162447Y5372
X163219Y17700
X162269Y4550
X163769Y17600
X162869Y4650
X161509Y17640
X178219Y10900
X164069Y13350
X170069Y12300
X164069Y16050
X178119Y9700
X162269Y13350
X169569Y11050
X163169Y13350
X170619Y11150
X162269Y12450
X177719Y8700
X158476Y12443
X158819Y13800
X161123Y5600
X166919Y14250
X160912Y9104
X164629Y17790
X166719Y4350
X168269Y14250
X165719Y9950
X177119Y7500
X165206Y9538
X177186Y6100
X158469Y13350
X161323Y6800
X158819Y14700
X161373Y6200
X165169Y17100
X167919Y10850
X162869Y9850
X174352Y5196
X162469Y9450
X173769Y5450
X161369Y15150
X168619Y4800
X162269Y16950
X163019Y7450
X162269Y14250
X165112Y14600
X173719Y7650
X158469Y15150
X172019Y14250
X169569Y4150
X158819Y15600
X171369Y14250
X168669Y3300
X158819Y17850
X173569Y16000
X174319Y7400
X159540Y18329
X176119Y17450
X167569Y3150
X167069Y2900
X172869Y14250
X163169Y16950
X167336Y3747
X170119Y13350
X171026Y7457
X164069Y15150
X167369Y4350
X169569Y13200
X168169Y4250
X170069Y14250
X161369Y16950
X167419Y10354
X160919Y2850
X161369Y16050
X167369Y10996
X160619Y3350
X167269Y15600
X175772Y4250
X165189Y17700
X162523Y7150
X158819Y12000
X159619Y5500
X161269Y7450
X176269Y3750
X176469Y7650
X16399Y53800
X13149Y59850
X12949Y51900
X11999Y50850
X10999Y51850
X12999Y49850
X11999Y48850
X10999Y49850
X11999Y52850
X10999Y53850
X9999Y52850
X8999Y53850
X9999Y50850
X8999Y51850
X7999Y52850
X6999Y53850
X5999Y52850
X4999Y53850
X3999Y52850
X2999Y53850
X999Y53850
X999Y51850
X3999Y50850
X4999Y51850
X6999Y51850
X3999Y48850
X1999Y48850
X2999Y51850
X9049Y62800
X10499Y66050
X799Y64550
X20699Y65650
X21099Y62850
X19049Y56300
X21099Y63400
X1599Y59500
X13149Y52950
X19299Y53550
X21449Y52650
X21449Y51050
X17599Y64800
X9049Y60150
X19099Y58100
X3299Y66800
X14549Y56650
X21099Y55600
X20949Y61150
X20749Y56950
X11649Y59900
X20749Y53350
X21149Y59650
X20499Y63900
X1699Y65500
X12349Y62400
X1649Y54600
X6599Y63650
X7603Y63656
X12299Y55150
X4993Y65250
X19199Y61950
X12299Y56850
X14753Y65900
X11899Y55650
X14299Y66350
X17499Y52270
X18099Y60700
X16949Y52150
X17121Y64478
X16349Y52150
X17299Y65300
X15799Y52250
X16699Y65200
X18059Y52210
X1349Y58950
X15499Y56500
X9499Y57550
X15499Y53800
X1449Y60150
X17299Y56500
X9999Y58800
X16399Y56500
X8949Y58700
X17299Y57400
X1849Y61150
X21092Y57407
X20749Y56050
X18445Y64250
X12649Y55600
X18656Y60746
X14939Y52060
X12849Y65500
X11299Y55600
X13849Y59900
X2449Y62350
X14361Y60312
X2382Y63750
X21099Y56500
X18245Y63050
X20749Y55150
X18195Y63650
X14399Y52750
X11649Y59000
X16699Y60000
X5216Y64654
X17099Y60400
X5799Y64400
X18199Y54700
X10949Y65050
X17299Y52900
X16549Y62400
X17299Y55600
X14456Y55250
X5849Y62200
X21099Y54700
X7549Y55600
X9999Y65700
X20749Y54250
X8199Y55600
X10899Y66550
X20749Y52000
X5999Y53850
X5249Y62450
X20028Y51521
X3449Y52400
X11999Y66700
X12499Y66950
X6699Y55600
X16399Y52900
X12231Y66103
X9449Y56500
X8542Y62393
X15499Y54700
X12199Y65500
X9999Y56650
X11399Y65600
X9499Y55600
X18199Y52900
X12149Y59496
X18649Y67000
X18199Y53800
X12199Y58854
X18949Y66500
X12299Y54250
X3795Y65600
X14379Y52150
X17045Y62700
X20749Y57850
X19949Y64350
X18299Y62400
X3299Y66100
X3099Y62200
X38911Y53800
X35661Y59850
X35461Y51900
X34511Y50850
X33511Y51850
X35511Y49850
X34511Y48850
X33511Y49850
X34511Y52850
X33511Y53850
X32511Y52850
X31511Y53850
X32511Y50850
X31511Y51850
X30511Y52850
X29511Y53850
X28511Y52850
X27511Y53850
X26511Y52850
X25511Y53850
X23511Y53850
X23511Y51850
X26511Y50850
X27511Y51850
X29511Y51850
X26511Y48850
X24511Y48850
X25511Y51850
X31561Y62800
X33011Y66050
X23311Y64550
X43211Y65650
X43611Y62850
X41561Y56300
X43611Y63400
X24111Y59500
X35661Y52950
X41811Y53550
X43961Y52650
X43961Y51050
X40111Y64800
X31561Y60150
X41611Y58100
X25811Y66800
X37061Y56650
X43611Y55600
X43461Y61150
X43261Y56950
X34161Y59900
X43261Y53350
X43661Y59650
X43011Y63900
X24211Y65500
X34861Y62400
X24161Y54600
X29111Y63650
X30115Y63656
X34811Y55150
X27505Y65250
X41711Y61950
X34811Y56850
X37265Y65900
X34411Y55650
X36811Y66350
X40011Y52270
X40611Y60700
X39461Y52150
X39633Y64478
X38861Y52150
X39811Y65300
X38311Y52250
X39211Y65200
X40571Y52210
X23861Y58950
X38011Y56500
X32011Y57550
X38011Y53800
X23961Y60150
X39811Y56500
X32511Y58800
X38911Y56500
X31461Y58700
X39811Y57400
X24361Y61150
X43604Y57407
X43261Y56050
X40957Y64250
X35161Y55600
X41168Y60746
X37451Y52060
X35361Y65500
X33811Y55600
X36361Y59900
X24961Y62350
X36873Y60312
X24894Y63750
X43611Y56500
X40757Y63050
X43261Y55150
X40707Y63650
X36911Y52750
X34161Y59000
X39211Y60000
X27728Y64654
X39611Y60400
X28311Y64400
X40711Y54700
X33461Y65050
X39811Y52900
X39061Y62400
X39811Y55600
X36968Y55250
X28361Y62200
X43611Y54700
X30061Y55600
X32511Y65700
X43261Y54250
X30711Y55600
X33411Y66550
X43261Y52000
X28511Y53850
X27761Y62450
X42540Y51521
X25961Y52400
X34511Y66700
X35011Y66950
X29211Y55600
X38911Y52900
X34743Y66103
X31961Y56500
X31054Y62393
X38011Y54700
X34711Y65500
X32511Y56650
X33911Y65600
X32011Y55600
X40711Y52900
X34661Y59496
X41161Y67000
X40711Y53800
X34711Y58854
X41461Y66500
X34811Y54250
X26307Y65600
X36891Y52150
X39557Y62700
X43261Y57850
X42461Y64350
X40811Y62400
X25811Y66100
X25611Y62200
X61420Y53800
X58170Y59850
X57970Y51900
X57020Y50850
X56020Y51850
X58020Y49850
X57020Y48850
X56020Y49850
X57020Y52850
X56020Y53850
X55020Y52850
X54020Y53850
X55020Y50850
X54020Y51850
X53020Y52850
X52020Y53850
X51020Y52850
X50020Y53850
X49020Y52850
X48020Y53850
X46020Y53850
X46020Y51850
X49020Y50850
X50020Y51850
X52020Y51850
X49020Y48850
X47020Y48850
X48020Y51850
X54070Y62800
X55520Y66050
X45820Y64550
X65720Y65650
X66120Y62850
X64070Y56300
X66120Y63400
X46620Y59500
X58170Y52950
X64320Y53550
X66470Y52650
X66470Y51050
X62620Y64800
X54070Y60150
X64120Y58100
X48320Y66800
X59570Y56650
X66120Y55600
X65970Y61150
X65770Y56950
X56670Y59900
X65770Y53350
X66170Y59650
X65520Y63900
X46720Y65500
X57370Y62400
X46670Y54600
X51620Y63650
X52624Y63656
X57320Y55150
X50015Y65250
X64220Y61950
X57320Y56850
X59774Y65900
X56920Y55650
X59320Y66350
X62520Y52270
X63120Y60700
X61970Y52150
X62143Y64478
X61370Y52150
X62320Y65300
X60820Y52250
X61720Y65200
X63080Y52210
X46370Y58950
X60520Y56500
X54520Y57550
X60520Y53800
X46470Y60150
X62320Y56500
X55020Y58800
X61420Y56500
X53970Y58700
X62320Y57400
X46870Y61150
X66113Y57407
X65770Y56050
X63467Y64250
X57670Y55600
X63678Y60746
X59960Y52060
X57870Y65500
X56320Y55600
X58870Y59900
X47470Y62350
X59383Y60312
X47403Y63750
X66120Y56500
X63267Y63050
X65770Y55150
X63217Y63650
X59420Y52750
X56670Y59000
X61720Y60000
X50238Y64654
X62120Y60400
X50820Y64400
X63220Y54700
X55970Y65050
X62320Y52900
X61570Y62400
X62320Y55600
X59477Y55250
X50870Y62200
X66120Y54700
X52570Y55600
X55020Y65700
X65770Y54250
X53220Y55600
X55920Y66550
X65770Y52000
X51020Y53850
X50270Y62450
X65049Y51521
X48470Y52400
X57020Y66700
X57520Y66950
X51720Y55600
X61420Y52900
X57253Y66103
X54470Y56500
X53563Y62393
X60520Y54700
X57220Y65500
X55020Y56650
X56420Y65600
X54520Y55600
X63220Y52900
X57170Y59496
X63670Y67000
X63220Y53800
X57220Y58854
X63970Y66500
X57320Y54250
X48817Y65600
X59400Y52150
X62067Y62700
X65770Y57850
X64970Y64350
X63320Y62400
X48320Y66100
X48120Y62200
X83930Y53800
X80680Y59850
X80480Y51900
X79530Y50850
X78530Y51850
X80530Y49850
X79530Y48850
X78530Y49850
X79530Y52850
X78530Y53850
X77530Y52850
X76530Y53850
X77530Y50850
X76530Y51850
X75530Y52850
X74530Y53850
X73530Y52850
X72530Y53850
X71530Y52850
X70530Y53850
X68530Y53850
X68530Y51850
X71530Y50850
X72530Y51850
X74530Y51850
X71530Y48850
X69530Y48850
X70530Y51850
X76580Y62800
X78030Y66050
X68330Y64550
X88230Y65650
X88630Y62850
X86580Y56300
X88630Y63400
X69130Y59500
X80680Y52950
X86830Y53550
X88980Y52650
X88980Y51050
X85130Y64800
X76580Y60150
X86630Y58100
X70830Y66800
X82080Y56650
X88630Y55600
X88480Y61150
X88280Y56950
X79180Y59900
X88280Y53350
X88680Y59650
X88030Y63900
X69230Y65500
X79880Y62400
X69180Y54600
X74130Y63650
X75134Y63656
X79830Y55150
X72524Y65250
X86730Y61950
X79830Y56850
X82284Y65900
X79430Y55650
X81830Y66350
X85030Y52270
X85630Y60700
X84480Y52150
X84652Y64478
X83880Y52150
X84830Y65300
X83330Y52250
X84230Y65200
X85590Y52210
X68880Y58950
X83030Y56500
X77030Y57550
X83030Y53800
X68980Y60150
X84830Y56500
X77530Y58800
X83930Y56500
X76480Y58700
X84830Y57400
X69380Y61150
X88623Y57407
X88280Y56050
X85976Y64250
X80180Y55600
X86187Y60746
X82470Y52060
X80380Y65500
X78830Y55600
X81380Y59900
X69980Y62350
X81892Y60312
X69913Y63750
X88630Y56500
X85776Y63050
X88280Y55150
X85726Y63650
X81930Y52750
X79180Y59000
X84230Y60000
X72747Y64654
X84630Y60400
X73330Y64400
X85730Y54700
X78480Y65050
X84830Y52900
X84080Y62400
X84830Y55600
X81987Y55250
X73380Y62200
X88630Y54700
X75080Y55600
X77530Y65700
X88280Y54250
X75730Y55600
X78430Y66550
X88280Y52000
X73530Y53850
X72780Y62450
X87559Y51521
X70980Y52400
X79530Y66700
X80030Y66950
X74230Y55600
X83930Y52900
X79762Y66103
X76980Y56500
X76073Y62393
X83030Y54700
X79730Y65500
X77530Y56650
X78930Y65600
X77030Y55600
X85730Y52900
X79680Y59496
X86180Y67000
X85730Y53800
X79730Y58854
X86480Y66500
X79830Y54250
X71326Y65600
X81910Y52150
X84576Y62700
X88280Y57850
X87480Y64350
X85830Y62400
X70830Y66100
X70630Y62200
X106439Y53800
X103189Y59850
X102989Y51900
X102039Y50850
X101039Y51850
X103039Y49850
X102039Y48850
X101039Y49850
X102039Y52850
X101039Y53850
X100039Y52850
X99039Y53850
X100039Y50850
X99039Y51850
X98039Y52850
X97039Y53850
X96039Y52850
X95039Y53850
X94039Y52850
X93039Y53850
X91039Y53850
X91039Y51850
X94039Y50850
X95039Y51850
X97039Y51850
X94039Y48850
X92039Y48850
X93039Y51850
X99089Y62800
X100539Y66050
X90839Y64550
X110739Y65650
X111139Y62850
X109089Y56300
X111139Y63400
X91639Y59500
X103189Y52950
X109339Y53550
X111489Y52650
X111489Y51050
X107639Y64800
X99089Y60150
X109139Y58100
X93339Y66800
X104589Y56650
X111139Y55600
X110989Y61150
X110789Y56950
X101689Y59900
X110789Y53350
X111189Y59650
X110539Y63900
X91739Y65500
X102389Y62400
X91689Y54600
X96639Y63650
X97643Y63656
X102339Y55150
X95034Y65250
X109239Y61950
X102339Y56850
X104793Y65900
X101939Y55650
X104339Y66350
X107539Y52270
X108139Y60700
X106989Y52150
X107162Y64478
X106389Y52150
X107339Y65300
X105839Y52250
X106739Y65200
X108099Y52210
X91389Y58950
X105539Y56500
X99539Y57550
X105539Y53800
X91489Y60150
X107339Y56500
X100039Y58800
X106439Y56500
X98989Y58700
X107339Y57400
X91889Y61150
X111132Y57407
X110789Y56050
X108486Y64250
X102689Y55600
X108697Y60746
X104979Y52060
X102889Y65500
X101339Y55600
X103889Y59900
X92489Y62350
X104402Y60312
X92422Y63750
X111139Y56500
X108286Y63050
X110789Y55150
X108236Y63650
X104439Y52750
X101689Y59000
X106739Y60000
X95257Y64654
X107139Y60400
X95839Y64400
X108239Y54700
X100989Y65050
X107339Y52900
X106589Y62400
X107339Y55600
X104496Y55250
X95889Y62200
X111139Y54700
X97589Y55600
X100039Y65700
X110789Y54250
X98239Y55600
X100939Y66550
X110789Y52000
X96039Y53850
X95289Y62450
X110068Y51521
X93489Y52400
X102039Y66700
X102539Y66950
X96739Y55600
X106439Y52900
X102272Y66103
X99489Y56500
X98582Y62393
X105539Y54700
X102239Y65500
X100039Y56650
X101439Y65600
X99539Y55600
X108239Y52900
X102189Y59496
X108689Y67000
X108239Y53800
X102239Y58854
X108989Y66500
X102339Y54250
X93836Y65600
X104419Y52150
X107086Y62700
X110789Y57850
X109989Y64350
X108339Y62400
X93339Y66100
X93139Y62200
X128949Y53800
X125699Y59850
X125499Y51900
X124549Y50850
X123549Y51850
X125549Y49850
X124549Y48850
X123549Y49850
X124549Y52850
X123549Y53850
X122549Y52850
X121549Y53850
X122549Y50850
X121549Y51850
X120549Y52850
X119549Y53850
X118549Y52850
X117549Y53850
X116549Y52850
X115549Y53850
X113549Y53850
X113549Y51850
X116549Y50850
X117549Y51850
X119549Y51850
X116549Y48850
X114549Y48850
X115549Y51850
X121599Y62800
X123049Y66050
X113349Y64550
X133249Y65650
X133649Y62850
X131599Y56300
X133649Y63400
X114149Y59500
X125699Y52950
X131849Y53550
X133999Y52650
X133999Y51050
X130149Y64800
X121599Y60150
X131649Y58100
X115849Y66800
X127099Y56650
X133649Y55600
X133499Y61150
X133299Y56950
X124199Y59900
X133299Y53350
X133699Y59650
X133049Y63900
X114249Y65500
X124899Y62400
X114199Y54600
X119149Y63650
X120152Y63656
X124849Y55150
X117543Y65250
X131749Y61950
X124849Y56850
X127302Y65900
X124449Y55650
X126849Y66350
X130049Y52270
X130649Y60700
X129499Y52150
X129671Y64478
X128899Y52150
X129849Y65300
X128349Y52250
X129249Y65200
X130609Y52210
X113899Y58950
X128049Y56500
X122049Y57550
X128049Y53800
X113999Y60150
X129849Y56500
X122549Y58800
X128949Y56500
X121499Y58700
X129849Y57400
X114399Y61150
X133642Y57407
X133299Y56050
X130995Y64250
X125199Y55600
X131206Y60746
X127489Y52060
X125399Y65500
X123849Y55600
X126399Y59900
X114999Y62350
X126911Y60312
X114932Y63750
X133649Y56500
X130795Y63050
X133299Y55150
X130745Y63650
X126949Y52750
X124199Y59000
X129249Y60000
X117766Y64654
X129649Y60400
X118349Y64400
X130749Y54700
X123499Y65050
X129849Y52900
X129099Y62400
X129849Y55600
X127006Y55250
X118399Y62200
X133649Y54700
X120099Y55600
X122549Y65700
X133299Y54250
X120749Y55600
X123449Y66550
X133299Y52000
X118549Y53850
X117799Y62450
X132577Y51521
X115999Y52400
X124549Y66700
X125049Y66950
X119249Y55600
X128949Y52900
X124781Y66103
X121999Y56500
X121092Y62393
X128049Y54700
X124749Y65500
X122549Y56650
X123949Y65600
X122049Y55600
X130749Y52900
X124699Y59496
X131199Y67000
X130749Y53800
X124749Y58854
X131499Y66500
X124849Y54250
X116345Y65600
X126929Y52150
X129595Y62700
X133299Y57850
X132499Y64350
X130849Y62400
X115849Y66100
X115649Y62200
X151461Y53800
X148211Y59850
X148011Y51900
X147061Y50850
X146061Y51850
X148061Y49850
X147061Y48850
X146061Y49850
X147061Y52850
X146061Y53850
X145061Y52850
X144061Y53850
X145061Y50850
X144061Y51850
X143061Y52850
X142061Y53850
X141061Y52850
X140061Y53850
X139061Y52850
X138061Y53850
X136061Y53850
X136061Y51850
X139061Y50850
X140061Y51850
X142061Y51850
X139061Y48850
X137061Y48850
X138061Y51850
X144111Y62800
X145561Y66050
X135861Y64550
X155761Y65650
X156161Y62850
X154111Y56300
X156161Y63400
X136661Y59500
X148211Y52950
X154361Y53550
X156511Y52650
X156511Y51050
X152661Y64800
X144111Y60150
X154161Y58100
X138361Y66800
X149611Y56650
X156161Y55600
X156011Y61150
X155811Y56950
X146711Y59900
X155811Y53350
X156211Y59650
X155561Y63900
X136761Y65500
X147411Y62400
X136711Y54600
X141661Y63650
X142665Y63656
X147361Y55150
X140055Y65250
X154261Y61950
X147361Y56850
X149815Y65900
X146961Y55650
X149361Y66350
X152561Y52270
X153161Y60700
X152011Y52150
X152183Y64478
X151411Y52150
X152361Y65300
X150861Y52250
X151761Y65200
X153121Y52210
X136411Y58950
X150561Y56500
X144561Y57550
X150561Y53800
X136511Y60150
X152361Y56500
X145061Y58800
X151461Y56500
X144011Y58700
X152361Y57400
X136911Y61150
X156154Y57407
X155811Y56050
X153507Y64250
X147711Y55600
X153718Y60746
X150001Y52060
X147911Y65500
X146361Y55600
X148911Y59900
X137511Y62350
X149423Y60312
X137444Y63750
X156161Y56500
X153307Y63050
X155811Y55150
X153257Y63650
X149461Y52750
X146711Y59000
X151761Y60000
X140278Y64654
X152161Y60400
X140861Y64400
X153261Y54700
X146011Y65050
X152361Y52900
X151611Y62400
X152361Y55600
X149518Y55250
X140911Y62200
X156161Y54700
X142611Y55600
X145061Y65700
X155811Y54250
X143261Y55600
X145961Y66550
X155811Y52000
X141061Y53850
X140311Y62450
X155090Y51521
X138511Y52400
X147061Y66700
X147561Y66950
X141761Y55600
X151461Y52900
X147293Y66103
X144511Y56500
X143604Y62393
X150561Y54700
X147261Y65500
X145061Y56650
X146461Y65600
X144561Y55600
X153261Y52900
X147211Y59496
X153711Y67000
X153261Y53800
X147261Y58854
X154011Y66500
X147361Y54250
X138857Y65600
X149441Y52150
X152107Y62700
X155811Y57850
X155011Y64350
X153361Y62400
X138361Y66100
X138161Y62200
X173970Y53800
X170720Y59850
X170520Y51900
X169570Y50850
X168570Y51850
X170570Y49850
X169570Y48850
X168570Y49850
X169570Y52850
X168570Y53850
X167570Y52850
X166570Y53850
X167570Y50850
X166570Y51850
X165570Y52850
X164570Y53850
X163570Y52850
X162570Y53850
X161570Y52850
X160570Y53850
X158570Y53850
X158570Y51850
X161570Y50850
X162570Y51850
X164570Y51850
X161570Y48850
X159570Y48850
X160570Y51850
X166620Y62800
X168070Y66050
X158370Y64550
X178270Y65650
X178670Y62850
X176620Y56300
X178670Y63400
X159170Y59500
X170720Y52950
X176870Y53550
X179020Y52650
X179020Y51050
X175170Y64800
X166620Y60150
X176670Y58100
X160870Y66800
X172120Y56650
X178670Y55600
X178520Y61150
X178320Y56950
X169220Y59900
X178320Y53350
X178720Y59650
X178070Y63900
X159270Y65500
X169920Y62400
X159220Y54600
X164170Y63650
X165174Y63656
X169870Y55150
X162565Y65250
X176770Y61950
X169870Y56850
X172324Y65900
X169470Y55650
X171870Y66350
X175070Y52270
X175670Y60700
X174520Y52150
X174693Y64478
X173920Y52150
X174870Y65300
X173370Y52250
X174270Y65200
X175630Y52210
X158920Y58950
X173070Y56500
X167070Y57550
X173070Y53800
X159020Y60150
X174870Y56500
X167570Y58800
X173970Y56500
X166520Y58700
X174870Y57400
X159420Y61150
X178663Y57407
X178320Y56050
X176017Y64250
X170220Y55600
X176228Y60746
X172510Y52060
X170420Y65500
X168870Y55600
X171420Y59900
X160020Y62350
X171933Y60312
X159953Y63750
X178670Y56500
X175817Y63050
X178320Y55150
X175767Y63650
X171970Y52750
X169220Y59000
X174270Y60000
X162788Y64654
X174670Y60400
X163370Y64400
X175770Y54700
X168520Y65050
X174870Y52900
X174120Y62400
X174870Y55600
X172027Y55250
X163420Y62200
X178670Y54700
X165120Y55600
X167570Y65700
X178320Y54250
X165770Y55600
X168470Y66550
X178320Y52000
X163570Y53850
X162820Y62450
X177599Y51521
X161020Y52400
X169570Y66700
X170070Y66950
X164270Y55600
X173970Y52900
X169803Y66103
X167020Y56500
X166113Y62393
X173070Y54700
X169770Y65500
X167570Y56650
X168970Y65600
X167070Y55600
X175770Y52900
X169720Y59496
X176220Y67000
X175770Y53800
X169770Y58854
X176520Y66500
X169870Y54250
X161367Y65600
X171950Y52150
X174617Y62700
X178320Y57850
X177520Y64350
X175870Y62400
X160870Y66100
X160670Y62200
X12900Y21000
X17100Y21000
X15000Y19700
X35409Y21000
X39609Y21000
X37509Y19700
X57919Y21000
X62119Y21000
X60019Y19700
X80431Y21000
X84631Y21000
X82531Y19700
X102940Y21000
X107140Y21000
X105040Y19700
X125450Y21000
X129650Y21000
X127550Y19700
X147959Y21000
X152159Y21000
X150059Y19700
X170469Y21000
X174669Y21000
X172569Y19700
X9099Y48850
X4899Y48850
X6999Y50150
X31611Y48850
X27411Y48850
X29511Y50150
X54120Y48850
X49920Y48850
X52020Y50150
X76630Y48850
X72430Y48850
X74530Y50150
X99139Y48850
X94939Y48850
X97039Y50150
X121649Y48850
X117449Y48850
X119549Y50150
X144161Y48850
X139961Y48850
X142061Y50150
X166670Y48850
X162470Y48850
X164570Y50150
M30