M48
;GenerationSoftware,Autodesk,EAGLE,9.6.2*%
;CreationDate,2023-04-25T20:19:57Z*%
FMAT,2
ICI,OFF
METRIC,TZ,000.000
T1C0.200
%
G90
M71
T1
X5600Y16050
X8850Y10000
X9050Y17950
X10000Y19000
X11000Y18000
X9000Y20000
X10000Y21000
X11000Y20000
X10000Y17000
X11000Y16000
X12000Y17000
X13000Y16000
X12000Y19000
X13000Y18000
X14000Y17000
X15000Y16000
X16000Y17000
X17000Y16000
X18000Y17000
X19000Y16000
X21000Y16000
X21000Y18000
X18000Y19000
X17000Y18000
X15000Y18000
X18000Y21000
X20000Y21000
X19000Y18000
X12950Y7050
X11500Y3800
X21200Y5300
X1300Y4200
X900Y7000
X2950Y13550
X900Y6450
X20400Y10350
X8850Y16900
X3150Y16750
X550Y17150
X550Y18800
X4400Y5050
X12950Y9850
X2900Y11750
X18700Y3050
X7450Y13200
X12800Y10750
X19750Y8550
X20400Y11900
X10370Y10380
X900Y14250
X1050Y8700
X1250Y12900
X10100Y9850
X1250Y16500
X850Y10200
X1500Y5950
X20300Y4350
X9650Y7450
X20350Y15250
X15400Y6200
X14396Y6194
X9700Y14700
X17006Y4600
X2800Y7900
X9700Y13000
X7246Y3950
X10100Y14200
X7700Y3500
X4500Y17580
X3900Y9150
X5050Y17700
X4878Y5372
X5650Y17700
X4700Y4550
X6200Y17600
X5300Y4650
X3940Y17640
X20650Y10900
X6500Y13350
X12500Y12300
X6500Y16050
X20550Y9700
X4700Y13350
X12000Y11100
X5600Y13350
X13050Y11250
X4700Y12450
X20350Y8950
X907Y12443
X1250Y13800
X3554Y5600
X9350Y14250
X3343Y9104
X7060Y17790
X9150Y4350
X10700Y14250
X8150Y9900
X18187Y9250
X7638Y9488
X19950Y7800
X900Y13350
X3754Y6800
X1250Y14700
X3804Y6200
X7600Y17100
X10400Y10950
X5300Y9850
X16783Y5196
X4900Y9450
X16200Y5450
X3800Y15150
X11050Y4800
X4700Y16950
X5450Y7450
X4700Y14250
X7543Y14600
X16150Y7550
X900Y15150
X14450Y14250
X12000Y4150
X1250Y15600
X13800Y14250
X11100Y3300
X1250Y17850
X16000Y16000
X16750Y7300
X1971Y18329
X18550Y17450
X10000Y3150
X9500Y2900
X15300Y14250
X5600Y16950
X9768Y3747
X12550Y13350
X13457Y7457
X6500Y15150
X9800Y4350
X12000Y13200
X10600Y4250
X12500Y14250
X3800Y16950
X9750Y10304
X3350Y2850
X3800Y16050
X9800Y10996
X3050Y3350
X9700Y15600
X18204Y4100
X7620Y17700
X4954Y7150
X1250Y12000
X2050Y5500
X3700Y7450
X18700Y4500
X19450Y5650
X28107Y16050
X31357Y10000
X31557Y17950
X32507Y19000
X33507Y18000
X31507Y20000
X32507Y21000
X33507Y20000
X32507Y17000
X33507Y16000
X34507Y17000
X35507Y16000
X34507Y19000
X35507Y18000
X36507Y17000
X37507Y16000
X38507Y17000
X39507Y16000
X40507Y17000
X41507Y16000
X43507Y16000
X43507Y18000
X40507Y19000
X39507Y18000
X37507Y18000
X40507Y21000
X42507Y21000
X41507Y18000
X35457Y7050
X34007Y3800
X43707Y5300
X23807Y4200
X23407Y7000
X25457Y13550
X23407Y6450
X42907Y10350
X31357Y16900
X25657Y16750
X23057Y17150
X23057Y18800
X26907Y5050
X35457Y9850
X25407Y11750
X41207Y3050
X29957Y13200
X35307Y10750
X42257Y8550
X42907Y11900
X32877Y10380
X23407Y14250
X23557Y8700
X23757Y12900
X32607Y9850
X23757Y16500
X23357Y10200
X24007Y5950
X42807Y4350
X32157Y7450
X42857Y15250
X37907Y6200
X36903Y6194
X32207Y14700
X39513Y4600
X25307Y7900
X32207Y13000
X29753Y3950
X32607Y14200
X30207Y3500
X27007Y17580
X26407Y9150
X27557Y17700
X27385Y5372
X28157Y17700
X27207Y4550
X28707Y17600
X27807Y4650
X26447Y17640
X43157Y10900
X29007Y13350
X35007Y12300
X29007Y16050
X43057Y9700
X27207Y13350
X34507Y11100
X28107Y13350
X35557Y11250
X27207Y12450
X42857Y8950
X23414Y12443
X23757Y13800
X26061Y5600
X31857Y14250
X25850Y9104
X29567Y17790
X31657Y4350
X33207Y14250
X30657Y9900
X40694Y9250
X30144Y9488
X42457Y7800
X23407Y13350
X26261Y6800
X23757Y14700
X26311Y6200
X30107Y17100
X32907Y10950
X27807Y9850
X39290Y5196
X27407Y9450
X38707Y5450
X26307Y15150
X33557Y4800
X27207Y16950
X27957Y7450
X27207Y14250
X30050Y14600
X38657Y7550
X23407Y15150
X36957Y14250
X34507Y4150
X23757Y15600
X36307Y14250
X33607Y3300
X23757Y17850
X38507Y16000
X39257Y7300
X24478Y18329
X41057Y17450
X32507Y3150
X32007Y2900
X37807Y14250
X28107Y16950
X32274Y3747
X35057Y13350
X35964Y7457
X29007Y15150
X32307Y4350
X34507Y13200
X33107Y4250
X35007Y14250
X26307Y16950
X32257Y10304
X25857Y2850
X26307Y16050
X32307Y10996
X25557Y3350
X32207Y15600
X40711Y4100
X30127Y17700
X27461Y7150
X23757Y12000
X24557Y5500
X26207Y7450
X41207Y4500
X41957Y5650
X50616Y16050
X53866Y10000
X54066Y17950
X55016Y19000
X56016Y18000
X54016Y20000
X55016Y21000
X56016Y20000
X55016Y17000
X56016Y16000
X57016Y17000
X58016Y16000
X57016Y19000
X58016Y18000
X59016Y17000
X60016Y16000
X61016Y17000
X62016Y16000
X63016Y17000
X64016Y16000
X66016Y16000
X66016Y18000
X63016Y19000
X62016Y18000
X60016Y18000
X63016Y21000
X65016Y21000
X64016Y18000
X57966Y7050
X56516Y3800
X66216Y5300
X46316Y4200
X45916Y7000
X47966Y13550
X45916Y6450
X65416Y10350
X53866Y16900
X48166Y16750
X45566Y17150
X45566Y18800
X49416Y5050
X57966Y9850
X47916Y11750
X63716Y3050
X52466Y13200
X57816Y10750
X64766Y8550
X65416Y11900
X55386Y10380
X45916Y14250
X46066Y8700
X46266Y12900
X55116Y9850
X46266Y16500
X45866Y10200
X46516Y5950
X65316Y4350
X54666Y7450
X65366Y15250
X60416Y6200
X59413Y6194
X54716Y14700
X62022Y4600
X47816Y7900
X54716Y13000
X52263Y3950
X55116Y14200
X52716Y3500
X49516Y17580
X48916Y9150
X50066Y17700
X49894Y5372
X50666Y17700
X49716Y4550
X51216Y17600
X50316Y4650
X48956Y17640
X65666Y10900
X51516Y13350
X57516Y12300
X51516Y16050
X65566Y9700
X49716Y13350
X57016Y11100
X50616Y13350
X58066Y11250
X49716Y12450
X65366Y8950
X45924Y12443
X46266Y13800
X48570Y5600
X54366Y14250
X48359Y9104
X52076Y17790
X54166Y4350
X55716Y14250
X53166Y9900
X63204Y9250
X52654Y9488
X64966Y7800
X45916Y13350
X48770Y6800
X46266Y14700
X48820Y6200
X52616Y17100
X55416Y10950
X50316Y9850
X61799Y5196
X49916Y9450
X61216Y5450
X48816Y15150
X56066Y4800
X49716Y16950
X50466Y7450
X49716Y14250
X52560Y14600
X61166Y7550
X45916Y15150
X59466Y14250
X57016Y4150
X46266Y15600
X58816Y14250
X56116Y3300
X46266Y17850
X61016Y16000
X61766Y7300
X46988Y18329
X63566Y17450
X55016Y3150
X54516Y2900
X60316Y14250
X50616Y16950
X54784Y3747
X57566Y13350
X58474Y7457
X51516Y15150
X54816Y4350
X57016Y13200
X55616Y4250
X57516Y14250
X48816Y16950
X54766Y10304
X48366Y2850
X48816Y16050
X54816Y10996
X48066Y3350
X54716Y15600
X63220Y4100
X52636Y17700
X49970Y7150
X46266Y12000
X47066Y5500
X48716Y7450
X63716Y4500
X64466Y5650
X73123Y16050
X76373Y10000
X76573Y17950
X77523Y19000
X78523Y18000
X76523Y20000
X77523Y21000
X78523Y20000
X77523Y17000
X78523Y16000
X79523Y17000
X80523Y16000
X79523Y19000
X80523Y18000
X81523Y17000
X82523Y16000
X83523Y17000
X84523Y16000
X85523Y17000
X86523Y16000
X88523Y16000
X88523Y18000
X85523Y19000
X84523Y18000
X82523Y18000
X85523Y21000
X87523Y21000
X86523Y18000
X80473Y7050
X79023Y3800
X88723Y5300
X68823Y4200
X68423Y7000
X70473Y13550
X68423Y6450
X87923Y10350
X76373Y16900
X70673Y16750
X68073Y17150
X68073Y18800
X71923Y5050
X80473Y9850
X70423Y11750
X86223Y3050
X74973Y13200
X80323Y10750
X87273Y8550
X87923Y11900
X77893Y10380
X68423Y14250
X68573Y8700
X68773Y12900
X77623Y9850
X68773Y16500
X68373Y10200
X69023Y5950
X87823Y4350
X77173Y7450
X87873Y15250
X82923Y6200
X81920Y6194
X77223Y14700
X84529Y4600
X70323Y7900
X77223Y13000
X74770Y3950
X77623Y14200
X75223Y3500
X72023Y17580
X71423Y9150
X72573Y17700
X72401Y5372
X73173Y17700
X72223Y4550
X73723Y17600
X72823Y4650
X71463Y17640
X88173Y10900
X74023Y13350
X80023Y12300
X74023Y16050
X88073Y9700
X72223Y13350
X79523Y11100
X73123Y13350
X80573Y11250
X72223Y12450
X87873Y8950
X68430Y12443
X68773Y13800
X71077Y5600
X76873Y14250
X70866Y9104
X74583Y17790
X76673Y4350
X78223Y14250
X75673Y9900
X85711Y9250
X75161Y9488
X87473Y7800
X68423Y13350
X71277Y6800
X68773Y14700
X71327Y6200
X75123Y17100
X77923Y10950
X72823Y9850
X84306Y5196
X72423Y9450
X83723Y5450
X71323Y15150
X78573Y4800
X72223Y16950
X72973Y7450
X72223Y14250
X75067Y14600
X83673Y7550
X68423Y15150
X81973Y14250
X79523Y4150
X68773Y15600
X81323Y14250
X78623Y3300
X68773Y17850
X83523Y16000
X84273Y7300
X69495Y18329
X86073Y17450
X77523Y3150
X77023Y2900
X82823Y14250
X73123Y16950
X77291Y3747
X80073Y13350
X80980Y7457
X74023Y15150
X77323Y4350
X79523Y13200
X78123Y4250
X80023Y14250
X71323Y16950
X77273Y10304
X70873Y2850
X71323Y16050
X77323Y10996
X70573Y3350
X77223Y15600
X85727Y4100
X75143Y17700
X72477Y7150
X68773Y12000
X69573Y5500
X71223Y7450
X86223Y4500
X86973Y5650
X95633Y16050
X98883Y10000
X99083Y17950
X100033Y19000
X101033Y18000
X99033Y20000
X100033Y21000
X101033Y20000
X100033Y17000
X101033Y16000
X102033Y17000
X103033Y16000
X102033Y19000
X103033Y18000
X104033Y17000
X105033Y16000
X106033Y17000
X107033Y16000
X108033Y17000
X109033Y16000
X111033Y16000
X111033Y18000
X108033Y19000
X107033Y18000
X105033Y18000
X108033Y21000
X110033Y21000
X109033Y18000
X102983Y7050
X101533Y3800
X111233Y5300
X91333Y4200
X90933Y7000
X92983Y13550
X90933Y6450
X110433Y10350
X98883Y16900
X93183Y16750
X90583Y17150
X90583Y18800
X94433Y5050
X102983Y9850
X92933Y11750
X108733Y3050
X97483Y13200
X102833Y10750
X109783Y8550
X110433Y11900
X100403Y10380
X90933Y14250
X91083Y8700
X91283Y12900
X100133Y9850
X91283Y16500
X90883Y10200
X91533Y5950
X110333Y4350
X99683Y7450
X110383Y15250
X105433Y6200
X104429Y6194
X99733Y14700
X107038Y4600
X92833Y7900
X99733Y13000
X97279Y3950
X100133Y14200
X97733Y3500
X94533Y17580
X93933Y9150
X95083Y17700
X94911Y5372
X95683Y17700
X94733Y4550
X96233Y17600
X95333Y4650
X93973Y17640
X110683Y10900
X96533Y13350
X102533Y12300
X96533Y16050
X110583Y9700
X94733Y13350
X102033Y11100
X95633Y13350
X103083Y11250
X94733Y12450
X110383Y8950
X90940Y12443
X91283Y13800
X93586Y5600
X99383Y14250
X93376Y9104
X97093Y17790
X99183Y4350
X100733Y14250
X98183Y9900
X108220Y9250
X97670Y9488
X109983Y7800
X90933Y13350
X93786Y6800
X91283Y14700
X93836Y6200
X97633Y17100
X100433Y10950
X95333Y9850
X106816Y5196
X94933Y9450
X106233Y5450
X93833Y15150
X101083Y4800
X94733Y16950
X95483Y7450
X94733Y14250
X97576Y14600
X106183Y7550
X90933Y15150
X104483Y14250
X102033Y4150
X91283Y15600
X103833Y14250
X101133Y3300
X91283Y17850
X106033Y16000
X106783Y7300
X92004Y18329
X108583Y17450
X100033Y3150
X99533Y2900
X105333Y14250
X95633Y16950
X99800Y3747
X102583Y13350
X103490Y7457
X96533Y15150
X99833Y4350
X102033Y13200
X100633Y4250
X102533Y14250
X93833Y16950
X99783Y10304
X93383Y2850
X93833Y16050
X99833Y10996
X93083Y3350
X99733Y15600
X108236Y4100
X97653Y17700
X94986Y7150
X91283Y12000
X92083Y5500
X93733Y7450
X108733Y4500
X109483Y5650
X118140Y16050
X121390Y10000
X121590Y17950
X122540Y19000
X123540Y18000
X121540Y20000
X122540Y21000
X123540Y20000
X122540Y17000
X123540Y16000
X124540Y17000
X125540Y16000
X124540Y19000
X125540Y18000
X126540Y17000
X127540Y16000
X128540Y17000
X129540Y16000
X130540Y17000
X131540Y16000
X133540Y16000
X133540Y18000
X130540Y19000
X129540Y18000
X127540Y18000
X130540Y21000
X132540Y21000
X131540Y18000
X125490Y7050
X124040Y3800
X133740Y5300
X113840Y4200
X113440Y7000
X115490Y13550
X113440Y6450
X132940Y10350
X121390Y16900
X115690Y16750
X113090Y17150
X113090Y18800
X116940Y5050
X125490Y9850
X115440Y11750
X131240Y3050
X119990Y13200
X125340Y10750
X132290Y8550
X132940Y11900
X122910Y10380
X113440Y14250
X113590Y8700
X113790Y12900
X122640Y9850
X113790Y16500
X113390Y10200
X114040Y5950
X132840Y4350
X122190Y7450
X132890Y15250
X127940Y6200
X126936Y6194
X122240Y14700
X129545Y4600
X115340Y7900
X122240Y13000
X119786Y3950
X122640Y14200
X120240Y3500
X117040Y17580
X116440Y9150
X117590Y17700
X117418Y5372
X118190Y17700
X117240Y4550
X118740Y17600
X117840Y4650
X116480Y17640
X133190Y10900
X119040Y13350
X125040Y12300
X119040Y16050
X133090Y9700
X117240Y13350
X124540Y11100
X118140Y13350
X125590Y11250
X117240Y12450
X132890Y8950
X113447Y12443
X113790Y13800
X116093Y5600
X121890Y14250
X115883Y9104
X119600Y17790
X121690Y4350
X123240Y14250
X120690Y9900
X130727Y9250
X120177Y9488
X132490Y7800
X113440Y13350
X116293Y6800
X113790Y14700
X116343Y6200
X120140Y17100
X122940Y10950
X117840Y9850
X129323Y5196
X117440Y9450
X128740Y5450
X116340Y15150
X123590Y4800
X117240Y16950
X117990Y7450
X117240Y14250
X120083Y14600
X128690Y7550
X113440Y15150
X126990Y14250
X124540Y4150
X113790Y15600
X126340Y14250
X123640Y3300
X113790Y17850
X128540Y16000
X129290Y7300
X114511Y18329
X131090Y17450
X122540Y3150
X122040Y2900
X127840Y14250
X118140Y16950
X122307Y3747
X125090Y13350
X125997Y7457
X119040Y15150
X122340Y4350
X124540Y13200
X123140Y4250
X125040Y14250
X116340Y16950
X122290Y10304
X115890Y2850
X116340Y16050
X122340Y10996
X115590Y3350
X122240Y15600
X130743Y4100
X120160Y17700
X117493Y7150
X113790Y12000
X114590Y5500
X116240Y7450
X131240Y4500
X131990Y5650
X140649Y16050
X143899Y10000
X144099Y17950
X145049Y19000
X146049Y18000
X144049Y20000
X145049Y21000
X146049Y20000
X145049Y17000
X146049Y16000
X147049Y17000
X148049Y16000
X147049Y19000
X148049Y18000
X149049Y17000
X150049Y16000
X151049Y17000
X152049Y16000
X153049Y17000
X154049Y16000
X156049Y16000
X156049Y18000
X153049Y19000
X152049Y18000
X150049Y18000
X153049Y21000
X155049Y21000
X154049Y18000
X147999Y7050
X146549Y3800
X156249Y5300
X136349Y4200
X135949Y7000
X137999Y13550
X135949Y6450
X155449Y10350
X143899Y16900
X138199Y16750
X135599Y17150
X135599Y18800
X139449Y5050
X147999Y9850
X137949Y11750
X153749Y3050
X142499Y13200
X147849Y10750
X154799Y8550
X155449Y11900
X145419Y10380
X135949Y14250
X136099Y8700
X136299Y12900
X145149Y9850
X136299Y16500
X135899Y10200
X136549Y5950
X155349Y4350
X144699Y7450
X155399Y15250
X150449Y6200
X149446Y6194
X144749Y14700
X152055Y4600
X137849Y7900
X144749Y13000
X142296Y3950
X145149Y14200
X142749Y3500
X139549Y17580
X138949Y9150
X140099Y17700
X139927Y5372
X140699Y17700
X139749Y4550
X141249Y17600
X140349Y4650
X138989Y17640
X155699Y10900
X141549Y13350
X147549Y12300
X141549Y16050
X155599Y9700
X139749Y13350
X147049Y11100
X140649Y13350
X148099Y11250
X139749Y12450
X155399Y8950
X135956Y12443
X136299Y13800
X138603Y5600
X144399Y14250
X138392Y9104
X142109Y17790
X144199Y4350
X145749Y14250
X143199Y9900
X153237Y9250
X142687Y9488
X154999Y7800
X135949Y13350
X138803Y6800
X136299Y14700
X138853Y6200
X142649Y17100
X145449Y10950
X140349Y9850
X151832Y5196
X139949Y9450
X151249Y5450
X138849Y15150
X146099Y4800
X139749Y16950
X140499Y7450
X139749Y14250
X142592Y14600
X151199Y7550
X135949Y15150
X149499Y14250
X147049Y4150
X136299Y15600
X148849Y14250
X146149Y3300
X136299Y17850
X151049Y16000
X151799Y7300
X137021Y18329
X153599Y17450
X145049Y3150
X144549Y2900
X150349Y14250
X140649Y16950
X144817Y3747
X147599Y13350
X148506Y7457
X141549Y15150
X144849Y4350
X147049Y13200
X145649Y4250
X147549Y14250
X138849Y16950
X144799Y10304
X138399Y2850
X138849Y16050
X144849Y10996
X138099Y3350
X144749Y15600
X153253Y4100
X142669Y17700
X140003Y7150
X136299Y12000
X137099Y5500
X138749Y7450
X153749Y4500
X154499Y5650
X163156Y16050
X166406Y10000
X166606Y17950
X167556Y19000
X168556Y18000
X166556Y20000
X167556Y21000
X168556Y20000
X167556Y17000
X168556Y16000
X169556Y17000
X170556Y16000
X169556Y19000
X170556Y18000
X171556Y17000
X172556Y16000
X173556Y17000
X174556Y16000
X175556Y17000
X176556Y16000
X178556Y16000
X178556Y18000
X175556Y19000
X174556Y18000
X172556Y18000
X175556Y21000
X177556Y21000
X176556Y18000
X170506Y7050
X169056Y3800
X178756Y5300
X158856Y4200
X158456Y7000
X160506Y13550
X158456Y6450
X177956Y10350
X166406Y16900
X160706Y16750
X158106Y17150
X158106Y18800
X161956Y5050
X170506Y9850
X160456Y11750
X176256Y3050
X165006Y13200
X170356Y10750
X177306Y8550
X177956Y11900
X167926Y10380
X158456Y14250
X158606Y8700
X158806Y12900
X167656Y9850
X158806Y16500
X158406Y10200
X159056Y5950
X177856Y4350
X167206Y7450
X177906Y15250
X172956Y6200
X171953Y6194
X167256Y14700
X174562Y4600
X160356Y7900
X167256Y13000
X164803Y3950
X167656Y14200
X165256Y3500
X162056Y17580
X161456Y9150
X162606Y17700
X162434Y5372
X163206Y17700
X162256Y4550
X163756Y17600
X162856Y4650
X161496Y17640
X178206Y10900
X164056Y13350
X170056Y12300
X164056Y16050
X178106Y9700
X162256Y13350
X169556Y11100
X163156Y13350
X170606Y11250
X162256Y12450
X177906Y8950
X158463Y12443
X158806Y13800
X161110Y5600
X166906Y14250
X160899Y9104
X164616Y17790
X166706Y4350
X168256Y14250
X165706Y9900
X175744Y9250
X165194Y9488
X177506Y7800
X158456Y13350
X161310Y6800
X158806Y14700
X161360Y6200
X165156Y17100
X167956Y10950
X162856Y9850
X174339Y5196
X162456Y9450
X173756Y5450
X161356Y15150
X168606Y4800
X162256Y16950
X163006Y7450
X162256Y14250
X165099Y14600
X173706Y7550
X158456Y15150
X172006Y14250
X169556Y4150
X158806Y15600
X171356Y14250
X168656Y3300
X158806Y17850
X173556Y16000
X174306Y7300
X159528Y18329
X176106Y17450
X167556Y3150
X167056Y2900
X172856Y14250
X163156Y16950
X167324Y3747
X170106Y13350
X171013Y7457
X164056Y15150
X167356Y4350
X169556Y13200
X168156Y4250
X170056Y14250
X161356Y16950
X167306Y10304
X160906Y2850
X161356Y16050
X167356Y10996
X160606Y3350
X167256Y15600
X175760Y4100
X165176Y17700
X162510Y7150
X158806Y12000
X159606Y5500
X161256Y7450
X176256Y4500
X177006Y5650
X16399Y53800
X13149Y59850
X12949Y51900
X11999Y50850
X10999Y51850
X12999Y49850
X11999Y48850
X10999Y49850
X11999Y52850
X10999Y53850
X9999Y52850
X8999Y53850
X9999Y50850
X8999Y51850
X7999Y52850
X6999Y53850
X5999Y52850
X4999Y53850
X3999Y52850
X2999Y53850
X999Y53850
X999Y51850
X3999Y50850
X4999Y51850
X6999Y51850
X3999Y48850
X1999Y48850
X2999Y51850
X9049Y62800
X10499Y66050
X799Y64550
X20699Y65650
X21099Y62850
X19049Y56300
X21099Y63400
X1599Y59500
X13149Y52950
X18849Y53100
X21449Y52700
X21449Y51050
X17599Y64800
X9049Y60000
X19099Y58100
X3299Y66800
X14549Y56650
X9199Y59100
X2249Y61300
X1599Y57950
X11629Y59470
X21099Y55600
X20949Y61150
X20749Y56950
X11899Y60000
X20749Y53350
X21149Y59650
X20499Y63900
X1699Y65500
X12349Y62400
X1649Y54600
X6599Y63650
X7603Y63656
X12299Y55150
X4993Y65250
X19199Y61950
X12299Y56850
X14753Y65900
X11899Y55650
X14299Y66350
X17499Y52270
X18099Y60700
X16949Y52150
X17121Y64478
X16349Y52150
X17299Y65300
X15799Y52250
X16699Y65200
X18059Y52210
X1349Y58950
X15499Y56500
X9499Y57550
X15499Y53800
X1449Y60150
X17299Y56500
X9999Y58750
X16399Y56500
X8949Y58600
X17299Y57400
X1649Y60900
X21092Y57407
X20749Y56050
X18445Y64250
X12649Y55600
X18656Y60746
X14939Y52060
X12849Y65500
X11299Y55600
X13849Y59950
X3812Y60600
X14361Y60362
X2049Y62050
X21099Y56500
X18245Y63050
X20749Y55150
X18195Y63650
X14399Y52750
X11599Y58900
X16699Y60000
X5216Y64654
X17099Y60400
X5799Y64400
X18199Y54700
X10949Y65050
X17299Y52900
X16549Y62400
X17299Y55600
X14456Y55250
X5849Y62300
X21099Y54700
X7549Y55600
X9999Y65700
X20749Y54250
X8199Y55600
X10899Y66550
X20749Y52000
X5999Y53850
X5249Y62550
X20028Y51521
X3449Y52400
X11999Y66700
X12499Y66950
X6699Y55600
X16399Y52900
X12231Y66103
X9449Y56500
X8542Y62393
X15499Y54700
X12199Y65500
X9999Y56650
X11399Y65600
X9499Y55600
X18199Y52900
X12249Y59546
X18649Y67000
X18199Y53800
X12199Y58854
X18949Y66500
X12299Y54250
X3795Y65750
X14379Y52150
X17045Y62700
X20749Y57850
X19949Y64350
X18299Y62400
X3299Y65350
X2549Y64200
X38908Y53800
X35658Y59850
X35458Y51900
X34508Y50850
X33508Y51850
X35508Y49850
X34508Y48850
X33508Y49850
X34508Y52850
X33508Y53850
X32508Y52850
X31508Y53850
X32508Y50850
X31508Y51850
X30508Y52850
X29508Y53850
X28508Y52850
X27508Y53850
X26508Y52850
X25508Y53850
X23508Y53850
X23508Y51850
X26508Y50850
X27508Y51850
X29508Y51850
X26508Y48850
X24508Y48850
X25508Y51850
X31558Y62800
X33008Y66050
X23308Y64550
X43208Y65650
X43608Y62850
X41558Y56300
X43608Y63400
X24108Y59500
X35658Y52950
X41358Y53100
X43958Y52700
X43958Y51050
X40108Y64800
X31558Y60000
X41608Y58100
X25808Y66800
X37058Y56650
X31708Y59100
X24758Y61300
X24108Y57950
X34138Y59470
X43608Y55600
X43458Y61150
X43258Y56950
X34408Y60000
X43258Y53350
X43658Y59650
X43008Y63900
X24208Y65500
X34858Y62400
X24158Y54600
X29108Y63650
X30112Y63656
X34808Y55150
X27503Y65250
X41708Y61950
X34808Y56850
X37262Y65900
X34408Y55650
X36808Y66350
X40008Y52270
X40608Y60700
X39458Y52150
X39631Y64478
X38858Y52150
X39808Y65300
X38308Y52250
X39208Y65200
X40568Y52210
X23858Y58950
X38008Y56500
X32008Y57550
X38008Y53800
X23958Y60150
X39808Y56500
X32508Y58750
X38908Y56500
X31458Y58600
X39808Y57400
X24158Y60900
X43601Y57407
X43258Y56050
X40955Y64250
X35158Y55600
X41166Y60746
X37448Y52060
X35358Y65500
X33808Y55600
X36358Y59950
X26321Y60600
X36871Y60362
X24558Y62050
X43608Y56500
X40755Y63050
X43258Y55150
X40705Y63650
X36908Y52750
X34108Y58900
X39208Y60000
X27726Y64654
X39608Y60400
X28308Y64400
X40708Y54700
X33458Y65050
X39808Y52900
X39058Y62400
X39808Y55600
X36965Y55250
X28358Y62300
X43608Y54700
X30058Y55600
X32508Y65700
X43258Y54250
X30708Y55600
X33408Y66550
X43258Y52000
X28508Y53850
X27758Y62550
X42537Y51521
X25958Y52400
X34508Y66700
X35008Y66950
X29208Y55600
X38908Y52900
X34741Y66103
X31958Y56500
X31051Y62393
X38008Y54700
X34708Y65500
X32508Y56650
X33908Y65600
X32008Y55600
X40708Y52900
X34758Y59546
X41158Y67000
X40708Y53800
X34708Y58854
X41458Y66500
X34808Y54250
X26305Y65750
X36888Y52150
X39555Y62700
X43258Y57850
X42458Y64350
X40808Y62400
X25808Y65350
X25058Y64200
X61415Y53800
X58165Y59850
X57965Y51900
X57015Y50850
X56015Y51850
X58015Y49850
X57015Y48850
X56015Y49850
X57015Y52850
X56015Y53850
X55015Y52850
X54015Y53850
X55015Y50850
X54015Y51850
X53015Y52850
X52015Y53850
X51015Y52850
X50015Y53850
X49015Y52850
X48015Y53850
X46015Y53850
X46015Y51850
X49015Y50850
X50015Y51850
X52015Y51850
X49015Y48850
X47015Y48850
X48015Y51850
X54065Y62800
X55515Y66050
X45815Y64550
X65715Y65650
X66115Y62850
X64065Y56300
X66115Y63400
X46615Y59500
X58165Y52950
X63865Y53100
X66465Y52700
X66465Y51050
X62615Y64800
X54065Y60000
X64115Y58100
X48315Y66800
X59565Y56650
X54215Y59100
X47265Y61300
X46615Y57950
X56645Y59470
X66115Y55600
X65965Y61150
X65765Y56950
X56915Y60000
X65765Y53350
X66165Y59650
X65515Y63900
X46715Y65500
X57365Y62400
X46665Y54600
X51615Y63650
X52619Y63656
X57315Y55150
X50010Y65250
X64215Y61950
X57315Y56850
X59769Y65900
X56915Y55650
X59315Y66350
X62515Y52270
X63115Y60700
X61965Y52150
X62137Y64478
X61365Y52150
X62315Y65300
X60815Y52250
X61715Y65200
X63075Y52210
X46365Y58950
X60515Y56500
X54515Y57550
X60515Y53800
X46465Y60150
X62315Y56500
X55015Y58750
X61415Y56500
X53965Y58600
X62315Y57400
X46665Y60900
X66108Y57407
X65765Y56050
X63462Y64250
X57665Y55600
X63673Y60746
X59955Y52060
X57865Y65500
X56315Y55600
X58865Y59950
X48828Y60600
X59378Y60362
X47065Y62050
X66115Y56500
X63262Y63050
X65765Y55150
X63212Y63650
X59415Y52750
X56615Y58900
X61715Y60000
X50233Y64654
X62115Y60400
X50815Y64400
X63215Y54700
X55965Y65050
X62315Y52900
X61565Y62400
X62315Y55600
X59472Y55250
X50865Y62300
X66115Y54700
X52565Y55600
X55015Y65700
X65765Y54250
X53215Y55600
X55915Y66550
X65765Y52000
X51015Y53850
X50265Y62550
X65044Y51521
X48465Y52400
X57015Y66700
X57515Y66950
X51715Y55600
X61415Y52900
X57248Y66103
X54465Y56500
X53558Y62393
X60515Y54700
X57215Y65500
X55015Y56650
X56415Y65600
X54515Y55600
X63215Y52900
X57265Y59546
X63665Y67000
X63215Y53800
X57215Y58854
X63965Y66500
X57315Y54250
X48812Y65750
X59395Y52150
X62062Y62700
X65765Y57850
X64965Y64350
X63315Y62400
X48315Y65350
X47565Y64200
X83925Y53800
X80675Y59850
X80475Y51900
X79525Y50850
X78525Y51850
X80525Y49850
X79525Y48850
X78525Y49850
X79525Y52850
X78525Y53850
X77525Y52850
X76525Y53850
X77525Y50850
X76525Y51850
X75525Y52850
X74525Y53850
X73525Y52850
X72525Y53850
X71525Y52850
X70525Y53850
X68525Y53850
X68525Y51850
X71525Y50850
X72525Y51850
X74525Y51850
X71525Y48850
X69525Y48850
X70525Y51850
X76575Y62800
X78025Y66050
X68325Y64550
X88225Y65650
X88625Y62850
X86575Y56300
X88625Y63400
X69125Y59500
X80675Y52950
X86375Y53100
X88975Y52700
X88975Y51050
X85125Y64800
X76575Y60000
X86625Y58100
X70825Y66800
X82075Y56650
X76725Y59100
X69775Y61300
X69125Y57950
X79155Y59470
X88625Y55600
X88475Y61150
X88275Y56950
X79425Y60000
X88275Y53350
X88675Y59650
X88025Y63900
X69225Y65500
X79875Y62400
X69175Y54600
X74125Y63650
X75128Y63656
X79825Y55150
X72519Y65250
X86725Y61950
X79825Y56850
X82278Y65900
X79425Y55650
X81825Y66350
X85025Y52270
X85625Y60700
X84475Y52150
X84647Y64478
X83875Y52150
X84825Y65300
X83325Y52250
X84225Y65200
X85585Y52210
X68875Y58950
X83025Y56500
X77025Y57550
X83025Y53800
X68975Y60150
X84825Y56500
X77525Y58750
X83925Y56500
X76475Y58600
X84825Y57400
X69175Y60900
X88618Y57407
X88275Y56050
X85971Y64250
X80175Y55600
X86182Y60746
X82465Y52060
X80375Y65500
X78825Y55600
X81375Y59950
X71337Y60600
X81887Y60362
X69575Y62050
X88625Y56500
X85771Y63050
X88275Y55150
X85721Y63650
X81925Y52750
X79125Y58900
X84225Y60000
X72742Y64654
X84625Y60400
X73325Y64400
X85725Y54700
X78475Y65050
X84825Y52900
X84075Y62400
X84825Y55600
X81982Y55250
X73375Y62300
X88625Y54700
X75075Y55600
X77525Y65700
X88275Y54250
X75725Y55600
X78425Y66550
X88275Y52000
X73525Y53850
X72775Y62550
X87553Y51521
X70975Y52400
X79525Y66700
X80025Y66950
X74225Y55600
X83925Y52900
X79757Y66103
X76975Y56500
X76068Y62393
X83025Y54700
X79725Y65500
X77525Y56650
X78925Y65600
X77025Y55600
X85725Y52900
X79775Y59546
X86175Y67000
X85725Y53800
X79725Y58854
X86475Y66500
X79825Y54250
X71321Y65750
X81905Y52150
X84571Y62700
X88275Y57850
X87475Y64350
X85825Y62400
X70825Y65350
X70075Y64200
X106432Y53800
X103182Y59850
X102982Y51900
X102032Y50850
X101032Y51850
X103032Y49850
X102032Y48850
X101032Y49850
X102032Y52850
X101032Y53850
X100032Y52850
X99032Y53850
X100032Y50850
X99032Y51850
X98032Y52850
X97032Y53850
X96032Y52850
X95032Y53850
X94032Y52850
X93032Y53850
X91032Y53850
X91032Y51850
X94032Y50850
X95032Y51850
X97032Y51850
X94032Y48850
X92032Y48850
X93032Y51850
X99082Y62800
X100532Y66050
X90832Y64550
X110732Y65650
X111132Y62850
X109082Y56300
X111132Y63400
X91632Y59500
X103182Y52950
X108882Y53100
X111482Y52700
X111482Y51050
X107632Y64800
X99082Y60000
X109132Y58100
X93332Y66800
X104582Y56650
X99232Y59100
X92282Y61300
X91632Y57950
X101662Y59470
X111132Y55600
X110982Y61150
X110782Y56950
X101932Y60000
X110782Y53350
X111182Y59650
X110532Y63900
X91732Y65500
X102382Y62400
X91682Y54600
X96632Y63650
X97635Y63656
X102332Y55150
X95026Y65250
X109232Y61950
X102332Y56850
X104785Y65900
X101932Y55650
X104332Y66350
X107532Y52270
X108132Y60700
X106982Y52150
X107154Y64478
X106382Y52150
X107332Y65300
X105832Y52250
X106732Y65200
X108092Y52210
X91382Y58950
X105532Y56500
X99532Y57550
X105532Y53800
X91482Y60150
X107332Y56500
X100032Y58750
X106432Y56500
X98982Y58600
X107332Y57400
X91682Y60900
X111125Y57407
X110782Y56050
X108478Y64250
X102682Y55600
X108689Y60746
X104972Y52060
X102882Y65500
X101332Y55600
X103882Y59950
X93844Y60600
X104394Y60362
X92082Y62050
X111132Y56500
X108278Y63050
X110782Y55150
X108228Y63650
X104432Y52750
X101632Y58900
X106732Y60000
X95249Y64654
X107132Y60400
X95832Y64400
X108232Y54700
X100982Y65050
X107332Y52900
X106582Y62400
X107332Y55600
X104489Y55250
X95882Y62300
X111132Y54700
X97582Y55600
X100032Y65700
X110782Y54250
X98232Y55600
X100932Y66550
X110782Y52000
X96032Y53850
X95282Y62550
X110060Y51521
X93482Y52400
X102032Y66700
X102532Y66950
X96732Y55600
X106432Y52900
X102264Y66103
X99482Y56500
X98575Y62393
X105532Y54700
X102232Y65500
X100032Y56650
X101432Y65600
X99532Y55600
X108232Y52900
X102282Y59546
X108682Y67000
X108232Y53800
X102232Y58854
X108982Y66500
X102332Y54250
X93828Y65750
X104412Y52150
X107078Y62700
X110782Y57850
X109982Y64350
X108332Y62400
X93332Y65350
X92582Y64200
X128941Y53800
X125691Y59850
X125491Y51900
X124541Y50850
X123541Y51850
X125541Y49850
X124541Y48850
X123541Y49850
X124541Y52850
X123541Y53850
X122541Y52850
X121541Y53850
X122541Y50850
X121541Y51850
X120541Y52850
X119541Y53850
X118541Y52850
X117541Y53850
X116541Y52850
X115541Y53850
X113541Y53850
X113541Y51850
X116541Y50850
X117541Y51850
X119541Y51850
X116541Y48850
X114541Y48850
X115541Y51850
X121591Y62800
X123041Y66050
X113341Y64550
X133241Y65650
X133641Y62850
X131591Y56300
X133641Y63400
X114141Y59500
X125691Y52950
X131391Y53100
X133991Y52700
X133991Y51050
X130141Y64800
X121591Y60000
X131641Y58100
X115841Y66800
X127091Y56650
X121741Y59100
X114791Y61300
X114141Y57950
X124171Y59470
X133641Y55600
X133491Y61150
X133291Y56950
X124441Y60000
X133291Y53350
X133691Y59650
X133041Y63900
X114241Y65500
X124891Y62400
X114191Y54600
X119141Y63650
X120145Y63656
X124841Y55150
X117536Y65250
X131741Y61950
X124841Y56850
X127295Y65900
X124441Y55650
X126841Y66350
X130041Y52270
X130641Y60700
X129491Y52150
X129663Y64478
X128891Y52150
X129841Y65300
X128341Y52250
X129241Y65200
X130601Y52210
X113891Y58950
X128041Y56500
X122041Y57550
X128041Y53800
X113991Y60150
X129841Y56500
X122541Y58750
X128941Y56500
X121491Y58600
X129841Y57400
X114191Y60900
X133634Y57407
X133291Y56050
X130988Y64250
X125191Y55600
X131198Y60746
X127481Y52060
X125391Y65500
X123841Y55600
X126391Y59950
X116354Y60600
X126904Y60362
X114591Y62050
X133641Y56500
X130788Y63050
X133291Y55150
X130738Y63650
X126941Y52750
X124141Y58900
X129241Y60000
X117758Y64654
X129641Y60400
X118341Y64400
X130741Y54700
X123491Y65050
X129841Y52900
X129091Y62400
X129841Y55600
X126998Y55250
X118391Y62300
X133641Y54700
X120091Y55600
X122541Y65700
X133291Y54250
X120741Y55600
X123441Y66550
X133291Y52000
X118541Y53850
X117791Y62550
X132570Y51521
X115991Y52400
X124541Y66700
X125041Y66950
X119241Y55600
X128941Y52900
X124774Y66103
X121991Y56500
X121084Y62393
X128041Y54700
X124741Y65500
X122541Y56650
X123941Y65600
X122041Y55600
X130741Y52900
X124791Y59546
X131191Y67000
X130741Y53800
X124741Y58854
X131491Y66500
X124841Y54250
X116338Y65750
X126921Y52150
X129588Y62700
X133291Y57850
X132491Y64350
X130841Y62400
X115841Y65350
X115091Y64200
X151448Y53800
X148198Y59850
X147998Y51900
X147048Y50850
X146048Y51850
X148048Y49850
X147048Y48850
X146048Y49850
X147048Y52850
X146048Y53850
X145048Y52850
X144048Y53850
X145048Y50850
X144048Y51850
X143048Y52850
X142048Y53850
X141048Y52850
X140048Y53850
X139048Y52850
X138048Y53850
X136048Y53850
X136048Y51850
X139048Y50850
X140048Y51850
X142048Y51850
X139048Y48850
X137048Y48850
X138048Y51850
X144098Y62800
X145548Y66050
X135848Y64550
X155748Y65650
X156148Y62850
X154098Y56300
X156148Y63400
X136648Y59500
X148198Y52950
X153898Y53100
X156498Y52700
X156498Y51050
X152648Y64800
X144098Y60000
X154148Y58100
X138348Y66800
X149598Y56650
X144248Y59100
X137298Y61300
X136648Y57950
X146678Y59470
X156148Y55600
X155998Y61150
X155798Y56950
X146948Y60000
X155798Y53350
X156198Y59650
X155548Y63900
X136748Y65500
X147398Y62400
X136698Y54600
X141648Y63650
X142652Y63656
X147348Y55150
X140043Y65250
X154248Y61950
X147348Y56850
X149802Y65900
X146948Y55650
X149348Y66350
X152548Y52270
X153148Y60700
X151998Y52150
X152170Y64478
X151398Y52150
X152348Y65300
X150848Y52250
X151748Y65200
X153108Y52210
X136398Y58950
X150548Y56500
X144548Y57550
X150548Y53800
X136498Y60150
X152348Y56500
X145048Y58750
X151448Y56500
X143998Y58600
X152348Y57400
X136698Y60900
X156141Y57407
X155798Y56050
X153495Y64250
X147698Y55600
X153705Y60746
X149988Y52060
X147898Y65500
X146348Y55600
X148898Y59950
X138861Y60600
X149411Y60362
X137098Y62050
X156148Y56500
X153295Y63050
X155798Y55150
X153245Y63650
X149448Y52750
X146648Y58900
X151748Y60000
X140265Y64654
X152148Y60400
X140848Y64400
X153248Y54700
X145998Y65050
X152348Y52900
X151598Y62400
X152348Y55600
X149505Y55250
X140898Y62300
X156148Y54700
X142598Y55600
X145048Y65700
X155798Y54250
X143248Y55600
X145948Y66550
X155798Y52000
X141048Y53850
X140298Y62550
X155077Y51521
X138498Y52400
X147048Y66700
X147548Y66950
X141748Y55600
X151448Y52900
X147281Y66103
X144498Y56500
X143591Y62393
X150548Y54700
X147248Y65500
X145048Y56650
X146448Y65600
X144548Y55600
X153248Y52900
X147298Y59546
X153698Y67000
X153248Y53800
X147248Y58854
X153998Y66500
X147348Y54250
X138845Y65750
X149428Y52150
X152095Y62700
X155798Y57850
X154998Y64350
X153348Y62400
X138348Y65350
X137598Y64200
X173955Y53800
X170705Y59850
X170505Y51900
X169555Y50850
X168555Y51850
X170555Y49850
X169555Y48850
X168555Y49850
X169555Y52850
X168555Y53850
X167555Y52850
X166555Y53850
X167555Y50850
X166555Y51850
X165555Y52850
X164555Y53850
X163555Y52850
X162555Y53850
X161555Y52850
X160555Y53850
X158555Y53850
X158555Y51850
X161555Y50850
X162555Y51850
X164555Y51850
X161555Y48850
X159555Y48850
X160555Y51850
X166605Y62800
X168055Y66050
X158355Y64550
X178255Y65650
X178655Y62850
X176605Y56300
X178655Y63400
X159155Y59500
X170705Y52950
X176405Y53100
X179005Y52700
X179005Y51050
X175155Y64800
X166605Y60000
X176655Y58100
X160855Y66800
X172105Y56650
X166755Y59100
X159805Y61300
X159155Y57950
X169185Y59470
X178655Y55600
X178505Y61150
X178305Y56950
X169455Y60000
X178305Y53350
X178705Y59650
X178055Y63900
X159255Y65500
X169905Y62400
X159205Y54600
X164155Y63650
X165159Y63656
X169855Y55150
X162550Y65250
X176755Y61950
X169855Y56850
X172309Y65900
X169455Y55650
X171855Y66350
X175055Y52270
X175655Y60700
X174505Y52150
X174677Y64478
X173905Y52150
X174855Y65300
X173355Y52250
X174255Y65200
X175615Y52210
X158905Y58950
X173055Y56500
X167055Y57550
X173055Y53800
X159005Y60150
X174855Y56500
X167555Y58750
X173955Y56500
X166505Y58600
X174855Y57400
X159205Y60900
X178648Y57407
X178305Y56050
X176002Y64250
X170205Y55600
X176212Y60746
X172495Y52060
X170405Y65500
X168855Y55600
X171405Y59950
X161368Y60600
X171918Y60362
X159605Y62050
X178655Y56500
X175802Y63050
X178305Y55150
X175752Y63650
X171955Y52750
X169155Y58900
X174255Y60000
X162772Y64654
X174655Y60400
X163355Y64400
X175755Y54700
X168505Y65050
X174855Y52900
X174105Y62400
X174855Y55600
X172012Y55250
X163405Y62300
X178655Y54700
X165105Y55600
X167555Y65700
X178305Y54250
X165755Y55600
X168455Y66550
X178305Y52000
X163555Y53850
X162805Y62550
X177584Y51521
X161005Y52400
X169555Y66700
X170055Y66950
X164255Y55600
X173955Y52900
X169788Y66103
X167005Y56500
X166098Y62393
X173055Y54700
X169755Y65500
X167555Y56650
X168955Y65600
X167055Y55600
X175755Y52900
X169805Y59546
X176205Y67000
X175755Y53800
X169755Y58854
X176505Y66500
X169855Y54250
X161352Y65750
X171935Y52150
X174602Y62700
X178305Y57850
X177505Y64350
X175855Y62400
X160855Y65350
X160105Y64200
X12900Y21000
X17100Y21000
X15000Y19700
X35407Y21000
X39607Y21000
X37507Y19700
X57916Y21000
X62116Y21000
X60016Y19700
X80423Y21000
X84623Y21000
X82523Y19700
X102933Y21000
X107133Y21000
X105033Y19700
X125440Y21000
X129640Y21000
X127540Y19700
X147949Y21000
X152149Y21000
X150049Y19700
X170456Y21000
X174656Y21000
X172556Y19700
X9099Y48850
X4899Y48850
X6999Y50150
X31608Y48850
X27408Y48850
X29508Y50150
X54115Y48850
X49915Y48850
X52015Y50150
X76625Y48850
X72425Y48850
X74525Y50150
X99132Y48850
X94932Y48850
X97032Y50150
X121641Y48850
X117441Y48850
X119541Y50150
X144148Y48850
X139948Y48850
X142048Y50150
X166655Y48850
X162455Y48850
X164555Y50150
M30