G04 EAGLE Gerber RS-274X export*
G75*
%MOMM*%
%FSLAX34Y34*%
%LPD*%
%INSoldermask Top*%
%IPPOS*%
%AMOC8*
5,1,8,0,0,1.08239X$1,22.5*%
G01*
%ADD10C,0.228959*%
%ADD11C,0.479400*%
%ADD12C,0.230578*%
%ADD13C,0.225369*%
%ADD14C,0.228369*%
%ADD15C,0.231750*%
%ADD16C,0.226609*%
%ADD17C,0.225719*%
%ADD18C,0.428259*%
%ADD19C,0.762000*%
%ADD20C,1.127000*%
%ADD21C,1.270000*%
%ADD22C,1.627000*%

G36*
X514262Y563018D02*
X514262Y563018D01*
X514321Y563030D01*
X514332Y563038D01*
X514339Y563040D01*
X514345Y563048D01*
X514381Y563074D01*
X520881Y569574D01*
X520906Y569620D01*
X520911Y569626D01*
X520912Y569630D01*
X520943Y569677D01*
X520945Y569691D01*
X520948Y569696D01*
X520947Y569707D01*
X520954Y569750D01*
X520954Y605500D01*
X520949Y605516D01*
X520951Y605533D01*
X520930Y605583D01*
X520914Y605634D01*
X520902Y605645D01*
X520895Y605661D01*
X520850Y605691D01*
X520809Y605726D01*
X520792Y605729D01*
X520778Y605738D01*
X520704Y605749D01*
X484704Y605749D01*
X484688Y605744D01*
X484671Y605747D01*
X484622Y605725D01*
X484570Y605710D01*
X484559Y605697D01*
X484543Y605690D01*
X484514Y605645D01*
X484478Y605605D01*
X484476Y605588D01*
X484466Y605574D01*
X484455Y605500D01*
X484455Y563250D01*
X484460Y563234D01*
X484457Y563217D01*
X484479Y563167D01*
X484494Y563116D01*
X484507Y563105D01*
X484514Y563089D01*
X484559Y563059D01*
X484600Y563024D01*
X484617Y563021D01*
X484631Y563012D01*
X484704Y563001D01*
X514204Y563001D01*
X514262Y563018D01*
G37*
G36*
X289167Y563018D02*
X289167Y563018D01*
X289226Y563030D01*
X289238Y563038D01*
X289244Y563040D01*
X289251Y563048D01*
X289286Y563074D01*
X295786Y569574D01*
X295811Y569620D01*
X295816Y569626D01*
X295817Y569630D01*
X295848Y569677D01*
X295850Y569691D01*
X295853Y569696D01*
X295852Y569707D01*
X295859Y569750D01*
X295859Y605500D01*
X295854Y605516D01*
X295857Y605533D01*
X295835Y605583D01*
X295820Y605634D01*
X295807Y605645D01*
X295800Y605661D01*
X295755Y605691D01*
X295714Y605726D01*
X295697Y605729D01*
X295683Y605738D01*
X295610Y605749D01*
X259610Y605749D01*
X259593Y605744D01*
X259576Y605747D01*
X259527Y605725D01*
X259475Y605710D01*
X259464Y605697D01*
X259448Y605690D01*
X259419Y605645D01*
X259383Y605605D01*
X259381Y605588D01*
X259371Y605574D01*
X259360Y605500D01*
X259360Y563250D01*
X259365Y563234D01*
X259363Y563217D01*
X259384Y563167D01*
X259400Y563116D01*
X259412Y563105D01*
X259419Y563089D01*
X259464Y563059D01*
X259505Y563024D01*
X259522Y563021D01*
X259536Y563012D01*
X259610Y563001D01*
X289110Y563001D01*
X289167Y563018D01*
G37*
G36*
X64047Y563018D02*
X64047Y563018D01*
X64106Y563030D01*
X64117Y563038D01*
X64124Y563040D01*
X64130Y563048D01*
X64166Y563074D01*
X70666Y569574D01*
X70691Y569620D01*
X70696Y569626D01*
X70697Y569630D01*
X70728Y569677D01*
X70730Y569691D01*
X70733Y569696D01*
X70732Y569707D01*
X70739Y569750D01*
X70739Y605500D01*
X70734Y605516D01*
X70736Y605533D01*
X70715Y605583D01*
X70699Y605634D01*
X70687Y605645D01*
X70680Y605661D01*
X70635Y605691D01*
X70594Y605726D01*
X70577Y605729D01*
X70563Y605738D01*
X70489Y605749D01*
X34489Y605749D01*
X34473Y605744D01*
X34456Y605747D01*
X34407Y605725D01*
X34355Y605710D01*
X34344Y605697D01*
X34328Y605690D01*
X34299Y605645D01*
X34263Y605605D01*
X34261Y605588D01*
X34251Y605574D01*
X34240Y605500D01*
X34240Y563250D01*
X34245Y563234D01*
X34242Y563217D01*
X34264Y563167D01*
X34279Y563116D01*
X34292Y563105D01*
X34299Y563089D01*
X34344Y563059D01*
X34385Y563024D01*
X34402Y563021D01*
X34416Y563012D01*
X34489Y563001D01*
X63989Y563001D01*
X64047Y563018D01*
G37*
G36*
X635706Y92756D02*
X635706Y92756D01*
X635723Y92753D01*
X635772Y92775D01*
X635824Y92790D01*
X635835Y92803D01*
X635851Y92810D01*
X635880Y92855D01*
X635916Y92895D01*
X635918Y92912D01*
X635928Y92927D01*
X635939Y93000D01*
X635939Y135250D01*
X635934Y135266D01*
X635937Y135283D01*
X635915Y135333D01*
X635900Y135384D01*
X635887Y135395D01*
X635880Y135411D01*
X635835Y135441D01*
X635794Y135476D01*
X635777Y135479D01*
X635763Y135488D01*
X635690Y135499D01*
X606190Y135499D01*
X606132Y135482D01*
X606073Y135470D01*
X606062Y135462D01*
X606055Y135460D01*
X606049Y135452D01*
X606013Y135426D01*
X599513Y128926D01*
X599484Y128874D01*
X599451Y128824D01*
X599449Y128809D01*
X599446Y128804D01*
X599447Y128793D01*
X599440Y128750D01*
X599440Y93000D01*
X599445Y92984D01*
X599443Y92967D01*
X599464Y92917D01*
X599480Y92866D01*
X599492Y92855D01*
X599499Y92839D01*
X599544Y92809D01*
X599585Y92774D01*
X599602Y92771D01*
X599616Y92762D01*
X599690Y92751D01*
X635690Y92751D01*
X635706Y92756D01*
G37*
G36*
X410611Y92756D02*
X410611Y92756D01*
X410628Y92753D01*
X410677Y92775D01*
X410729Y92790D01*
X410740Y92803D01*
X410756Y92810D01*
X410786Y92855D01*
X410821Y92895D01*
X410824Y92912D01*
X410833Y92927D01*
X410844Y93000D01*
X410844Y135250D01*
X410839Y135266D01*
X410842Y135283D01*
X410820Y135333D01*
X410805Y135384D01*
X410792Y135395D01*
X410785Y135411D01*
X410740Y135441D01*
X410700Y135476D01*
X410683Y135479D01*
X410668Y135488D01*
X410595Y135499D01*
X381095Y135499D01*
X381037Y135482D01*
X380978Y135470D01*
X380967Y135462D01*
X380961Y135460D01*
X380954Y135452D01*
X380919Y135426D01*
X374419Y128926D01*
X374390Y128874D01*
X374357Y128824D01*
X374355Y128809D01*
X374351Y128804D01*
X374352Y128793D01*
X374346Y128750D01*
X374346Y93000D01*
X374350Y92984D01*
X374348Y92967D01*
X374370Y92917D01*
X374385Y92866D01*
X374398Y92855D01*
X374405Y92839D01*
X374450Y92809D01*
X374490Y92774D01*
X374507Y92771D01*
X374521Y92762D01*
X374595Y92751D01*
X410595Y92751D01*
X410611Y92756D01*
G37*
G36*
X185516Y92756D02*
X185516Y92756D01*
X185533Y92753D01*
X185583Y92775D01*
X185634Y92790D01*
X185645Y92803D01*
X185661Y92810D01*
X185691Y92855D01*
X185726Y92895D01*
X185729Y92912D01*
X185738Y92927D01*
X185749Y93000D01*
X185749Y135250D01*
X185744Y135266D01*
X185747Y135283D01*
X185725Y135333D01*
X185710Y135384D01*
X185697Y135395D01*
X185690Y135411D01*
X185645Y135441D01*
X185605Y135476D01*
X185588Y135479D01*
X185574Y135488D01*
X185500Y135499D01*
X156000Y135499D01*
X155942Y135482D01*
X155884Y135470D01*
X155872Y135462D01*
X155866Y135460D01*
X155859Y135452D01*
X155824Y135426D01*
X149324Y128926D01*
X149295Y128874D01*
X149262Y128824D01*
X149260Y128809D01*
X149257Y128804D01*
X149257Y128793D01*
X149251Y128750D01*
X149251Y93000D01*
X149256Y92984D01*
X149253Y92967D01*
X149275Y92917D01*
X149290Y92866D01*
X149303Y92855D01*
X149310Y92839D01*
X149355Y92809D01*
X149395Y92774D01*
X149412Y92771D01*
X149427Y92762D01*
X149500Y92751D01*
X185500Y92751D01*
X185516Y92756D01*
G37*
G36*
X277617Y478253D02*
X277617Y478253D01*
X277624Y478251D01*
X277683Y478272D01*
X277744Y478290D01*
X277749Y478295D01*
X277755Y478298D01*
X277794Y478348D01*
X277836Y478395D01*
X277837Y478402D01*
X277841Y478408D01*
X277858Y478480D01*
X278072Y481198D01*
X278704Y483831D01*
X279740Y486331D01*
X281154Y488639D01*
X282912Y490698D01*
X284970Y492456D01*
X287278Y493870D01*
X289779Y494906D01*
X292411Y495538D01*
X295110Y495750D01*
X297808Y495538D01*
X300440Y494906D01*
X302941Y493870D01*
X305249Y492456D01*
X307307Y490698D01*
X309065Y488639D01*
X310479Y486331D01*
X311515Y483831D01*
X312147Y481198D01*
X312361Y478480D01*
X312364Y478474D01*
X312363Y478467D01*
X312388Y478409D01*
X312411Y478350D01*
X312417Y478345D01*
X312419Y478339D01*
X312472Y478304D01*
X312523Y478266D01*
X312530Y478266D01*
X312536Y478262D01*
X312610Y478251D01*
X322610Y478251D01*
X322635Y478258D01*
X322661Y478256D01*
X322700Y478277D01*
X322744Y478290D01*
X322761Y478310D01*
X322784Y478322D01*
X322806Y478361D01*
X322836Y478395D01*
X322840Y478421D01*
X322852Y478444D01*
X322858Y478518D01*
X322578Y482431D01*
X322575Y482441D01*
X322573Y482467D01*
X321739Y486301D01*
X321735Y486309D01*
X321729Y486335D01*
X320358Y490011D01*
X320352Y490019D01*
X320343Y490043D01*
X318463Y493487D01*
X318456Y493494D01*
X318444Y493517D01*
X316092Y496658D01*
X316085Y496664D01*
X316069Y496685D01*
X313295Y499459D01*
X313286Y499464D01*
X313268Y499483D01*
X310127Y501834D01*
X310118Y501837D01*
X310097Y501853D01*
X306653Y503734D01*
X306644Y503736D01*
X306621Y503748D01*
X302944Y505120D01*
X302935Y505120D01*
X302910Y505130D01*
X299076Y505964D01*
X299067Y505963D01*
X299041Y505969D01*
X295127Y506249D01*
X295118Y506247D01*
X295092Y506249D01*
X291178Y505969D01*
X291169Y505965D01*
X291143Y505964D01*
X287309Y505130D01*
X287300Y505125D01*
X287275Y505120D01*
X283599Y503748D01*
X283591Y503743D01*
X283566Y503734D01*
X280123Y501853D01*
X280116Y501846D01*
X280093Y501834D01*
X276952Y499483D01*
X276946Y499475D01*
X276925Y499459D01*
X274150Y496685D01*
X274146Y496676D01*
X274127Y496658D01*
X271776Y493517D01*
X271772Y493508D01*
X271756Y493487D01*
X269876Y490043D01*
X269874Y490034D01*
X269861Y490011D01*
X268490Y486335D01*
X268489Y486325D01*
X268480Y486301D01*
X267646Y482467D01*
X267647Y482457D01*
X267641Y482431D01*
X267361Y478518D01*
X267366Y478492D01*
X267363Y478467D01*
X267381Y478425D01*
X267391Y478381D01*
X267409Y478363D01*
X267419Y478339D01*
X267457Y478314D01*
X267489Y478282D01*
X267514Y478276D01*
X267536Y478262D01*
X267610Y478251D01*
X277610Y478251D01*
X277617Y478253D01*
G37*
G36*
X502711Y478253D02*
X502711Y478253D01*
X502718Y478251D01*
X502778Y478272D01*
X502839Y478290D01*
X502843Y478295D01*
X502850Y478298D01*
X502889Y478348D01*
X502931Y478395D01*
X502932Y478402D01*
X502936Y478408D01*
X502953Y478480D01*
X503167Y481198D01*
X503799Y483831D01*
X504835Y486331D01*
X506249Y488639D01*
X508007Y490698D01*
X510065Y492456D01*
X512373Y493870D01*
X514874Y494906D01*
X517506Y495538D01*
X520204Y495750D01*
X522903Y495538D01*
X525535Y494906D01*
X528036Y493870D01*
X530344Y492456D01*
X532402Y490698D01*
X534160Y488639D01*
X535574Y486331D01*
X536610Y483831D01*
X537242Y481198D01*
X537456Y478480D01*
X537459Y478474D01*
X537457Y478467D01*
X537483Y478409D01*
X537506Y478350D01*
X537511Y478345D01*
X537514Y478339D01*
X537567Y478304D01*
X537618Y478266D01*
X537625Y478266D01*
X537631Y478262D01*
X537704Y478251D01*
X547704Y478251D01*
X547729Y478258D01*
X547755Y478256D01*
X547795Y478277D01*
X547839Y478290D01*
X547856Y478310D01*
X547879Y478322D01*
X547901Y478361D01*
X547931Y478395D01*
X547934Y478421D01*
X547947Y478444D01*
X547953Y478518D01*
X547673Y482431D01*
X547670Y482441D01*
X547668Y482467D01*
X546834Y486301D01*
X546829Y486309D01*
X546824Y486335D01*
X545453Y490011D01*
X545447Y490019D01*
X545438Y490043D01*
X543558Y493487D01*
X543551Y493494D01*
X543538Y493517D01*
X541187Y496658D01*
X541179Y496664D01*
X541164Y496685D01*
X538389Y499459D01*
X538381Y499464D01*
X538362Y499483D01*
X535221Y501834D01*
X535212Y501837D01*
X535191Y501853D01*
X531748Y503734D01*
X531738Y503736D01*
X531715Y503748D01*
X528039Y505120D01*
X528030Y505120D01*
X528005Y505130D01*
X524171Y505964D01*
X524161Y505963D01*
X524136Y505969D01*
X520222Y506249D01*
X520213Y506247D01*
X520187Y506249D01*
X516273Y505969D01*
X516264Y505965D01*
X516238Y505964D01*
X512404Y505130D01*
X512395Y505125D01*
X512370Y505120D01*
X508693Y503748D01*
X508686Y503743D01*
X508661Y503734D01*
X505217Y501853D01*
X505211Y501846D01*
X505187Y501834D01*
X502046Y499483D01*
X502041Y499475D01*
X502020Y499459D01*
X499245Y496685D01*
X499240Y496676D01*
X499222Y496658D01*
X496870Y493517D01*
X496867Y493508D01*
X496851Y493487D01*
X494971Y490043D01*
X494969Y490034D01*
X494956Y490011D01*
X493585Y486335D01*
X493584Y486325D01*
X493575Y486301D01*
X492741Y482467D01*
X492741Y482457D01*
X492736Y482431D01*
X492456Y478518D01*
X492461Y478492D01*
X492457Y478467D01*
X492476Y478425D01*
X492485Y478381D01*
X492504Y478363D01*
X492514Y478339D01*
X492552Y478314D01*
X492584Y478282D01*
X492609Y478276D01*
X492631Y478262D01*
X492704Y478251D01*
X502704Y478251D01*
X502711Y478253D01*
G37*
G36*
X52496Y478253D02*
X52496Y478253D01*
X52503Y478251D01*
X52563Y478272D01*
X52624Y478290D01*
X52628Y478295D01*
X52635Y478298D01*
X52674Y478348D01*
X52716Y478395D01*
X52717Y478402D01*
X52721Y478408D01*
X52738Y478480D01*
X52952Y481198D01*
X53584Y483831D01*
X54620Y486331D01*
X56034Y488639D01*
X57792Y490698D01*
X59850Y492456D01*
X62158Y493870D01*
X64659Y494906D01*
X67291Y495538D01*
X69989Y495750D01*
X72688Y495538D01*
X75320Y494906D01*
X77821Y493870D01*
X80129Y492456D01*
X82187Y490698D01*
X83945Y488639D01*
X85359Y486331D01*
X86395Y483831D01*
X87027Y481198D01*
X87241Y478480D01*
X87244Y478474D01*
X87242Y478467D01*
X87268Y478409D01*
X87291Y478350D01*
X87296Y478345D01*
X87299Y478339D01*
X87352Y478304D01*
X87403Y478266D01*
X87410Y478266D01*
X87416Y478262D01*
X87489Y478251D01*
X97489Y478251D01*
X97514Y478258D01*
X97540Y478256D01*
X97580Y478277D01*
X97624Y478290D01*
X97641Y478310D01*
X97664Y478322D01*
X97686Y478361D01*
X97716Y478395D01*
X97719Y478421D01*
X97732Y478444D01*
X97738Y478518D01*
X97458Y482431D01*
X97455Y482441D01*
X97453Y482467D01*
X96619Y486301D01*
X96614Y486309D01*
X96609Y486335D01*
X95238Y490011D01*
X95232Y490019D01*
X95223Y490043D01*
X93343Y493487D01*
X93336Y493494D01*
X93323Y493517D01*
X90972Y496658D01*
X90964Y496664D01*
X90949Y496685D01*
X88174Y499459D01*
X88166Y499464D01*
X88147Y499483D01*
X85006Y501834D01*
X84997Y501837D01*
X84976Y501853D01*
X81533Y503734D01*
X81523Y503736D01*
X81500Y503748D01*
X77824Y505120D01*
X77815Y505120D01*
X77790Y505130D01*
X73956Y505964D01*
X73946Y505963D01*
X73921Y505969D01*
X70007Y506249D01*
X69998Y506247D01*
X69972Y506249D01*
X66058Y505969D01*
X66049Y505965D01*
X66023Y505964D01*
X62189Y505130D01*
X62180Y505125D01*
X62155Y505120D01*
X58478Y503748D01*
X58471Y503743D01*
X58446Y503734D01*
X55002Y501853D01*
X54996Y501846D01*
X54972Y501834D01*
X51831Y499483D01*
X51826Y499475D01*
X51805Y499459D01*
X49030Y496685D01*
X49025Y496676D01*
X49007Y496658D01*
X46655Y493517D01*
X46652Y493508D01*
X46636Y493487D01*
X44756Y490043D01*
X44754Y490034D01*
X44741Y490011D01*
X43370Y486335D01*
X43369Y486325D01*
X43360Y486301D01*
X42526Y482467D01*
X42526Y482457D01*
X42521Y482431D01*
X42241Y478518D01*
X42246Y478492D01*
X42242Y478467D01*
X42261Y478425D01*
X42270Y478381D01*
X42289Y478363D01*
X42299Y478339D01*
X42337Y478314D01*
X42369Y478282D01*
X42394Y478276D01*
X42416Y478262D01*
X42489Y478251D01*
X52489Y478251D01*
X52496Y478253D01*
G37*
G36*
X604121Y192531D02*
X604121Y192531D01*
X604130Y192535D01*
X604156Y192536D01*
X607990Y193370D01*
X607999Y193375D01*
X608024Y193380D01*
X611701Y194752D01*
X611708Y194757D01*
X611733Y194766D01*
X615177Y196647D01*
X615183Y196654D01*
X615207Y196666D01*
X618348Y199017D01*
X618353Y199025D01*
X618375Y199041D01*
X621149Y201815D01*
X621154Y201824D01*
X621172Y201842D01*
X623524Y204983D01*
X623527Y204992D01*
X623543Y205013D01*
X625423Y208457D01*
X625425Y208466D01*
X625438Y208489D01*
X626809Y212165D01*
X626810Y212175D01*
X626819Y212199D01*
X627653Y216033D01*
X627653Y216043D01*
X627658Y216069D01*
X627938Y219982D01*
X627933Y220008D01*
X627937Y220033D01*
X627918Y220075D01*
X627909Y220119D01*
X627890Y220137D01*
X627880Y220161D01*
X627842Y220186D01*
X627810Y220218D01*
X627785Y220224D01*
X627763Y220238D01*
X627690Y220249D01*
X617690Y220249D01*
X617683Y220247D01*
X617676Y220249D01*
X617616Y220228D01*
X617555Y220210D01*
X617551Y220205D01*
X617544Y220202D01*
X617505Y220152D01*
X617463Y220105D01*
X617462Y220098D01*
X617458Y220092D01*
X617441Y220020D01*
X617227Y217302D01*
X616595Y214669D01*
X615559Y212169D01*
X614145Y209861D01*
X612387Y207802D01*
X610329Y206044D01*
X608021Y204630D01*
X605520Y203594D01*
X602888Y202962D01*
X600190Y202750D01*
X597491Y202962D01*
X594859Y203594D01*
X592358Y204630D01*
X590050Y206044D01*
X587992Y207802D01*
X586234Y209861D01*
X584820Y212169D01*
X583784Y214669D01*
X583152Y217302D01*
X582938Y220020D01*
X582936Y220026D01*
X582937Y220033D01*
X582911Y220091D01*
X582888Y220150D01*
X582883Y220155D01*
X582880Y220161D01*
X582827Y220196D01*
X582776Y220234D01*
X582769Y220234D01*
X582763Y220238D01*
X582690Y220249D01*
X572690Y220249D01*
X572665Y220242D01*
X572639Y220244D01*
X572599Y220223D01*
X572555Y220210D01*
X572538Y220190D01*
X572515Y220178D01*
X572493Y220139D01*
X572463Y220105D01*
X572460Y220079D01*
X572447Y220056D01*
X572441Y219982D01*
X572721Y216069D01*
X572724Y216059D01*
X572726Y216033D01*
X573560Y212199D01*
X573565Y212191D01*
X573570Y212165D01*
X574941Y208489D01*
X574947Y208481D01*
X574956Y208457D01*
X576836Y205013D01*
X576843Y205006D01*
X576856Y204983D01*
X579207Y201842D01*
X579215Y201836D01*
X579230Y201815D01*
X582005Y199041D01*
X582013Y199036D01*
X582032Y199017D01*
X585173Y196666D01*
X585182Y196663D01*
X585203Y196647D01*
X588646Y194766D01*
X588656Y194764D01*
X588679Y194752D01*
X592355Y193380D01*
X592365Y193380D01*
X592389Y193370D01*
X596223Y192536D01*
X596233Y192537D01*
X596258Y192531D01*
X600172Y192251D01*
X600181Y192253D01*
X600207Y192251D01*
X604121Y192531D01*
G37*
G36*
X379026Y192531D02*
X379026Y192531D01*
X379035Y192535D01*
X379061Y192536D01*
X382895Y193370D01*
X382904Y193375D01*
X382930Y193380D01*
X386606Y194752D01*
X386614Y194757D01*
X386638Y194766D01*
X390082Y196647D01*
X390089Y196654D01*
X390112Y196666D01*
X393253Y199017D01*
X393259Y199025D01*
X393280Y199041D01*
X396054Y201815D01*
X396059Y201824D01*
X396077Y201842D01*
X398429Y204983D01*
X398432Y204992D01*
X398448Y205013D01*
X400328Y208457D01*
X400331Y208466D01*
X400343Y208489D01*
X401714Y212165D01*
X401715Y212175D01*
X401724Y212199D01*
X402558Y216033D01*
X402558Y216043D01*
X402564Y216069D01*
X402843Y219982D01*
X402838Y220008D01*
X402842Y220033D01*
X402823Y220075D01*
X402814Y220119D01*
X402796Y220137D01*
X402785Y220161D01*
X402747Y220186D01*
X402715Y220218D01*
X402690Y220224D01*
X402668Y220238D01*
X402595Y220249D01*
X392595Y220249D01*
X392588Y220247D01*
X392581Y220249D01*
X392522Y220228D01*
X392461Y220210D01*
X392456Y220205D01*
X392449Y220202D01*
X392410Y220152D01*
X392369Y220105D01*
X392368Y220098D01*
X392363Y220092D01*
X392346Y220020D01*
X392132Y217302D01*
X391501Y214669D01*
X390465Y212169D01*
X389050Y209861D01*
X387292Y207802D01*
X385234Y206044D01*
X382926Y204630D01*
X380425Y203594D01*
X377793Y202962D01*
X375095Y202750D01*
X372396Y202962D01*
X369764Y203594D01*
X367263Y204630D01*
X364956Y206044D01*
X362897Y207802D01*
X361139Y209861D01*
X359725Y212169D01*
X358689Y214669D01*
X358057Y217302D01*
X357843Y220020D01*
X357841Y220026D01*
X357842Y220033D01*
X357816Y220091D01*
X357794Y220150D01*
X357788Y220155D01*
X357785Y220161D01*
X357732Y220196D01*
X357682Y220234D01*
X357674Y220234D01*
X357668Y220238D01*
X357595Y220249D01*
X347595Y220249D01*
X347570Y220242D01*
X347544Y220244D01*
X347504Y220223D01*
X347461Y220210D01*
X347443Y220190D01*
X347421Y220178D01*
X347398Y220139D01*
X347369Y220105D01*
X347365Y220079D01*
X347352Y220056D01*
X347346Y219982D01*
X347626Y216069D01*
X347629Y216059D01*
X347631Y216033D01*
X348465Y212199D01*
X348470Y212191D01*
X348475Y212165D01*
X349846Y208489D01*
X349852Y208481D01*
X349861Y208457D01*
X351742Y205013D01*
X351748Y205006D01*
X351761Y204983D01*
X354112Y201842D01*
X354120Y201836D01*
X354135Y201815D01*
X356910Y199041D01*
X356918Y199036D01*
X356937Y199017D01*
X360078Y196666D01*
X360087Y196663D01*
X360108Y196647D01*
X363551Y194766D01*
X363561Y194764D01*
X363584Y194752D01*
X367260Y193380D01*
X367270Y193380D01*
X367294Y193370D01*
X371128Y192536D01*
X371138Y192537D01*
X371163Y192531D01*
X375077Y192251D01*
X375087Y192253D01*
X375113Y192251D01*
X379026Y192531D01*
G37*
G36*
X153931Y192531D02*
X153931Y192531D01*
X153941Y192535D01*
X153967Y192536D01*
X157801Y193370D01*
X157809Y193375D01*
X157835Y193380D01*
X161511Y194752D01*
X161519Y194757D01*
X161543Y194766D01*
X164987Y196647D01*
X164994Y196654D01*
X165017Y196666D01*
X168158Y199017D01*
X168164Y199025D01*
X168185Y199041D01*
X170959Y201815D01*
X170964Y201824D01*
X170983Y201842D01*
X173334Y204983D01*
X173337Y204992D01*
X173353Y205013D01*
X175234Y208457D01*
X175236Y208466D01*
X175248Y208489D01*
X176620Y212165D01*
X176620Y212175D01*
X176630Y212199D01*
X177464Y216033D01*
X177463Y216043D01*
X177469Y216069D01*
X177749Y219982D01*
X177743Y220008D01*
X177747Y220033D01*
X177729Y220075D01*
X177719Y220119D01*
X177701Y220137D01*
X177690Y220161D01*
X177652Y220186D01*
X177621Y220218D01*
X177595Y220224D01*
X177574Y220238D01*
X177500Y220249D01*
X167500Y220249D01*
X167493Y220247D01*
X167486Y220249D01*
X167427Y220228D01*
X167366Y220210D01*
X167361Y220205D01*
X167354Y220202D01*
X167316Y220152D01*
X167274Y220105D01*
X167273Y220098D01*
X167268Y220092D01*
X167252Y220020D01*
X167038Y217302D01*
X166406Y214669D01*
X165370Y212169D01*
X163956Y209861D01*
X162198Y207802D01*
X160139Y206044D01*
X157831Y204630D01*
X155331Y203594D01*
X152698Y202962D01*
X150000Y202750D01*
X147302Y202962D01*
X144669Y203594D01*
X142169Y204630D01*
X139861Y206044D01*
X137802Y207802D01*
X136044Y209861D01*
X134630Y212169D01*
X133594Y214669D01*
X132962Y217302D01*
X132748Y220020D01*
X132746Y220026D01*
X132747Y220033D01*
X132721Y220091D01*
X132699Y220150D01*
X132693Y220155D01*
X132690Y220161D01*
X132637Y220196D01*
X132587Y220234D01*
X132580Y220234D01*
X132574Y220238D01*
X132500Y220249D01*
X122500Y220249D01*
X122475Y220242D01*
X122449Y220244D01*
X122409Y220223D01*
X122366Y220210D01*
X122349Y220190D01*
X122326Y220178D01*
X122304Y220139D01*
X122274Y220105D01*
X122270Y220079D01*
X122257Y220056D01*
X122251Y219982D01*
X122531Y216069D01*
X122535Y216059D01*
X122536Y216033D01*
X123370Y212199D01*
X123375Y212191D01*
X123380Y212165D01*
X124752Y208489D01*
X124757Y208481D01*
X124766Y208457D01*
X126647Y205013D01*
X126654Y205006D01*
X126666Y204983D01*
X129017Y201842D01*
X129025Y201836D01*
X129041Y201815D01*
X131815Y199041D01*
X131824Y199036D01*
X131842Y199017D01*
X134983Y196666D01*
X134992Y196663D01*
X135013Y196647D01*
X138457Y194766D01*
X138466Y194764D01*
X138489Y194752D01*
X142165Y193380D01*
X142175Y193380D01*
X142199Y193370D01*
X146033Y192536D01*
X146043Y192537D01*
X146069Y192531D01*
X149982Y192251D01*
X149992Y192253D01*
X150018Y192251D01*
X153931Y192531D01*
G37*
D10*
X201260Y19490D02*
X203740Y19490D01*
X203740Y6010D01*
X201260Y6010D01*
X201260Y19490D01*
X201260Y8185D02*
X203740Y8185D01*
X203740Y10360D02*
X201260Y10360D01*
X201260Y12535D02*
X203740Y12535D01*
X203740Y14710D02*
X201260Y14710D01*
X201260Y16885D02*
X203740Y16885D01*
X203740Y19060D02*
X201260Y19060D01*
X198740Y19490D02*
X196260Y19490D01*
X198740Y19490D02*
X198740Y6010D01*
X196260Y6010D01*
X196260Y19490D01*
X196260Y8185D02*
X198740Y8185D01*
X198740Y10360D02*
X196260Y10360D01*
X196260Y12535D02*
X198740Y12535D01*
X198740Y14710D02*
X196260Y14710D01*
X196260Y16885D02*
X198740Y16885D01*
X198740Y19060D02*
X196260Y19060D01*
X193740Y19490D02*
X191260Y19490D01*
X193740Y19490D02*
X193740Y6010D01*
X191260Y6010D01*
X191260Y19490D01*
X191260Y8185D02*
X193740Y8185D01*
X193740Y10360D02*
X191260Y10360D01*
X191260Y12535D02*
X193740Y12535D01*
X193740Y14710D02*
X191260Y14710D01*
X191260Y16885D02*
X193740Y16885D01*
X193740Y19060D02*
X191260Y19060D01*
X188740Y19490D02*
X186260Y19490D01*
X188740Y19490D02*
X188740Y6010D01*
X186260Y6010D01*
X186260Y19490D01*
X186260Y8185D02*
X188740Y8185D01*
X188740Y10360D02*
X186260Y10360D01*
X186260Y12535D02*
X188740Y12535D01*
X188740Y14710D02*
X186260Y14710D01*
X186260Y16885D02*
X188740Y16885D01*
X188740Y19060D02*
X186260Y19060D01*
X183740Y19490D02*
X181260Y19490D01*
X183740Y19490D02*
X183740Y6010D01*
X181260Y6010D01*
X181260Y19490D01*
X181260Y8185D02*
X183740Y8185D01*
X183740Y10360D02*
X181260Y10360D01*
X181260Y12535D02*
X183740Y12535D01*
X183740Y14710D02*
X181260Y14710D01*
X181260Y16885D02*
X183740Y16885D01*
X183740Y19060D02*
X181260Y19060D01*
X178740Y19490D02*
X176260Y19490D01*
X178740Y19490D02*
X178740Y6010D01*
X176260Y6010D01*
X176260Y19490D01*
X176260Y8185D02*
X178740Y8185D01*
X178740Y10360D02*
X176260Y10360D01*
X176260Y12535D02*
X178740Y12535D01*
X178740Y14710D02*
X176260Y14710D01*
X176260Y16885D02*
X178740Y16885D01*
X178740Y19060D02*
X176260Y19060D01*
X173740Y19490D02*
X171260Y19490D01*
X173740Y19490D02*
X173740Y6010D01*
X171260Y6010D01*
X171260Y19490D01*
X171260Y8185D02*
X173740Y8185D01*
X173740Y10360D02*
X171260Y10360D01*
X171260Y12535D02*
X173740Y12535D01*
X173740Y14710D02*
X171260Y14710D01*
X171260Y16885D02*
X173740Y16885D01*
X173740Y19060D02*
X171260Y19060D01*
X168740Y19490D02*
X166260Y19490D01*
X168740Y19490D02*
X168740Y6010D01*
X166260Y6010D01*
X166260Y19490D01*
X166260Y8185D02*
X168740Y8185D01*
X168740Y10360D02*
X166260Y10360D01*
X166260Y12535D02*
X168740Y12535D01*
X168740Y14710D02*
X166260Y14710D01*
X166260Y16885D02*
X168740Y16885D01*
X168740Y19060D02*
X166260Y19060D01*
X163740Y19490D02*
X161260Y19490D01*
X163740Y19490D02*
X163740Y6010D01*
X161260Y6010D01*
X161260Y19490D01*
X161260Y8185D02*
X163740Y8185D01*
X163740Y10360D02*
X161260Y10360D01*
X161260Y12535D02*
X163740Y12535D01*
X163740Y14710D02*
X161260Y14710D01*
X161260Y16885D02*
X163740Y16885D01*
X163740Y19060D02*
X161260Y19060D01*
X158740Y19490D02*
X156260Y19490D01*
X158740Y19490D02*
X158740Y6010D01*
X156260Y6010D01*
X156260Y19490D01*
X156260Y8185D02*
X158740Y8185D01*
X158740Y10360D02*
X156260Y10360D01*
X156260Y12535D02*
X158740Y12535D01*
X158740Y14710D02*
X156260Y14710D01*
X156260Y16885D02*
X158740Y16885D01*
X158740Y19060D02*
X156260Y19060D01*
X153740Y19490D02*
X151260Y19490D01*
X153740Y19490D02*
X153740Y6010D01*
X151260Y6010D01*
X151260Y19490D01*
X151260Y8185D02*
X153740Y8185D01*
X153740Y10360D02*
X151260Y10360D01*
X151260Y12535D02*
X153740Y12535D01*
X153740Y14710D02*
X151260Y14710D01*
X151260Y16885D02*
X153740Y16885D01*
X153740Y19060D02*
X151260Y19060D01*
X148740Y19490D02*
X146260Y19490D01*
X148740Y19490D02*
X148740Y6010D01*
X146260Y6010D01*
X146260Y19490D01*
X146260Y8185D02*
X148740Y8185D01*
X148740Y10360D02*
X146260Y10360D01*
X146260Y12535D02*
X148740Y12535D01*
X148740Y14710D02*
X146260Y14710D01*
X146260Y16885D02*
X148740Y16885D01*
X148740Y19060D02*
X146260Y19060D01*
X123740Y19490D02*
X121260Y19490D01*
X123740Y19490D02*
X123740Y6010D01*
X121260Y6010D01*
X121260Y19490D01*
X121260Y8185D02*
X123740Y8185D01*
X123740Y10360D02*
X121260Y10360D01*
X121260Y12535D02*
X123740Y12535D01*
X123740Y14710D02*
X121260Y14710D01*
X121260Y16885D02*
X123740Y16885D01*
X123740Y19060D02*
X121260Y19060D01*
X118740Y19490D02*
X116260Y19490D01*
X118740Y19490D02*
X118740Y6010D01*
X116260Y6010D01*
X116260Y19490D01*
X116260Y8185D02*
X118740Y8185D01*
X118740Y10360D02*
X116260Y10360D01*
X116260Y12535D02*
X118740Y12535D01*
X118740Y14710D02*
X116260Y14710D01*
X116260Y16885D02*
X118740Y16885D01*
X118740Y19060D02*
X116260Y19060D01*
X113740Y19490D02*
X111260Y19490D01*
X113740Y19490D02*
X113740Y6010D01*
X111260Y6010D01*
X111260Y19490D01*
X111260Y8185D02*
X113740Y8185D01*
X113740Y10360D02*
X111260Y10360D01*
X111260Y12535D02*
X113740Y12535D01*
X113740Y14710D02*
X111260Y14710D01*
X111260Y16885D02*
X113740Y16885D01*
X113740Y19060D02*
X111260Y19060D01*
X108740Y19490D02*
X106260Y19490D01*
X108740Y19490D02*
X108740Y6010D01*
X106260Y6010D01*
X106260Y19490D01*
X106260Y8185D02*
X108740Y8185D01*
X108740Y10360D02*
X106260Y10360D01*
X106260Y12535D02*
X108740Y12535D01*
X108740Y14710D02*
X106260Y14710D01*
X106260Y16885D02*
X108740Y16885D01*
X108740Y19060D02*
X106260Y19060D01*
X103740Y19490D02*
X101260Y19490D01*
X103740Y19490D02*
X103740Y6010D01*
X101260Y6010D01*
X101260Y19490D01*
X101260Y8185D02*
X103740Y8185D01*
X103740Y10360D02*
X101260Y10360D01*
X101260Y12535D02*
X103740Y12535D01*
X103740Y14710D02*
X101260Y14710D01*
X101260Y16885D02*
X103740Y16885D01*
X103740Y19060D02*
X101260Y19060D01*
X98740Y19490D02*
X96260Y19490D01*
X98740Y19490D02*
X98740Y6010D01*
X96260Y6010D01*
X96260Y19490D01*
X96260Y8185D02*
X98740Y8185D01*
X98740Y10360D02*
X96260Y10360D01*
X96260Y12535D02*
X98740Y12535D01*
X98740Y14710D02*
X96260Y14710D01*
X96260Y16885D02*
X98740Y16885D01*
X98740Y19060D02*
X96260Y19060D01*
X93740Y19490D02*
X91260Y19490D01*
X93740Y19490D02*
X93740Y6010D01*
X91260Y6010D01*
X91260Y19490D01*
X91260Y8185D02*
X93740Y8185D01*
X93740Y10360D02*
X91260Y10360D01*
X91260Y12535D02*
X93740Y12535D01*
X93740Y14710D02*
X91260Y14710D01*
X91260Y16885D02*
X93740Y16885D01*
X93740Y19060D02*
X91260Y19060D01*
X88740Y19490D02*
X86260Y19490D01*
X88740Y19490D02*
X88740Y6010D01*
X86260Y6010D01*
X86260Y19490D01*
X86260Y8185D02*
X88740Y8185D01*
X88740Y10360D02*
X86260Y10360D01*
X86260Y12535D02*
X88740Y12535D01*
X88740Y14710D02*
X86260Y14710D01*
X86260Y16885D02*
X88740Y16885D01*
X88740Y19060D02*
X86260Y19060D01*
X83740Y19490D02*
X81260Y19490D01*
X83740Y19490D02*
X83740Y6010D01*
X81260Y6010D01*
X81260Y19490D01*
X81260Y8185D02*
X83740Y8185D01*
X83740Y10360D02*
X81260Y10360D01*
X81260Y12535D02*
X83740Y12535D01*
X83740Y14710D02*
X81260Y14710D01*
X81260Y16885D02*
X83740Y16885D01*
X83740Y19060D02*
X81260Y19060D01*
X78740Y19490D02*
X76260Y19490D01*
X78740Y19490D02*
X78740Y6010D01*
X76260Y6010D01*
X76260Y19490D01*
X76260Y8185D02*
X78740Y8185D01*
X78740Y10360D02*
X76260Y10360D01*
X76260Y12535D02*
X78740Y12535D01*
X78740Y14710D02*
X76260Y14710D01*
X76260Y16885D02*
X78740Y16885D01*
X78740Y19060D02*
X76260Y19060D01*
X73740Y19490D02*
X71260Y19490D01*
X73740Y19490D02*
X73740Y6010D01*
X71260Y6010D01*
X71260Y19490D01*
X71260Y8185D02*
X73740Y8185D01*
X73740Y10360D02*
X71260Y10360D01*
X71260Y12535D02*
X73740Y12535D01*
X73740Y14710D02*
X71260Y14710D01*
X71260Y16885D02*
X73740Y16885D01*
X73740Y19060D02*
X71260Y19060D01*
X68740Y19490D02*
X66260Y19490D01*
X68740Y19490D02*
X68740Y6010D01*
X66260Y6010D01*
X66260Y19490D01*
X66260Y8185D02*
X68740Y8185D01*
X68740Y10360D02*
X66260Y10360D01*
X66260Y12535D02*
X68740Y12535D01*
X68740Y14710D02*
X66260Y14710D01*
X66260Y16885D02*
X68740Y16885D01*
X68740Y19060D02*
X66260Y19060D01*
X63740Y19490D02*
X61260Y19490D01*
X63740Y19490D02*
X63740Y6010D01*
X61260Y6010D01*
X61260Y19490D01*
X61260Y8185D02*
X63740Y8185D01*
X63740Y10360D02*
X61260Y10360D01*
X61260Y12535D02*
X63740Y12535D01*
X63740Y14710D02*
X61260Y14710D01*
X61260Y16885D02*
X63740Y16885D01*
X63740Y19060D02*
X61260Y19060D01*
X58740Y19490D02*
X56260Y19490D01*
X58740Y19490D02*
X58740Y6010D01*
X56260Y6010D01*
X56260Y19490D01*
X56260Y8185D02*
X58740Y8185D01*
X58740Y10360D02*
X56260Y10360D01*
X56260Y12535D02*
X58740Y12535D01*
X58740Y14710D02*
X56260Y14710D01*
X56260Y16885D02*
X58740Y16885D01*
X58740Y19060D02*
X56260Y19060D01*
X53740Y19490D02*
X51260Y19490D01*
X53740Y19490D02*
X53740Y6010D01*
X51260Y6010D01*
X51260Y19490D01*
X51260Y8185D02*
X53740Y8185D01*
X53740Y10360D02*
X51260Y10360D01*
X51260Y12535D02*
X53740Y12535D01*
X53740Y14710D02*
X51260Y14710D01*
X51260Y16885D02*
X53740Y16885D01*
X53740Y19060D02*
X51260Y19060D01*
X48740Y19490D02*
X46260Y19490D01*
X48740Y19490D02*
X48740Y6010D01*
X46260Y6010D01*
X46260Y19490D01*
X46260Y8185D02*
X48740Y8185D01*
X48740Y10360D02*
X46260Y10360D01*
X46260Y12535D02*
X48740Y12535D01*
X48740Y14710D02*
X46260Y14710D01*
X46260Y16885D02*
X48740Y16885D01*
X48740Y19060D02*
X46260Y19060D01*
X43740Y19490D02*
X41260Y19490D01*
X43740Y19490D02*
X43740Y6010D01*
X41260Y6010D01*
X41260Y19490D01*
X41260Y8185D02*
X43740Y8185D01*
X43740Y10360D02*
X41260Y10360D01*
X41260Y12535D02*
X43740Y12535D01*
X43740Y14710D02*
X41260Y14710D01*
X41260Y16885D02*
X43740Y16885D01*
X43740Y19060D02*
X41260Y19060D01*
X38740Y19490D02*
X36260Y19490D01*
X38740Y19490D02*
X38740Y6010D01*
X36260Y6010D01*
X36260Y19490D01*
X36260Y8185D02*
X38740Y8185D01*
X38740Y10360D02*
X36260Y10360D01*
X36260Y12535D02*
X38740Y12535D01*
X38740Y14710D02*
X36260Y14710D01*
X36260Y16885D02*
X38740Y16885D01*
X38740Y19060D02*
X36260Y19060D01*
X33740Y19490D02*
X31260Y19490D01*
X33740Y19490D02*
X33740Y6010D01*
X31260Y6010D01*
X31260Y19490D01*
X31260Y8185D02*
X33740Y8185D01*
X33740Y10360D02*
X31260Y10360D01*
X31260Y12535D02*
X33740Y12535D01*
X33740Y14710D02*
X31260Y14710D01*
X31260Y16885D02*
X33740Y16885D01*
X33740Y19060D02*
X31260Y19060D01*
X28740Y19490D02*
X26260Y19490D01*
X28740Y19490D02*
X28740Y6010D01*
X26260Y6010D01*
X26260Y19490D01*
X26260Y8185D02*
X28740Y8185D01*
X28740Y10360D02*
X26260Y10360D01*
X26260Y12535D02*
X28740Y12535D01*
X28740Y14710D02*
X26260Y14710D01*
X26260Y16885D02*
X28740Y16885D01*
X28740Y19060D02*
X26260Y19060D01*
X23740Y19490D02*
X21260Y19490D01*
X23740Y19490D02*
X23740Y6010D01*
X21260Y6010D01*
X21260Y19490D01*
X21260Y8185D02*
X23740Y8185D01*
X23740Y10360D02*
X21260Y10360D01*
X21260Y12535D02*
X23740Y12535D01*
X23740Y14710D02*
X21260Y14710D01*
X21260Y16885D02*
X23740Y16885D01*
X23740Y19060D02*
X21260Y19060D01*
X18740Y19490D02*
X16260Y19490D01*
X18740Y19490D02*
X18740Y6010D01*
X16260Y6010D01*
X16260Y19490D01*
X16260Y8185D02*
X18740Y8185D01*
X18740Y10360D02*
X16260Y10360D01*
X16260Y12535D02*
X18740Y12535D01*
X18740Y14710D02*
X16260Y14710D01*
X16260Y16885D02*
X18740Y16885D01*
X18740Y19060D02*
X16260Y19060D01*
D11*
X129000Y210000D03*
X171000Y210000D03*
X150000Y197000D03*
D10*
X84490Y111990D02*
X82010Y111990D01*
X84490Y111990D02*
X84490Y109510D01*
X82010Y109510D01*
X82010Y111990D01*
X82010Y111685D02*
X84490Y111685D01*
X20990Y111990D02*
X18510Y111990D01*
X20990Y111990D02*
X20990Y109510D01*
X18510Y109510D01*
X18510Y111990D01*
X18510Y111685D02*
X20990Y111685D01*
D12*
X20982Y116482D02*
X18518Y116482D01*
X20982Y116482D02*
X20982Y114518D01*
X18518Y114518D01*
X18518Y116482D01*
X77518Y111982D02*
X79482Y111982D01*
X79482Y109518D01*
X77518Y109518D01*
X77518Y111982D01*
X77518Y111709D02*
X79482Y111709D01*
X74982Y111982D02*
X73018Y111982D01*
X74982Y111982D02*
X74982Y109518D01*
X73018Y109518D01*
X73018Y111982D01*
X73018Y111709D02*
X74982Y111709D01*
X70482Y111982D02*
X68518Y111982D01*
X70482Y111982D02*
X70482Y109518D01*
X68518Y109518D01*
X68518Y111982D01*
X68518Y111709D02*
X70482Y111709D01*
X65982Y111982D02*
X64018Y111982D01*
X65982Y111982D02*
X65982Y109518D01*
X64018Y109518D01*
X64018Y111982D01*
X64018Y111709D02*
X65982Y111709D01*
X61482Y111982D02*
X59518Y111982D01*
X61482Y111982D02*
X61482Y109518D01*
X59518Y109518D01*
X59518Y111982D01*
X59518Y111709D02*
X61482Y111709D01*
X56982Y111982D02*
X55018Y111982D01*
X56982Y111982D02*
X56982Y109518D01*
X55018Y109518D01*
X55018Y111982D01*
X55018Y111709D02*
X56982Y111709D01*
X52482Y111982D02*
X50518Y111982D01*
X52482Y111982D02*
X52482Y109518D01*
X50518Y109518D01*
X50518Y111982D01*
X50518Y111709D02*
X52482Y111709D01*
X47982Y111982D02*
X46018Y111982D01*
X47982Y111982D02*
X47982Y109518D01*
X46018Y109518D01*
X46018Y111982D01*
X46018Y111709D02*
X47982Y111709D01*
X43482Y111982D02*
X41518Y111982D01*
X43482Y111982D02*
X43482Y109518D01*
X41518Y109518D01*
X41518Y111982D01*
X41518Y111709D02*
X43482Y111709D01*
X38982Y111982D02*
X37018Y111982D01*
X38982Y111982D02*
X38982Y109518D01*
X37018Y109518D01*
X37018Y111982D01*
X37018Y111709D02*
X38982Y111709D01*
X34482Y111982D02*
X32518Y111982D01*
X34482Y111982D02*
X34482Y109518D01*
X32518Y109518D01*
X32518Y111982D01*
X32518Y111709D02*
X34482Y111709D01*
X29982Y111982D02*
X28018Y111982D01*
X29982Y111982D02*
X29982Y109518D01*
X28018Y109518D01*
X28018Y111982D01*
X28018Y111709D02*
X29982Y111709D01*
X25482Y111982D02*
X23518Y111982D01*
X25482Y111982D02*
X25482Y109518D01*
X23518Y109518D01*
X23518Y111982D01*
X23518Y111709D02*
X25482Y111709D01*
X20982Y119018D02*
X20982Y120982D01*
X20982Y119018D02*
X18518Y119018D01*
X18518Y120982D01*
X20982Y120982D01*
X20982Y123518D02*
X20982Y125482D01*
X20982Y123518D02*
X18518Y123518D01*
X18518Y125482D01*
X20982Y125482D01*
X20982Y128018D02*
X20982Y129982D01*
X20982Y128018D02*
X18518Y128018D01*
X18518Y129982D01*
X20982Y129982D01*
X20982Y132518D02*
X20982Y134482D01*
X20982Y132518D02*
X18518Y132518D01*
X18518Y134482D01*
X20982Y134482D01*
X20982Y137018D02*
X20982Y138982D01*
X20982Y137018D02*
X18518Y137018D01*
X18518Y138982D01*
X20982Y138982D01*
X20982Y141518D02*
X20982Y143482D01*
X20982Y141518D02*
X18518Y141518D01*
X18518Y143482D01*
X20982Y143482D01*
X20982Y146018D02*
X20982Y147982D01*
X20982Y146018D02*
X18518Y146018D01*
X18518Y147982D01*
X20982Y147982D01*
X20982Y150518D02*
X20982Y152482D01*
X20982Y150518D02*
X18518Y150518D01*
X18518Y152482D01*
X20982Y152482D01*
X20982Y155018D02*
X20982Y156982D01*
X20982Y155018D02*
X18518Y155018D01*
X18518Y156982D01*
X20982Y156982D01*
X20982Y159518D02*
X20982Y161482D01*
X20982Y159518D02*
X18518Y159518D01*
X18518Y161482D01*
X20982Y161482D01*
X20982Y164018D02*
X20982Y165982D01*
X20982Y164018D02*
X18518Y164018D01*
X18518Y165982D01*
X20982Y165982D01*
X20982Y168518D02*
X20982Y170482D01*
X20982Y168518D02*
X18518Y168518D01*
X18518Y170482D01*
X20982Y170482D01*
X20982Y173018D02*
X20982Y174982D01*
X20982Y173018D02*
X18518Y173018D01*
X18518Y174982D01*
X20982Y174982D01*
X20982Y177518D02*
X20982Y179482D01*
X20982Y177518D02*
X18518Y177518D01*
X18518Y179482D01*
X20982Y179482D01*
D10*
X20990Y184490D02*
X18510Y184490D01*
X20990Y184490D02*
X20990Y182010D01*
X18510Y182010D01*
X18510Y184490D01*
X18510Y184185D02*
X20990Y184185D01*
D12*
X82018Y116482D02*
X84482Y116482D01*
X84482Y114518D01*
X82018Y114518D01*
X82018Y116482D01*
X84482Y119018D02*
X84482Y120982D01*
X84482Y119018D02*
X82018Y119018D01*
X82018Y120982D01*
X84482Y120982D01*
X84482Y123518D02*
X84482Y125482D01*
X84482Y123518D02*
X82018Y123518D01*
X82018Y125482D01*
X84482Y125482D01*
X84482Y128018D02*
X84482Y129982D01*
X84482Y128018D02*
X82018Y128018D01*
X82018Y129982D01*
X84482Y129982D01*
X84482Y132518D02*
X84482Y134482D01*
X84482Y132518D02*
X82018Y132518D01*
X82018Y134482D01*
X84482Y134482D01*
X84482Y137018D02*
X84482Y138982D01*
X84482Y137018D02*
X82018Y137018D01*
X82018Y138982D01*
X84482Y138982D01*
X84482Y141518D02*
X84482Y143482D01*
X84482Y141518D02*
X82018Y141518D01*
X82018Y143482D01*
X84482Y143482D01*
X84482Y146018D02*
X84482Y147982D01*
X84482Y146018D02*
X82018Y146018D01*
X82018Y147982D01*
X84482Y147982D01*
X84482Y150518D02*
X84482Y152482D01*
X84482Y150518D02*
X82018Y150518D01*
X82018Y152482D01*
X84482Y152482D01*
X84482Y155018D02*
X84482Y156982D01*
X84482Y155018D02*
X82018Y155018D01*
X82018Y156982D01*
X84482Y156982D01*
X84482Y159518D02*
X84482Y161482D01*
X84482Y159518D02*
X82018Y159518D01*
X82018Y161482D01*
X84482Y161482D01*
X84482Y164018D02*
X84482Y165982D01*
X84482Y164018D02*
X82018Y164018D01*
X82018Y165982D01*
X84482Y165982D01*
X84482Y168518D02*
X84482Y170482D01*
X84482Y168518D02*
X82018Y168518D01*
X82018Y170482D01*
X84482Y170482D01*
X84482Y173018D02*
X84482Y174982D01*
X84482Y173018D02*
X82018Y173018D01*
X82018Y174982D01*
X84482Y174982D01*
X84482Y177518D02*
X84482Y179482D01*
X84482Y177518D02*
X82018Y177518D01*
X82018Y179482D01*
X84482Y179482D01*
D10*
X84490Y184490D02*
X82010Y184490D01*
X84490Y184490D02*
X84490Y182010D01*
X82010Y182010D01*
X82010Y184490D01*
X82010Y184185D02*
X84490Y184185D01*
D12*
X79482Y184482D02*
X77518Y184482D01*
X79482Y184482D02*
X79482Y182018D01*
X77518Y182018D01*
X77518Y184482D01*
X77518Y184209D02*
X79482Y184209D01*
X74982Y184482D02*
X73018Y184482D01*
X74982Y184482D02*
X74982Y182018D01*
X73018Y182018D01*
X73018Y184482D01*
X73018Y184209D02*
X74982Y184209D01*
X70482Y184482D02*
X68518Y184482D01*
X70482Y184482D02*
X70482Y182018D01*
X68518Y182018D01*
X68518Y184482D01*
X68518Y184209D02*
X70482Y184209D01*
X65982Y184482D02*
X64018Y184482D01*
X65982Y184482D02*
X65982Y182018D01*
X64018Y182018D01*
X64018Y184482D01*
X64018Y184209D02*
X65982Y184209D01*
X61482Y184482D02*
X59518Y184482D01*
X61482Y184482D02*
X61482Y182018D01*
X59518Y182018D01*
X59518Y184482D01*
X59518Y184209D02*
X61482Y184209D01*
X56982Y184482D02*
X55018Y184482D01*
X56982Y184482D02*
X56982Y182018D01*
X55018Y182018D01*
X55018Y184482D01*
X55018Y184209D02*
X56982Y184209D01*
X52482Y184482D02*
X50518Y184482D01*
X52482Y184482D02*
X52482Y182018D01*
X50518Y182018D01*
X50518Y184482D01*
X50518Y184209D02*
X52482Y184209D01*
X47982Y184482D02*
X46018Y184482D01*
X47982Y184482D02*
X47982Y182018D01*
X46018Y182018D01*
X46018Y184482D01*
X46018Y184209D02*
X47982Y184209D01*
X43482Y184482D02*
X41518Y184482D01*
X43482Y184482D02*
X43482Y182018D01*
X41518Y182018D01*
X41518Y184482D01*
X41518Y184209D02*
X43482Y184209D01*
X38982Y184482D02*
X37018Y184482D01*
X38982Y184482D02*
X38982Y182018D01*
X37018Y182018D01*
X37018Y184482D01*
X37018Y184209D02*
X38982Y184209D01*
X34482Y184482D02*
X32518Y184482D01*
X34482Y184482D02*
X34482Y182018D01*
X32518Y182018D01*
X32518Y184482D01*
X32518Y184209D02*
X34482Y184209D01*
X29982Y184482D02*
X28018Y184482D01*
X29982Y184482D02*
X29982Y182018D01*
X28018Y182018D01*
X28018Y184482D01*
X28018Y184209D02*
X29982Y184209D01*
X25482Y184482D02*
X23518Y184482D01*
X25482Y184482D02*
X25482Y182018D01*
X23518Y182018D01*
X23518Y184482D01*
X23518Y184209D02*
X25482Y184209D01*
D13*
X35492Y172008D02*
X40508Y172008D01*
X40508Y166992D01*
X35492Y166992D01*
X35492Y172008D01*
X35492Y169133D02*
X40508Y169133D01*
X40508Y171274D02*
X35492Y171274D01*
X35492Y163008D02*
X40508Y163008D01*
X40508Y157992D01*
X35492Y157992D01*
X35492Y163008D01*
X35492Y160133D02*
X40508Y160133D01*
X40508Y162274D02*
X35492Y162274D01*
X35492Y154008D02*
X40508Y154008D01*
X40508Y148992D01*
X35492Y148992D01*
X35492Y154008D01*
X35492Y151133D02*
X40508Y151133D01*
X40508Y153274D02*
X35492Y153274D01*
X35492Y145008D02*
X40508Y145008D01*
X40508Y139992D01*
X35492Y139992D01*
X35492Y145008D01*
X35492Y142133D02*
X40508Y142133D01*
X40508Y144274D02*
X35492Y144274D01*
X35492Y136008D02*
X40508Y136008D01*
X40508Y130992D01*
X35492Y130992D01*
X35492Y136008D01*
X35492Y133133D02*
X40508Y133133D01*
X40508Y135274D02*
X35492Y135274D01*
X35492Y127008D02*
X40508Y127008D01*
X40508Y121992D01*
X35492Y121992D01*
X35492Y127008D01*
X35492Y124133D02*
X40508Y124133D01*
X40508Y126274D02*
X35492Y126274D01*
X44492Y127008D02*
X49508Y127008D01*
X49508Y121992D01*
X44492Y121992D01*
X44492Y127008D01*
X44492Y124133D02*
X49508Y124133D01*
X49508Y126274D02*
X44492Y126274D01*
X53492Y127008D02*
X58508Y127008D01*
X58508Y121992D01*
X53492Y121992D01*
X53492Y127008D01*
X53492Y124133D02*
X58508Y124133D01*
X58508Y126274D02*
X53492Y126274D01*
X62492Y127008D02*
X67508Y127008D01*
X67508Y121992D01*
X62492Y121992D01*
X62492Y127008D01*
X62492Y124133D02*
X67508Y124133D01*
X67508Y126274D02*
X62492Y126274D01*
X62492Y130992D02*
X67508Y130992D01*
X62492Y130992D02*
X62492Y136008D01*
X67508Y136008D01*
X67508Y130992D01*
X67508Y133133D02*
X62492Y133133D01*
X62492Y135274D02*
X67508Y135274D01*
X67508Y139992D02*
X62492Y139992D01*
X62492Y145008D01*
X67508Y145008D01*
X67508Y139992D01*
X67508Y142133D02*
X62492Y142133D01*
X62492Y144274D02*
X67508Y144274D01*
X67508Y148992D02*
X62492Y148992D01*
X62492Y154008D01*
X67508Y154008D01*
X67508Y148992D01*
X67508Y151133D02*
X62492Y151133D01*
X62492Y153274D02*
X67508Y153274D01*
X67508Y157992D02*
X62492Y157992D01*
X62492Y163008D01*
X67508Y163008D01*
X67508Y157992D01*
X67508Y160133D02*
X62492Y160133D01*
X62492Y162274D02*
X67508Y162274D01*
X67508Y166992D02*
X62492Y166992D01*
X62492Y172008D01*
X67508Y172008D01*
X67508Y166992D01*
X67508Y169133D02*
X62492Y169133D01*
X62492Y171274D02*
X67508Y171274D01*
X58508Y130992D02*
X53492Y130992D01*
X53492Y136008D01*
X58508Y136008D01*
X58508Y130992D01*
X58508Y133133D02*
X53492Y133133D01*
X53492Y135274D02*
X58508Y135274D01*
X58508Y139992D02*
X53492Y139992D01*
X53492Y145008D01*
X58508Y145008D01*
X58508Y139992D01*
X58508Y142133D02*
X53492Y142133D01*
X53492Y144274D02*
X58508Y144274D01*
X58508Y148992D02*
X53492Y148992D01*
X53492Y154008D01*
X58508Y154008D01*
X58508Y148992D01*
X58508Y151133D02*
X53492Y151133D01*
X53492Y153274D02*
X58508Y153274D01*
X58508Y157992D02*
X53492Y157992D01*
X53492Y163008D01*
X58508Y163008D01*
X58508Y157992D01*
X58508Y160133D02*
X53492Y160133D01*
X53492Y162274D02*
X58508Y162274D01*
X58508Y166992D02*
X53492Y166992D01*
X53492Y172008D01*
X58508Y172008D01*
X58508Y166992D01*
X58508Y169133D02*
X53492Y169133D01*
X53492Y171274D02*
X58508Y171274D01*
X49508Y130992D02*
X44492Y130992D01*
X44492Y136008D01*
X49508Y136008D01*
X49508Y130992D01*
X49508Y133133D02*
X44492Y133133D01*
X44492Y135274D02*
X49508Y135274D01*
X49508Y139992D02*
X44492Y139992D01*
X44492Y145008D01*
X49508Y145008D01*
X49508Y139992D01*
X49508Y142133D02*
X44492Y142133D01*
X44492Y144274D02*
X49508Y144274D01*
X49508Y148992D02*
X44492Y148992D01*
X44492Y154008D01*
X49508Y154008D01*
X49508Y148992D01*
X49508Y151133D02*
X44492Y151133D01*
X44492Y153274D02*
X49508Y153274D01*
X49508Y157992D02*
X44492Y157992D01*
X44492Y163008D01*
X49508Y163008D01*
X49508Y157992D01*
X49508Y160133D02*
X44492Y160133D01*
X44492Y162274D02*
X49508Y162274D01*
X49508Y166992D02*
X44492Y166992D01*
X44492Y172008D01*
X49508Y172008D01*
X49508Y166992D01*
X49508Y169133D02*
X44492Y169133D01*
X44492Y171274D02*
X49508Y171274D01*
D14*
X80357Y214493D02*
X83643Y214493D01*
X83643Y211207D01*
X80357Y211207D01*
X80357Y214493D01*
X80357Y213377D02*
X83643Y213377D01*
X22643Y214493D02*
X19357Y214493D01*
X22643Y214493D02*
X22643Y211207D01*
X19357Y211207D01*
X19357Y214493D01*
X19357Y213377D02*
X22643Y213377D01*
D13*
X13008Y74492D02*
X7992Y74492D01*
X7992Y79508D01*
X13008Y79508D01*
X13008Y74492D01*
X13008Y76633D02*
X7992Y76633D01*
X7992Y78774D02*
X13008Y78774D01*
X17992Y74492D02*
X23008Y74492D01*
X17992Y74492D02*
X17992Y79508D01*
X23008Y79508D01*
X23008Y74492D01*
X23008Y76633D02*
X17992Y76633D01*
X17992Y78774D02*
X23008Y78774D01*
D15*
X84524Y87524D02*
X84524Y94476D01*
X92476Y94476D01*
X92476Y87524D01*
X84524Y87524D01*
X84524Y89726D02*
X92476Y89726D01*
X92476Y91928D02*
X84524Y91928D01*
X84524Y94130D02*
X92476Y94130D01*
X84524Y75476D02*
X84524Y68524D01*
X84524Y75476D02*
X92476Y75476D01*
X92476Y68524D01*
X84524Y68524D01*
X84524Y70726D02*
X92476Y70726D01*
X92476Y72928D02*
X84524Y72928D01*
X84524Y75130D02*
X92476Y75130D01*
X105524Y78024D02*
X105524Y84976D01*
X113476Y84976D01*
X113476Y78024D01*
X105524Y78024D01*
X105524Y80226D02*
X113476Y80226D01*
X113476Y82428D02*
X105524Y82428D01*
X105524Y84630D02*
X113476Y84630D01*
D13*
X124508Y69508D02*
X124508Y64492D01*
X119492Y64492D01*
X119492Y69508D01*
X124508Y69508D01*
X124508Y66633D02*
X119492Y66633D01*
X119492Y68774D02*
X124508Y68774D01*
X124508Y74492D02*
X124508Y79508D01*
X124508Y74492D02*
X119492Y74492D01*
X119492Y79508D01*
X124508Y79508D01*
X124508Y76633D02*
X119492Y76633D01*
X119492Y78774D02*
X124508Y78774D01*
X73992Y79492D02*
X73992Y84508D01*
X79008Y84508D01*
X79008Y79492D01*
X73992Y79492D01*
X73992Y81633D02*
X79008Y81633D01*
X79008Y83774D02*
X73992Y83774D01*
X73992Y74508D02*
X73992Y69492D01*
X73992Y74508D02*
X79008Y74508D01*
X79008Y69492D01*
X73992Y69492D01*
X73992Y71633D02*
X79008Y71633D01*
X79008Y73774D02*
X73992Y73774D01*
D16*
X30502Y63498D02*
X27498Y63498D01*
X27498Y66502D01*
X30502Y66502D01*
X30502Y63498D01*
X30502Y65651D02*
X27498Y65651D01*
X16502Y63498D02*
X13498Y63498D01*
X13498Y66502D01*
X16502Y66502D01*
X16502Y63498D01*
X16502Y65651D02*
X13498Y65651D01*
D17*
X143507Y131043D02*
X143507Y135057D01*
X143507Y131043D02*
X135993Y131043D01*
X135993Y135057D01*
X143507Y135057D01*
X143507Y133187D02*
X135993Y133187D01*
X143507Y122357D02*
X143507Y118343D01*
X135993Y118343D01*
X135993Y122357D01*
X143507Y122357D01*
X143507Y120487D02*
X135993Y120487D01*
X143507Y109657D02*
X143507Y105643D01*
X135993Y105643D01*
X135993Y109657D01*
X143507Y109657D01*
X143507Y107787D02*
X135993Y107787D01*
X143507Y96957D02*
X143507Y92943D01*
X135993Y92943D01*
X135993Y96957D01*
X143507Y96957D01*
X143507Y95087D02*
X135993Y95087D01*
X199007Y105643D02*
X199007Y109657D01*
X199007Y105643D02*
X191493Y105643D01*
X191493Y109657D01*
X199007Y109657D01*
X199007Y107787D02*
X191493Y107787D01*
X199007Y96957D02*
X199007Y92943D01*
X191493Y92943D01*
X191493Y96957D01*
X199007Y96957D01*
X199007Y95087D02*
X191493Y95087D01*
X199007Y118343D02*
X199007Y122357D01*
X199007Y118343D02*
X191493Y118343D01*
X191493Y122357D01*
X199007Y122357D01*
X199007Y120487D02*
X191493Y120487D01*
X199007Y131043D02*
X199007Y135057D01*
X199007Y131043D02*
X191493Y131043D01*
X191493Y135057D01*
X199007Y135057D01*
X199007Y133187D02*
X191493Y133187D01*
D18*
X192724Y191506D02*
X192724Y198494D01*
X192724Y191506D02*
X185736Y191506D01*
X185736Y198494D01*
X192724Y198494D01*
X192724Y195575D02*
X185736Y195575D01*
X210264Y198494D02*
X210264Y191506D01*
X203276Y191506D01*
X203276Y198494D01*
X210264Y198494D01*
X210264Y195575D02*
X203276Y195575D01*
D13*
X202492Y177008D02*
X207508Y177008D01*
X207508Y171992D01*
X202492Y171992D01*
X202492Y177008D01*
X202492Y174133D02*
X207508Y174133D01*
X207508Y176274D02*
X202492Y176274D01*
X197508Y177008D02*
X192492Y177008D01*
X197508Y177008D02*
X197508Y171992D01*
X192492Y171992D01*
X192492Y177008D01*
X192492Y174133D02*
X197508Y174133D01*
X197508Y176274D02*
X192492Y176274D01*
X192992Y151508D02*
X198008Y151508D01*
X198008Y146492D01*
X192992Y146492D01*
X192992Y151508D01*
X192992Y148633D02*
X198008Y148633D01*
X198008Y150774D02*
X192992Y150774D01*
X188008Y151508D02*
X182992Y151508D01*
X188008Y151508D02*
X188008Y146492D01*
X182992Y146492D01*
X182992Y151508D01*
X182992Y148633D02*
X188008Y148633D01*
X188008Y150774D02*
X182992Y150774D01*
D19*
X7000Y47000D03*
X212000Y212000D03*
D10*
X426355Y19490D02*
X428835Y19490D01*
X428835Y6010D01*
X426355Y6010D01*
X426355Y19490D01*
X426355Y8185D02*
X428835Y8185D01*
X428835Y10360D02*
X426355Y10360D01*
X426355Y12535D02*
X428835Y12535D01*
X428835Y14710D02*
X426355Y14710D01*
X426355Y16885D02*
X428835Y16885D01*
X428835Y19060D02*
X426355Y19060D01*
X423835Y19490D02*
X421355Y19490D01*
X423835Y19490D02*
X423835Y6010D01*
X421355Y6010D01*
X421355Y19490D01*
X421355Y8185D02*
X423835Y8185D01*
X423835Y10360D02*
X421355Y10360D01*
X421355Y12535D02*
X423835Y12535D01*
X423835Y14710D02*
X421355Y14710D01*
X421355Y16885D02*
X423835Y16885D01*
X423835Y19060D02*
X421355Y19060D01*
X418835Y19490D02*
X416355Y19490D01*
X418835Y19490D02*
X418835Y6010D01*
X416355Y6010D01*
X416355Y19490D01*
X416355Y8185D02*
X418835Y8185D01*
X418835Y10360D02*
X416355Y10360D01*
X416355Y12535D02*
X418835Y12535D01*
X418835Y14710D02*
X416355Y14710D01*
X416355Y16885D02*
X418835Y16885D01*
X418835Y19060D02*
X416355Y19060D01*
X413835Y19490D02*
X411355Y19490D01*
X413835Y19490D02*
X413835Y6010D01*
X411355Y6010D01*
X411355Y19490D01*
X411355Y8185D02*
X413835Y8185D01*
X413835Y10360D02*
X411355Y10360D01*
X411355Y12535D02*
X413835Y12535D01*
X413835Y14710D02*
X411355Y14710D01*
X411355Y16885D02*
X413835Y16885D01*
X413835Y19060D02*
X411355Y19060D01*
X408835Y19490D02*
X406355Y19490D01*
X408835Y19490D02*
X408835Y6010D01*
X406355Y6010D01*
X406355Y19490D01*
X406355Y8185D02*
X408835Y8185D01*
X408835Y10360D02*
X406355Y10360D01*
X406355Y12535D02*
X408835Y12535D01*
X408835Y14710D02*
X406355Y14710D01*
X406355Y16885D02*
X408835Y16885D01*
X408835Y19060D02*
X406355Y19060D01*
X403835Y19490D02*
X401355Y19490D01*
X403835Y19490D02*
X403835Y6010D01*
X401355Y6010D01*
X401355Y19490D01*
X401355Y8185D02*
X403835Y8185D01*
X403835Y10360D02*
X401355Y10360D01*
X401355Y12535D02*
X403835Y12535D01*
X403835Y14710D02*
X401355Y14710D01*
X401355Y16885D02*
X403835Y16885D01*
X403835Y19060D02*
X401355Y19060D01*
X398835Y19490D02*
X396355Y19490D01*
X398835Y19490D02*
X398835Y6010D01*
X396355Y6010D01*
X396355Y19490D01*
X396355Y8185D02*
X398835Y8185D01*
X398835Y10360D02*
X396355Y10360D01*
X396355Y12535D02*
X398835Y12535D01*
X398835Y14710D02*
X396355Y14710D01*
X396355Y16885D02*
X398835Y16885D01*
X398835Y19060D02*
X396355Y19060D01*
X393835Y19490D02*
X391355Y19490D01*
X393835Y19490D02*
X393835Y6010D01*
X391355Y6010D01*
X391355Y19490D01*
X391355Y8185D02*
X393835Y8185D01*
X393835Y10360D02*
X391355Y10360D01*
X391355Y12535D02*
X393835Y12535D01*
X393835Y14710D02*
X391355Y14710D01*
X391355Y16885D02*
X393835Y16885D01*
X393835Y19060D02*
X391355Y19060D01*
X388835Y19490D02*
X386355Y19490D01*
X388835Y19490D02*
X388835Y6010D01*
X386355Y6010D01*
X386355Y19490D01*
X386355Y8185D02*
X388835Y8185D01*
X388835Y10360D02*
X386355Y10360D01*
X386355Y12535D02*
X388835Y12535D01*
X388835Y14710D02*
X386355Y14710D01*
X386355Y16885D02*
X388835Y16885D01*
X388835Y19060D02*
X386355Y19060D01*
X383835Y19490D02*
X381355Y19490D01*
X383835Y19490D02*
X383835Y6010D01*
X381355Y6010D01*
X381355Y19490D01*
X381355Y8185D02*
X383835Y8185D01*
X383835Y10360D02*
X381355Y10360D01*
X381355Y12535D02*
X383835Y12535D01*
X383835Y14710D02*
X381355Y14710D01*
X381355Y16885D02*
X383835Y16885D01*
X383835Y19060D02*
X381355Y19060D01*
X378835Y19490D02*
X376355Y19490D01*
X378835Y19490D02*
X378835Y6010D01*
X376355Y6010D01*
X376355Y19490D01*
X376355Y8185D02*
X378835Y8185D01*
X378835Y10360D02*
X376355Y10360D01*
X376355Y12535D02*
X378835Y12535D01*
X378835Y14710D02*
X376355Y14710D01*
X376355Y16885D02*
X378835Y16885D01*
X378835Y19060D02*
X376355Y19060D01*
X373835Y19490D02*
X371355Y19490D01*
X373835Y19490D02*
X373835Y6010D01*
X371355Y6010D01*
X371355Y19490D01*
X371355Y8185D02*
X373835Y8185D01*
X373835Y10360D02*
X371355Y10360D01*
X371355Y12535D02*
X373835Y12535D01*
X373835Y14710D02*
X371355Y14710D01*
X371355Y16885D02*
X373835Y16885D01*
X373835Y19060D02*
X371355Y19060D01*
X348835Y19490D02*
X346355Y19490D01*
X348835Y19490D02*
X348835Y6010D01*
X346355Y6010D01*
X346355Y19490D01*
X346355Y8185D02*
X348835Y8185D01*
X348835Y10360D02*
X346355Y10360D01*
X346355Y12535D02*
X348835Y12535D01*
X348835Y14710D02*
X346355Y14710D01*
X346355Y16885D02*
X348835Y16885D01*
X348835Y19060D02*
X346355Y19060D01*
X343835Y19490D02*
X341355Y19490D01*
X343835Y19490D02*
X343835Y6010D01*
X341355Y6010D01*
X341355Y19490D01*
X341355Y8185D02*
X343835Y8185D01*
X343835Y10360D02*
X341355Y10360D01*
X341355Y12535D02*
X343835Y12535D01*
X343835Y14710D02*
X341355Y14710D01*
X341355Y16885D02*
X343835Y16885D01*
X343835Y19060D02*
X341355Y19060D01*
X338835Y19490D02*
X336355Y19490D01*
X338835Y19490D02*
X338835Y6010D01*
X336355Y6010D01*
X336355Y19490D01*
X336355Y8185D02*
X338835Y8185D01*
X338835Y10360D02*
X336355Y10360D01*
X336355Y12535D02*
X338835Y12535D01*
X338835Y14710D02*
X336355Y14710D01*
X336355Y16885D02*
X338835Y16885D01*
X338835Y19060D02*
X336355Y19060D01*
X333835Y19490D02*
X331355Y19490D01*
X333835Y19490D02*
X333835Y6010D01*
X331355Y6010D01*
X331355Y19490D01*
X331355Y8185D02*
X333835Y8185D01*
X333835Y10360D02*
X331355Y10360D01*
X331355Y12535D02*
X333835Y12535D01*
X333835Y14710D02*
X331355Y14710D01*
X331355Y16885D02*
X333835Y16885D01*
X333835Y19060D02*
X331355Y19060D01*
X328835Y19490D02*
X326355Y19490D01*
X328835Y19490D02*
X328835Y6010D01*
X326355Y6010D01*
X326355Y19490D01*
X326355Y8185D02*
X328835Y8185D01*
X328835Y10360D02*
X326355Y10360D01*
X326355Y12535D02*
X328835Y12535D01*
X328835Y14710D02*
X326355Y14710D01*
X326355Y16885D02*
X328835Y16885D01*
X328835Y19060D02*
X326355Y19060D01*
X323835Y19490D02*
X321355Y19490D01*
X323835Y19490D02*
X323835Y6010D01*
X321355Y6010D01*
X321355Y19490D01*
X321355Y8185D02*
X323835Y8185D01*
X323835Y10360D02*
X321355Y10360D01*
X321355Y12535D02*
X323835Y12535D01*
X323835Y14710D02*
X321355Y14710D01*
X321355Y16885D02*
X323835Y16885D01*
X323835Y19060D02*
X321355Y19060D01*
X318835Y19490D02*
X316355Y19490D01*
X318835Y19490D02*
X318835Y6010D01*
X316355Y6010D01*
X316355Y19490D01*
X316355Y8185D02*
X318835Y8185D01*
X318835Y10360D02*
X316355Y10360D01*
X316355Y12535D02*
X318835Y12535D01*
X318835Y14710D02*
X316355Y14710D01*
X316355Y16885D02*
X318835Y16885D01*
X318835Y19060D02*
X316355Y19060D01*
X313835Y19490D02*
X311355Y19490D01*
X313835Y19490D02*
X313835Y6010D01*
X311355Y6010D01*
X311355Y19490D01*
X311355Y8185D02*
X313835Y8185D01*
X313835Y10360D02*
X311355Y10360D01*
X311355Y12535D02*
X313835Y12535D01*
X313835Y14710D02*
X311355Y14710D01*
X311355Y16885D02*
X313835Y16885D01*
X313835Y19060D02*
X311355Y19060D01*
X308835Y19490D02*
X306355Y19490D01*
X308835Y19490D02*
X308835Y6010D01*
X306355Y6010D01*
X306355Y19490D01*
X306355Y8185D02*
X308835Y8185D01*
X308835Y10360D02*
X306355Y10360D01*
X306355Y12535D02*
X308835Y12535D01*
X308835Y14710D02*
X306355Y14710D01*
X306355Y16885D02*
X308835Y16885D01*
X308835Y19060D02*
X306355Y19060D01*
X303835Y19490D02*
X301355Y19490D01*
X303835Y19490D02*
X303835Y6010D01*
X301355Y6010D01*
X301355Y19490D01*
X301355Y8185D02*
X303835Y8185D01*
X303835Y10360D02*
X301355Y10360D01*
X301355Y12535D02*
X303835Y12535D01*
X303835Y14710D02*
X301355Y14710D01*
X301355Y16885D02*
X303835Y16885D01*
X303835Y19060D02*
X301355Y19060D01*
X298835Y19490D02*
X296355Y19490D01*
X298835Y19490D02*
X298835Y6010D01*
X296355Y6010D01*
X296355Y19490D01*
X296355Y8185D02*
X298835Y8185D01*
X298835Y10360D02*
X296355Y10360D01*
X296355Y12535D02*
X298835Y12535D01*
X298835Y14710D02*
X296355Y14710D01*
X296355Y16885D02*
X298835Y16885D01*
X298835Y19060D02*
X296355Y19060D01*
X293835Y19490D02*
X291355Y19490D01*
X293835Y19490D02*
X293835Y6010D01*
X291355Y6010D01*
X291355Y19490D01*
X291355Y8185D02*
X293835Y8185D01*
X293835Y10360D02*
X291355Y10360D01*
X291355Y12535D02*
X293835Y12535D01*
X293835Y14710D02*
X291355Y14710D01*
X291355Y16885D02*
X293835Y16885D01*
X293835Y19060D02*
X291355Y19060D01*
X288835Y19490D02*
X286355Y19490D01*
X288835Y19490D02*
X288835Y6010D01*
X286355Y6010D01*
X286355Y19490D01*
X286355Y8185D02*
X288835Y8185D01*
X288835Y10360D02*
X286355Y10360D01*
X286355Y12535D02*
X288835Y12535D01*
X288835Y14710D02*
X286355Y14710D01*
X286355Y16885D02*
X288835Y16885D01*
X288835Y19060D02*
X286355Y19060D01*
X283835Y19490D02*
X281355Y19490D01*
X283835Y19490D02*
X283835Y6010D01*
X281355Y6010D01*
X281355Y19490D01*
X281355Y8185D02*
X283835Y8185D01*
X283835Y10360D02*
X281355Y10360D01*
X281355Y12535D02*
X283835Y12535D01*
X283835Y14710D02*
X281355Y14710D01*
X281355Y16885D02*
X283835Y16885D01*
X283835Y19060D02*
X281355Y19060D01*
X278835Y19490D02*
X276355Y19490D01*
X278835Y19490D02*
X278835Y6010D01*
X276355Y6010D01*
X276355Y19490D01*
X276355Y8185D02*
X278835Y8185D01*
X278835Y10360D02*
X276355Y10360D01*
X276355Y12535D02*
X278835Y12535D01*
X278835Y14710D02*
X276355Y14710D01*
X276355Y16885D02*
X278835Y16885D01*
X278835Y19060D02*
X276355Y19060D01*
X273835Y19490D02*
X271355Y19490D01*
X273835Y19490D02*
X273835Y6010D01*
X271355Y6010D01*
X271355Y19490D01*
X271355Y8185D02*
X273835Y8185D01*
X273835Y10360D02*
X271355Y10360D01*
X271355Y12535D02*
X273835Y12535D01*
X273835Y14710D02*
X271355Y14710D01*
X271355Y16885D02*
X273835Y16885D01*
X273835Y19060D02*
X271355Y19060D01*
X268835Y19490D02*
X266355Y19490D01*
X268835Y19490D02*
X268835Y6010D01*
X266355Y6010D01*
X266355Y19490D01*
X266355Y8185D02*
X268835Y8185D01*
X268835Y10360D02*
X266355Y10360D01*
X266355Y12535D02*
X268835Y12535D01*
X268835Y14710D02*
X266355Y14710D01*
X266355Y16885D02*
X268835Y16885D01*
X268835Y19060D02*
X266355Y19060D01*
X263835Y19490D02*
X261355Y19490D01*
X263835Y19490D02*
X263835Y6010D01*
X261355Y6010D01*
X261355Y19490D01*
X261355Y8185D02*
X263835Y8185D01*
X263835Y10360D02*
X261355Y10360D01*
X261355Y12535D02*
X263835Y12535D01*
X263835Y14710D02*
X261355Y14710D01*
X261355Y16885D02*
X263835Y16885D01*
X263835Y19060D02*
X261355Y19060D01*
X258835Y19490D02*
X256355Y19490D01*
X258835Y19490D02*
X258835Y6010D01*
X256355Y6010D01*
X256355Y19490D01*
X256355Y8185D02*
X258835Y8185D01*
X258835Y10360D02*
X256355Y10360D01*
X256355Y12535D02*
X258835Y12535D01*
X258835Y14710D02*
X256355Y14710D01*
X256355Y16885D02*
X258835Y16885D01*
X258835Y19060D02*
X256355Y19060D01*
X253835Y19490D02*
X251355Y19490D01*
X253835Y19490D02*
X253835Y6010D01*
X251355Y6010D01*
X251355Y19490D01*
X251355Y8185D02*
X253835Y8185D01*
X253835Y10360D02*
X251355Y10360D01*
X251355Y12535D02*
X253835Y12535D01*
X253835Y14710D02*
X251355Y14710D01*
X251355Y16885D02*
X253835Y16885D01*
X253835Y19060D02*
X251355Y19060D01*
X248835Y19490D02*
X246355Y19490D01*
X248835Y19490D02*
X248835Y6010D01*
X246355Y6010D01*
X246355Y19490D01*
X246355Y8185D02*
X248835Y8185D01*
X248835Y10360D02*
X246355Y10360D01*
X246355Y12535D02*
X248835Y12535D01*
X248835Y14710D02*
X246355Y14710D01*
X246355Y16885D02*
X248835Y16885D01*
X248835Y19060D02*
X246355Y19060D01*
X243835Y19490D02*
X241355Y19490D01*
X243835Y19490D02*
X243835Y6010D01*
X241355Y6010D01*
X241355Y19490D01*
X241355Y8185D02*
X243835Y8185D01*
X243835Y10360D02*
X241355Y10360D01*
X241355Y12535D02*
X243835Y12535D01*
X243835Y14710D02*
X241355Y14710D01*
X241355Y16885D02*
X243835Y16885D01*
X243835Y19060D02*
X241355Y19060D01*
D11*
X354095Y210000D03*
X396095Y210000D03*
X375095Y197000D03*
D10*
X309585Y111990D02*
X307105Y111990D01*
X309585Y111990D02*
X309585Y109510D01*
X307105Y109510D01*
X307105Y111990D01*
X307105Y111685D02*
X309585Y111685D01*
X246085Y111990D02*
X243605Y111990D01*
X246085Y111990D02*
X246085Y109510D01*
X243605Y109510D01*
X243605Y111990D01*
X243605Y111685D02*
X246085Y111685D01*
D12*
X246077Y116482D02*
X243613Y116482D01*
X246077Y116482D02*
X246077Y114518D01*
X243613Y114518D01*
X243613Y116482D01*
X302613Y111982D02*
X304577Y111982D01*
X304577Y109518D01*
X302613Y109518D01*
X302613Y111982D01*
X302613Y111709D02*
X304577Y111709D01*
X300077Y111982D02*
X298113Y111982D01*
X300077Y111982D02*
X300077Y109518D01*
X298113Y109518D01*
X298113Y111982D01*
X298113Y111709D02*
X300077Y111709D01*
X295577Y111982D02*
X293613Y111982D01*
X295577Y111982D02*
X295577Y109518D01*
X293613Y109518D01*
X293613Y111982D01*
X293613Y111709D02*
X295577Y111709D01*
X291077Y111982D02*
X289113Y111982D01*
X291077Y111982D02*
X291077Y109518D01*
X289113Y109518D01*
X289113Y111982D01*
X289113Y111709D02*
X291077Y111709D01*
X286577Y111982D02*
X284613Y111982D01*
X286577Y111982D02*
X286577Y109518D01*
X284613Y109518D01*
X284613Y111982D01*
X284613Y111709D02*
X286577Y111709D01*
X282077Y111982D02*
X280113Y111982D01*
X282077Y111982D02*
X282077Y109518D01*
X280113Y109518D01*
X280113Y111982D01*
X280113Y111709D02*
X282077Y111709D01*
X277577Y111982D02*
X275613Y111982D01*
X277577Y111982D02*
X277577Y109518D01*
X275613Y109518D01*
X275613Y111982D01*
X275613Y111709D02*
X277577Y111709D01*
X273077Y111982D02*
X271113Y111982D01*
X273077Y111982D02*
X273077Y109518D01*
X271113Y109518D01*
X271113Y111982D01*
X271113Y111709D02*
X273077Y111709D01*
X268577Y111982D02*
X266613Y111982D01*
X268577Y111982D02*
X268577Y109518D01*
X266613Y109518D01*
X266613Y111982D01*
X266613Y111709D02*
X268577Y111709D01*
X264077Y111982D02*
X262113Y111982D01*
X264077Y111982D02*
X264077Y109518D01*
X262113Y109518D01*
X262113Y111982D01*
X262113Y111709D02*
X264077Y111709D01*
X259577Y111982D02*
X257613Y111982D01*
X259577Y111982D02*
X259577Y109518D01*
X257613Y109518D01*
X257613Y111982D01*
X257613Y111709D02*
X259577Y111709D01*
X255077Y111982D02*
X253113Y111982D01*
X255077Y111982D02*
X255077Y109518D01*
X253113Y109518D01*
X253113Y111982D01*
X253113Y111709D02*
X255077Y111709D01*
X250577Y111982D02*
X248613Y111982D01*
X250577Y111982D02*
X250577Y109518D01*
X248613Y109518D01*
X248613Y111982D01*
X248613Y111709D02*
X250577Y111709D01*
X246077Y119018D02*
X246077Y120982D01*
X246077Y119018D02*
X243613Y119018D01*
X243613Y120982D01*
X246077Y120982D01*
X246077Y123518D02*
X246077Y125482D01*
X246077Y123518D02*
X243613Y123518D01*
X243613Y125482D01*
X246077Y125482D01*
X246077Y128018D02*
X246077Y129982D01*
X246077Y128018D02*
X243613Y128018D01*
X243613Y129982D01*
X246077Y129982D01*
X246077Y132518D02*
X246077Y134482D01*
X246077Y132518D02*
X243613Y132518D01*
X243613Y134482D01*
X246077Y134482D01*
X246077Y137018D02*
X246077Y138982D01*
X246077Y137018D02*
X243613Y137018D01*
X243613Y138982D01*
X246077Y138982D01*
X246077Y141518D02*
X246077Y143482D01*
X246077Y141518D02*
X243613Y141518D01*
X243613Y143482D01*
X246077Y143482D01*
X246077Y146018D02*
X246077Y147982D01*
X246077Y146018D02*
X243613Y146018D01*
X243613Y147982D01*
X246077Y147982D01*
X246077Y150518D02*
X246077Y152482D01*
X246077Y150518D02*
X243613Y150518D01*
X243613Y152482D01*
X246077Y152482D01*
X246077Y155018D02*
X246077Y156982D01*
X246077Y155018D02*
X243613Y155018D01*
X243613Y156982D01*
X246077Y156982D01*
X246077Y159518D02*
X246077Y161482D01*
X246077Y159518D02*
X243613Y159518D01*
X243613Y161482D01*
X246077Y161482D01*
X246077Y164018D02*
X246077Y165982D01*
X246077Y164018D02*
X243613Y164018D01*
X243613Y165982D01*
X246077Y165982D01*
X246077Y168518D02*
X246077Y170482D01*
X246077Y168518D02*
X243613Y168518D01*
X243613Y170482D01*
X246077Y170482D01*
X246077Y173018D02*
X246077Y174982D01*
X246077Y173018D02*
X243613Y173018D01*
X243613Y174982D01*
X246077Y174982D01*
X246077Y177518D02*
X246077Y179482D01*
X246077Y177518D02*
X243613Y177518D01*
X243613Y179482D01*
X246077Y179482D01*
D10*
X246085Y184490D02*
X243605Y184490D01*
X246085Y184490D02*
X246085Y182010D01*
X243605Y182010D01*
X243605Y184490D01*
X243605Y184185D02*
X246085Y184185D01*
D12*
X307113Y116482D02*
X309577Y116482D01*
X309577Y114518D01*
X307113Y114518D01*
X307113Y116482D01*
X309577Y119018D02*
X309577Y120982D01*
X309577Y119018D02*
X307113Y119018D01*
X307113Y120982D01*
X309577Y120982D01*
X309577Y123518D02*
X309577Y125482D01*
X309577Y123518D02*
X307113Y123518D01*
X307113Y125482D01*
X309577Y125482D01*
X309577Y128018D02*
X309577Y129982D01*
X309577Y128018D02*
X307113Y128018D01*
X307113Y129982D01*
X309577Y129982D01*
X309577Y132518D02*
X309577Y134482D01*
X309577Y132518D02*
X307113Y132518D01*
X307113Y134482D01*
X309577Y134482D01*
X309577Y137018D02*
X309577Y138982D01*
X309577Y137018D02*
X307113Y137018D01*
X307113Y138982D01*
X309577Y138982D01*
X309577Y141518D02*
X309577Y143482D01*
X309577Y141518D02*
X307113Y141518D01*
X307113Y143482D01*
X309577Y143482D01*
X309577Y146018D02*
X309577Y147982D01*
X309577Y146018D02*
X307113Y146018D01*
X307113Y147982D01*
X309577Y147982D01*
X309577Y150518D02*
X309577Y152482D01*
X309577Y150518D02*
X307113Y150518D01*
X307113Y152482D01*
X309577Y152482D01*
X309577Y155018D02*
X309577Y156982D01*
X309577Y155018D02*
X307113Y155018D01*
X307113Y156982D01*
X309577Y156982D01*
X309577Y159518D02*
X309577Y161482D01*
X309577Y159518D02*
X307113Y159518D01*
X307113Y161482D01*
X309577Y161482D01*
X309577Y164018D02*
X309577Y165982D01*
X309577Y164018D02*
X307113Y164018D01*
X307113Y165982D01*
X309577Y165982D01*
X309577Y168518D02*
X309577Y170482D01*
X309577Y168518D02*
X307113Y168518D01*
X307113Y170482D01*
X309577Y170482D01*
X309577Y173018D02*
X309577Y174982D01*
X309577Y173018D02*
X307113Y173018D01*
X307113Y174982D01*
X309577Y174982D01*
X309577Y177518D02*
X309577Y179482D01*
X309577Y177518D02*
X307113Y177518D01*
X307113Y179482D01*
X309577Y179482D01*
D10*
X309585Y184490D02*
X307105Y184490D01*
X309585Y184490D02*
X309585Y182010D01*
X307105Y182010D01*
X307105Y184490D01*
X307105Y184185D02*
X309585Y184185D01*
D12*
X304577Y184482D02*
X302613Y184482D01*
X304577Y184482D02*
X304577Y182018D01*
X302613Y182018D01*
X302613Y184482D01*
X302613Y184209D02*
X304577Y184209D01*
X300077Y184482D02*
X298113Y184482D01*
X300077Y184482D02*
X300077Y182018D01*
X298113Y182018D01*
X298113Y184482D01*
X298113Y184209D02*
X300077Y184209D01*
X295577Y184482D02*
X293613Y184482D01*
X295577Y184482D02*
X295577Y182018D01*
X293613Y182018D01*
X293613Y184482D01*
X293613Y184209D02*
X295577Y184209D01*
X291077Y184482D02*
X289113Y184482D01*
X291077Y184482D02*
X291077Y182018D01*
X289113Y182018D01*
X289113Y184482D01*
X289113Y184209D02*
X291077Y184209D01*
X286577Y184482D02*
X284613Y184482D01*
X286577Y184482D02*
X286577Y182018D01*
X284613Y182018D01*
X284613Y184482D01*
X284613Y184209D02*
X286577Y184209D01*
X282077Y184482D02*
X280113Y184482D01*
X282077Y184482D02*
X282077Y182018D01*
X280113Y182018D01*
X280113Y184482D01*
X280113Y184209D02*
X282077Y184209D01*
X277577Y184482D02*
X275613Y184482D01*
X277577Y184482D02*
X277577Y182018D01*
X275613Y182018D01*
X275613Y184482D01*
X275613Y184209D02*
X277577Y184209D01*
X273077Y184482D02*
X271113Y184482D01*
X273077Y184482D02*
X273077Y182018D01*
X271113Y182018D01*
X271113Y184482D01*
X271113Y184209D02*
X273077Y184209D01*
X268577Y184482D02*
X266613Y184482D01*
X268577Y184482D02*
X268577Y182018D01*
X266613Y182018D01*
X266613Y184482D01*
X266613Y184209D02*
X268577Y184209D01*
X264077Y184482D02*
X262113Y184482D01*
X264077Y184482D02*
X264077Y182018D01*
X262113Y182018D01*
X262113Y184482D01*
X262113Y184209D02*
X264077Y184209D01*
X259577Y184482D02*
X257613Y184482D01*
X259577Y184482D02*
X259577Y182018D01*
X257613Y182018D01*
X257613Y184482D01*
X257613Y184209D02*
X259577Y184209D01*
X255077Y184482D02*
X253113Y184482D01*
X255077Y184482D02*
X255077Y182018D01*
X253113Y182018D01*
X253113Y184482D01*
X253113Y184209D02*
X255077Y184209D01*
X250577Y184482D02*
X248613Y184482D01*
X250577Y184482D02*
X250577Y182018D01*
X248613Y182018D01*
X248613Y184482D01*
X248613Y184209D02*
X250577Y184209D01*
D13*
X260587Y172008D02*
X265603Y172008D01*
X265603Y166992D01*
X260587Y166992D01*
X260587Y172008D01*
X260587Y169133D02*
X265603Y169133D01*
X265603Y171274D02*
X260587Y171274D01*
X260587Y163008D02*
X265603Y163008D01*
X265603Y157992D01*
X260587Y157992D01*
X260587Y163008D01*
X260587Y160133D02*
X265603Y160133D01*
X265603Y162274D02*
X260587Y162274D01*
X260587Y154008D02*
X265603Y154008D01*
X265603Y148992D01*
X260587Y148992D01*
X260587Y154008D01*
X260587Y151133D02*
X265603Y151133D01*
X265603Y153274D02*
X260587Y153274D01*
X260587Y145008D02*
X265603Y145008D01*
X265603Y139992D01*
X260587Y139992D01*
X260587Y145008D01*
X260587Y142133D02*
X265603Y142133D01*
X265603Y144274D02*
X260587Y144274D01*
X260587Y136008D02*
X265603Y136008D01*
X265603Y130992D01*
X260587Y130992D01*
X260587Y136008D01*
X260587Y133133D02*
X265603Y133133D01*
X265603Y135274D02*
X260587Y135274D01*
X260587Y127008D02*
X265603Y127008D01*
X265603Y121992D01*
X260587Y121992D01*
X260587Y127008D01*
X260587Y124133D02*
X265603Y124133D01*
X265603Y126274D02*
X260587Y126274D01*
X269587Y127008D02*
X274603Y127008D01*
X274603Y121992D01*
X269587Y121992D01*
X269587Y127008D01*
X269587Y124133D02*
X274603Y124133D01*
X274603Y126274D02*
X269587Y126274D01*
X278587Y127008D02*
X283603Y127008D01*
X283603Y121992D01*
X278587Y121992D01*
X278587Y127008D01*
X278587Y124133D02*
X283603Y124133D01*
X283603Y126274D02*
X278587Y126274D01*
X287587Y127008D02*
X292603Y127008D01*
X292603Y121992D01*
X287587Y121992D01*
X287587Y127008D01*
X287587Y124133D02*
X292603Y124133D01*
X292603Y126274D02*
X287587Y126274D01*
X287587Y130992D02*
X292603Y130992D01*
X287587Y130992D02*
X287587Y136008D01*
X292603Y136008D01*
X292603Y130992D01*
X292603Y133133D02*
X287587Y133133D01*
X287587Y135274D02*
X292603Y135274D01*
X292603Y139992D02*
X287587Y139992D01*
X287587Y145008D01*
X292603Y145008D01*
X292603Y139992D01*
X292603Y142133D02*
X287587Y142133D01*
X287587Y144274D02*
X292603Y144274D01*
X292603Y148992D02*
X287587Y148992D01*
X287587Y154008D01*
X292603Y154008D01*
X292603Y148992D01*
X292603Y151133D02*
X287587Y151133D01*
X287587Y153274D02*
X292603Y153274D01*
X292603Y157992D02*
X287587Y157992D01*
X287587Y163008D01*
X292603Y163008D01*
X292603Y157992D01*
X292603Y160133D02*
X287587Y160133D01*
X287587Y162274D02*
X292603Y162274D01*
X292603Y166992D02*
X287587Y166992D01*
X287587Y172008D01*
X292603Y172008D01*
X292603Y166992D01*
X292603Y169133D02*
X287587Y169133D01*
X287587Y171274D02*
X292603Y171274D01*
X283603Y130992D02*
X278587Y130992D01*
X278587Y136008D01*
X283603Y136008D01*
X283603Y130992D01*
X283603Y133133D02*
X278587Y133133D01*
X278587Y135274D02*
X283603Y135274D01*
X283603Y139992D02*
X278587Y139992D01*
X278587Y145008D01*
X283603Y145008D01*
X283603Y139992D01*
X283603Y142133D02*
X278587Y142133D01*
X278587Y144274D02*
X283603Y144274D01*
X283603Y148992D02*
X278587Y148992D01*
X278587Y154008D01*
X283603Y154008D01*
X283603Y148992D01*
X283603Y151133D02*
X278587Y151133D01*
X278587Y153274D02*
X283603Y153274D01*
X283603Y157992D02*
X278587Y157992D01*
X278587Y163008D01*
X283603Y163008D01*
X283603Y157992D01*
X283603Y160133D02*
X278587Y160133D01*
X278587Y162274D02*
X283603Y162274D01*
X283603Y166992D02*
X278587Y166992D01*
X278587Y172008D01*
X283603Y172008D01*
X283603Y166992D01*
X283603Y169133D02*
X278587Y169133D01*
X278587Y171274D02*
X283603Y171274D01*
X274603Y130992D02*
X269587Y130992D01*
X269587Y136008D01*
X274603Y136008D01*
X274603Y130992D01*
X274603Y133133D02*
X269587Y133133D01*
X269587Y135274D02*
X274603Y135274D01*
X274603Y139992D02*
X269587Y139992D01*
X269587Y145008D01*
X274603Y145008D01*
X274603Y139992D01*
X274603Y142133D02*
X269587Y142133D01*
X269587Y144274D02*
X274603Y144274D01*
X274603Y148992D02*
X269587Y148992D01*
X269587Y154008D01*
X274603Y154008D01*
X274603Y148992D01*
X274603Y151133D02*
X269587Y151133D01*
X269587Y153274D02*
X274603Y153274D01*
X274603Y157992D02*
X269587Y157992D01*
X269587Y163008D01*
X274603Y163008D01*
X274603Y157992D01*
X274603Y160133D02*
X269587Y160133D01*
X269587Y162274D02*
X274603Y162274D01*
X274603Y166992D02*
X269587Y166992D01*
X269587Y172008D01*
X274603Y172008D01*
X274603Y166992D01*
X274603Y169133D02*
X269587Y169133D01*
X269587Y171274D02*
X274603Y171274D01*
D14*
X305452Y214493D02*
X308738Y214493D01*
X308738Y211207D01*
X305452Y211207D01*
X305452Y214493D01*
X305452Y213377D02*
X308738Y213377D01*
X247738Y214493D02*
X244452Y214493D01*
X247738Y214493D02*
X247738Y211207D01*
X244452Y211207D01*
X244452Y214493D01*
X244452Y213377D02*
X247738Y213377D01*
D13*
X238103Y74492D02*
X233087Y74492D01*
X233087Y79508D01*
X238103Y79508D01*
X238103Y74492D01*
X238103Y76633D02*
X233087Y76633D01*
X233087Y78774D02*
X238103Y78774D01*
X243087Y74492D02*
X248103Y74492D01*
X243087Y74492D02*
X243087Y79508D01*
X248103Y79508D01*
X248103Y74492D01*
X248103Y76633D02*
X243087Y76633D01*
X243087Y78774D02*
X248103Y78774D01*
D15*
X309619Y87524D02*
X309619Y94476D01*
X317571Y94476D01*
X317571Y87524D01*
X309619Y87524D01*
X309619Y89726D02*
X317571Y89726D01*
X317571Y91928D02*
X309619Y91928D01*
X309619Y94130D02*
X317571Y94130D01*
X309619Y75476D02*
X309619Y68524D01*
X309619Y75476D02*
X317571Y75476D01*
X317571Y68524D01*
X309619Y68524D01*
X309619Y70726D02*
X317571Y70726D01*
X317571Y72928D02*
X309619Y72928D01*
X309619Y75130D02*
X317571Y75130D01*
X330619Y78024D02*
X330619Y84976D01*
X338571Y84976D01*
X338571Y78024D01*
X330619Y78024D01*
X330619Y80226D02*
X338571Y80226D01*
X338571Y82428D02*
X330619Y82428D01*
X330619Y84630D02*
X338571Y84630D01*
D13*
X349603Y69508D02*
X349603Y64492D01*
X344587Y64492D01*
X344587Y69508D01*
X349603Y69508D01*
X349603Y66633D02*
X344587Y66633D01*
X344587Y68774D02*
X349603Y68774D01*
X349603Y74492D02*
X349603Y79508D01*
X349603Y74492D02*
X344587Y74492D01*
X344587Y79508D01*
X349603Y79508D01*
X349603Y76633D02*
X344587Y76633D01*
X344587Y78774D02*
X349603Y78774D01*
X299087Y79492D02*
X299087Y84508D01*
X304103Y84508D01*
X304103Y79492D01*
X299087Y79492D01*
X299087Y81633D02*
X304103Y81633D01*
X304103Y83774D02*
X299087Y83774D01*
X299087Y74508D02*
X299087Y69492D01*
X299087Y74508D02*
X304103Y74508D01*
X304103Y69492D01*
X299087Y69492D01*
X299087Y71633D02*
X304103Y71633D01*
X304103Y73774D02*
X299087Y73774D01*
D16*
X255597Y63498D02*
X252593Y63498D01*
X252593Y66502D01*
X255597Y66502D01*
X255597Y63498D01*
X255597Y65651D02*
X252593Y65651D01*
X241597Y63498D02*
X238593Y63498D01*
X238593Y66502D01*
X241597Y66502D01*
X241597Y63498D01*
X241597Y65651D02*
X238593Y65651D01*
D17*
X368602Y131043D02*
X368602Y135057D01*
X368602Y131043D02*
X361088Y131043D01*
X361088Y135057D01*
X368602Y135057D01*
X368602Y133187D02*
X361088Y133187D01*
X368602Y122357D02*
X368602Y118343D01*
X361088Y118343D01*
X361088Y122357D01*
X368602Y122357D01*
X368602Y120487D02*
X361088Y120487D01*
X368602Y109657D02*
X368602Y105643D01*
X361088Y105643D01*
X361088Y109657D01*
X368602Y109657D01*
X368602Y107787D02*
X361088Y107787D01*
X368602Y96957D02*
X368602Y92943D01*
X361088Y92943D01*
X361088Y96957D01*
X368602Y96957D01*
X368602Y95087D02*
X361088Y95087D01*
X424102Y105643D02*
X424102Y109657D01*
X424102Y105643D02*
X416588Y105643D01*
X416588Y109657D01*
X424102Y109657D01*
X424102Y107787D02*
X416588Y107787D01*
X424102Y96957D02*
X424102Y92943D01*
X416588Y92943D01*
X416588Y96957D01*
X424102Y96957D01*
X424102Y95087D02*
X416588Y95087D01*
X424102Y118343D02*
X424102Y122357D01*
X424102Y118343D02*
X416588Y118343D01*
X416588Y122357D01*
X424102Y122357D01*
X424102Y120487D02*
X416588Y120487D01*
X424102Y131043D02*
X424102Y135057D01*
X424102Y131043D02*
X416588Y131043D01*
X416588Y135057D01*
X424102Y135057D01*
X424102Y133187D02*
X416588Y133187D01*
D18*
X417819Y191506D02*
X417819Y198494D01*
X417819Y191506D02*
X410831Y191506D01*
X410831Y198494D01*
X417819Y198494D01*
X417819Y195575D02*
X410831Y195575D01*
X435359Y198494D02*
X435359Y191506D01*
X428371Y191506D01*
X428371Y198494D01*
X435359Y198494D01*
X435359Y195575D02*
X428371Y195575D01*
D13*
X427587Y177008D02*
X432603Y177008D01*
X432603Y171992D01*
X427587Y171992D01*
X427587Y177008D01*
X427587Y174133D02*
X432603Y174133D01*
X432603Y176274D02*
X427587Y176274D01*
X422603Y177008D02*
X417587Y177008D01*
X422603Y177008D02*
X422603Y171992D01*
X417587Y171992D01*
X417587Y177008D01*
X417587Y174133D02*
X422603Y174133D01*
X422603Y176274D02*
X417587Y176274D01*
X418087Y151508D02*
X423103Y151508D01*
X423103Y146492D01*
X418087Y146492D01*
X418087Y151508D01*
X418087Y148633D02*
X423103Y148633D01*
X423103Y150774D02*
X418087Y150774D01*
X413103Y151508D02*
X408087Y151508D01*
X413103Y151508D02*
X413103Y146492D01*
X408087Y146492D01*
X408087Y151508D01*
X408087Y148633D02*
X413103Y148633D01*
X413103Y150774D02*
X408087Y150774D01*
D19*
X232095Y47000D03*
X437095Y212000D03*
D10*
X651450Y19490D02*
X653930Y19490D01*
X653930Y6010D01*
X651450Y6010D01*
X651450Y19490D01*
X651450Y8185D02*
X653930Y8185D01*
X653930Y10360D02*
X651450Y10360D01*
X651450Y12535D02*
X653930Y12535D01*
X653930Y14710D02*
X651450Y14710D01*
X651450Y16885D02*
X653930Y16885D01*
X653930Y19060D02*
X651450Y19060D01*
X648930Y19490D02*
X646450Y19490D01*
X648930Y19490D02*
X648930Y6010D01*
X646450Y6010D01*
X646450Y19490D01*
X646450Y8185D02*
X648930Y8185D01*
X648930Y10360D02*
X646450Y10360D01*
X646450Y12535D02*
X648930Y12535D01*
X648930Y14710D02*
X646450Y14710D01*
X646450Y16885D02*
X648930Y16885D01*
X648930Y19060D02*
X646450Y19060D01*
X643930Y19490D02*
X641450Y19490D01*
X643930Y19490D02*
X643930Y6010D01*
X641450Y6010D01*
X641450Y19490D01*
X641450Y8185D02*
X643930Y8185D01*
X643930Y10360D02*
X641450Y10360D01*
X641450Y12535D02*
X643930Y12535D01*
X643930Y14710D02*
X641450Y14710D01*
X641450Y16885D02*
X643930Y16885D01*
X643930Y19060D02*
X641450Y19060D01*
X638930Y19490D02*
X636450Y19490D01*
X638930Y19490D02*
X638930Y6010D01*
X636450Y6010D01*
X636450Y19490D01*
X636450Y8185D02*
X638930Y8185D01*
X638930Y10360D02*
X636450Y10360D01*
X636450Y12535D02*
X638930Y12535D01*
X638930Y14710D02*
X636450Y14710D01*
X636450Y16885D02*
X638930Y16885D01*
X638930Y19060D02*
X636450Y19060D01*
X633930Y19490D02*
X631450Y19490D01*
X633930Y19490D02*
X633930Y6010D01*
X631450Y6010D01*
X631450Y19490D01*
X631450Y8185D02*
X633930Y8185D01*
X633930Y10360D02*
X631450Y10360D01*
X631450Y12535D02*
X633930Y12535D01*
X633930Y14710D02*
X631450Y14710D01*
X631450Y16885D02*
X633930Y16885D01*
X633930Y19060D02*
X631450Y19060D01*
X628930Y19490D02*
X626450Y19490D01*
X628930Y19490D02*
X628930Y6010D01*
X626450Y6010D01*
X626450Y19490D01*
X626450Y8185D02*
X628930Y8185D01*
X628930Y10360D02*
X626450Y10360D01*
X626450Y12535D02*
X628930Y12535D01*
X628930Y14710D02*
X626450Y14710D01*
X626450Y16885D02*
X628930Y16885D01*
X628930Y19060D02*
X626450Y19060D01*
X623930Y19490D02*
X621450Y19490D01*
X623930Y19490D02*
X623930Y6010D01*
X621450Y6010D01*
X621450Y19490D01*
X621450Y8185D02*
X623930Y8185D01*
X623930Y10360D02*
X621450Y10360D01*
X621450Y12535D02*
X623930Y12535D01*
X623930Y14710D02*
X621450Y14710D01*
X621450Y16885D02*
X623930Y16885D01*
X623930Y19060D02*
X621450Y19060D01*
X618930Y19490D02*
X616450Y19490D01*
X618930Y19490D02*
X618930Y6010D01*
X616450Y6010D01*
X616450Y19490D01*
X616450Y8185D02*
X618930Y8185D01*
X618930Y10360D02*
X616450Y10360D01*
X616450Y12535D02*
X618930Y12535D01*
X618930Y14710D02*
X616450Y14710D01*
X616450Y16885D02*
X618930Y16885D01*
X618930Y19060D02*
X616450Y19060D01*
X613930Y19490D02*
X611450Y19490D01*
X613930Y19490D02*
X613930Y6010D01*
X611450Y6010D01*
X611450Y19490D01*
X611450Y8185D02*
X613930Y8185D01*
X613930Y10360D02*
X611450Y10360D01*
X611450Y12535D02*
X613930Y12535D01*
X613930Y14710D02*
X611450Y14710D01*
X611450Y16885D02*
X613930Y16885D01*
X613930Y19060D02*
X611450Y19060D01*
X608930Y19490D02*
X606450Y19490D01*
X608930Y19490D02*
X608930Y6010D01*
X606450Y6010D01*
X606450Y19490D01*
X606450Y8185D02*
X608930Y8185D01*
X608930Y10360D02*
X606450Y10360D01*
X606450Y12535D02*
X608930Y12535D01*
X608930Y14710D02*
X606450Y14710D01*
X606450Y16885D02*
X608930Y16885D01*
X608930Y19060D02*
X606450Y19060D01*
X603930Y19490D02*
X601450Y19490D01*
X603930Y19490D02*
X603930Y6010D01*
X601450Y6010D01*
X601450Y19490D01*
X601450Y8185D02*
X603930Y8185D01*
X603930Y10360D02*
X601450Y10360D01*
X601450Y12535D02*
X603930Y12535D01*
X603930Y14710D02*
X601450Y14710D01*
X601450Y16885D02*
X603930Y16885D01*
X603930Y19060D02*
X601450Y19060D01*
X598930Y19490D02*
X596450Y19490D01*
X598930Y19490D02*
X598930Y6010D01*
X596450Y6010D01*
X596450Y19490D01*
X596450Y8185D02*
X598930Y8185D01*
X598930Y10360D02*
X596450Y10360D01*
X596450Y12535D02*
X598930Y12535D01*
X598930Y14710D02*
X596450Y14710D01*
X596450Y16885D02*
X598930Y16885D01*
X598930Y19060D02*
X596450Y19060D01*
X573930Y19490D02*
X571450Y19490D01*
X573930Y19490D02*
X573930Y6010D01*
X571450Y6010D01*
X571450Y19490D01*
X571450Y8185D02*
X573930Y8185D01*
X573930Y10360D02*
X571450Y10360D01*
X571450Y12535D02*
X573930Y12535D01*
X573930Y14710D02*
X571450Y14710D01*
X571450Y16885D02*
X573930Y16885D01*
X573930Y19060D02*
X571450Y19060D01*
X568930Y19490D02*
X566450Y19490D01*
X568930Y19490D02*
X568930Y6010D01*
X566450Y6010D01*
X566450Y19490D01*
X566450Y8185D02*
X568930Y8185D01*
X568930Y10360D02*
X566450Y10360D01*
X566450Y12535D02*
X568930Y12535D01*
X568930Y14710D02*
X566450Y14710D01*
X566450Y16885D02*
X568930Y16885D01*
X568930Y19060D02*
X566450Y19060D01*
X563930Y19490D02*
X561450Y19490D01*
X563930Y19490D02*
X563930Y6010D01*
X561450Y6010D01*
X561450Y19490D01*
X561450Y8185D02*
X563930Y8185D01*
X563930Y10360D02*
X561450Y10360D01*
X561450Y12535D02*
X563930Y12535D01*
X563930Y14710D02*
X561450Y14710D01*
X561450Y16885D02*
X563930Y16885D01*
X563930Y19060D02*
X561450Y19060D01*
X558930Y19490D02*
X556450Y19490D01*
X558930Y19490D02*
X558930Y6010D01*
X556450Y6010D01*
X556450Y19490D01*
X556450Y8185D02*
X558930Y8185D01*
X558930Y10360D02*
X556450Y10360D01*
X556450Y12535D02*
X558930Y12535D01*
X558930Y14710D02*
X556450Y14710D01*
X556450Y16885D02*
X558930Y16885D01*
X558930Y19060D02*
X556450Y19060D01*
X553930Y19490D02*
X551450Y19490D01*
X553930Y19490D02*
X553930Y6010D01*
X551450Y6010D01*
X551450Y19490D01*
X551450Y8185D02*
X553930Y8185D01*
X553930Y10360D02*
X551450Y10360D01*
X551450Y12535D02*
X553930Y12535D01*
X553930Y14710D02*
X551450Y14710D01*
X551450Y16885D02*
X553930Y16885D01*
X553930Y19060D02*
X551450Y19060D01*
X548930Y19490D02*
X546450Y19490D01*
X548930Y19490D02*
X548930Y6010D01*
X546450Y6010D01*
X546450Y19490D01*
X546450Y8185D02*
X548930Y8185D01*
X548930Y10360D02*
X546450Y10360D01*
X546450Y12535D02*
X548930Y12535D01*
X548930Y14710D02*
X546450Y14710D01*
X546450Y16885D02*
X548930Y16885D01*
X548930Y19060D02*
X546450Y19060D01*
X543930Y19490D02*
X541450Y19490D01*
X543930Y19490D02*
X543930Y6010D01*
X541450Y6010D01*
X541450Y19490D01*
X541450Y8185D02*
X543930Y8185D01*
X543930Y10360D02*
X541450Y10360D01*
X541450Y12535D02*
X543930Y12535D01*
X543930Y14710D02*
X541450Y14710D01*
X541450Y16885D02*
X543930Y16885D01*
X543930Y19060D02*
X541450Y19060D01*
X538930Y19490D02*
X536450Y19490D01*
X538930Y19490D02*
X538930Y6010D01*
X536450Y6010D01*
X536450Y19490D01*
X536450Y8185D02*
X538930Y8185D01*
X538930Y10360D02*
X536450Y10360D01*
X536450Y12535D02*
X538930Y12535D01*
X538930Y14710D02*
X536450Y14710D01*
X536450Y16885D02*
X538930Y16885D01*
X538930Y19060D02*
X536450Y19060D01*
X533930Y19490D02*
X531450Y19490D01*
X533930Y19490D02*
X533930Y6010D01*
X531450Y6010D01*
X531450Y19490D01*
X531450Y8185D02*
X533930Y8185D01*
X533930Y10360D02*
X531450Y10360D01*
X531450Y12535D02*
X533930Y12535D01*
X533930Y14710D02*
X531450Y14710D01*
X531450Y16885D02*
X533930Y16885D01*
X533930Y19060D02*
X531450Y19060D01*
X528930Y19490D02*
X526450Y19490D01*
X528930Y19490D02*
X528930Y6010D01*
X526450Y6010D01*
X526450Y19490D01*
X526450Y8185D02*
X528930Y8185D01*
X528930Y10360D02*
X526450Y10360D01*
X526450Y12535D02*
X528930Y12535D01*
X528930Y14710D02*
X526450Y14710D01*
X526450Y16885D02*
X528930Y16885D01*
X528930Y19060D02*
X526450Y19060D01*
X523930Y19490D02*
X521450Y19490D01*
X523930Y19490D02*
X523930Y6010D01*
X521450Y6010D01*
X521450Y19490D01*
X521450Y8185D02*
X523930Y8185D01*
X523930Y10360D02*
X521450Y10360D01*
X521450Y12535D02*
X523930Y12535D01*
X523930Y14710D02*
X521450Y14710D01*
X521450Y16885D02*
X523930Y16885D01*
X523930Y19060D02*
X521450Y19060D01*
X518930Y19490D02*
X516450Y19490D01*
X518930Y19490D02*
X518930Y6010D01*
X516450Y6010D01*
X516450Y19490D01*
X516450Y8185D02*
X518930Y8185D01*
X518930Y10360D02*
X516450Y10360D01*
X516450Y12535D02*
X518930Y12535D01*
X518930Y14710D02*
X516450Y14710D01*
X516450Y16885D02*
X518930Y16885D01*
X518930Y19060D02*
X516450Y19060D01*
X513930Y19490D02*
X511450Y19490D01*
X513930Y19490D02*
X513930Y6010D01*
X511450Y6010D01*
X511450Y19490D01*
X511450Y8185D02*
X513930Y8185D01*
X513930Y10360D02*
X511450Y10360D01*
X511450Y12535D02*
X513930Y12535D01*
X513930Y14710D02*
X511450Y14710D01*
X511450Y16885D02*
X513930Y16885D01*
X513930Y19060D02*
X511450Y19060D01*
X508930Y19490D02*
X506450Y19490D01*
X508930Y19490D02*
X508930Y6010D01*
X506450Y6010D01*
X506450Y19490D01*
X506450Y8185D02*
X508930Y8185D01*
X508930Y10360D02*
X506450Y10360D01*
X506450Y12535D02*
X508930Y12535D01*
X508930Y14710D02*
X506450Y14710D01*
X506450Y16885D02*
X508930Y16885D01*
X508930Y19060D02*
X506450Y19060D01*
X503930Y19490D02*
X501450Y19490D01*
X503930Y19490D02*
X503930Y6010D01*
X501450Y6010D01*
X501450Y19490D01*
X501450Y8185D02*
X503930Y8185D01*
X503930Y10360D02*
X501450Y10360D01*
X501450Y12535D02*
X503930Y12535D01*
X503930Y14710D02*
X501450Y14710D01*
X501450Y16885D02*
X503930Y16885D01*
X503930Y19060D02*
X501450Y19060D01*
X498930Y19490D02*
X496450Y19490D01*
X498930Y19490D02*
X498930Y6010D01*
X496450Y6010D01*
X496450Y19490D01*
X496450Y8185D02*
X498930Y8185D01*
X498930Y10360D02*
X496450Y10360D01*
X496450Y12535D02*
X498930Y12535D01*
X498930Y14710D02*
X496450Y14710D01*
X496450Y16885D02*
X498930Y16885D01*
X498930Y19060D02*
X496450Y19060D01*
X493930Y19490D02*
X491450Y19490D01*
X493930Y19490D02*
X493930Y6010D01*
X491450Y6010D01*
X491450Y19490D01*
X491450Y8185D02*
X493930Y8185D01*
X493930Y10360D02*
X491450Y10360D01*
X491450Y12535D02*
X493930Y12535D01*
X493930Y14710D02*
X491450Y14710D01*
X491450Y16885D02*
X493930Y16885D01*
X493930Y19060D02*
X491450Y19060D01*
X488930Y19490D02*
X486450Y19490D01*
X488930Y19490D02*
X488930Y6010D01*
X486450Y6010D01*
X486450Y19490D01*
X486450Y8185D02*
X488930Y8185D01*
X488930Y10360D02*
X486450Y10360D01*
X486450Y12535D02*
X488930Y12535D01*
X488930Y14710D02*
X486450Y14710D01*
X486450Y16885D02*
X488930Y16885D01*
X488930Y19060D02*
X486450Y19060D01*
X483930Y19490D02*
X481450Y19490D01*
X483930Y19490D02*
X483930Y6010D01*
X481450Y6010D01*
X481450Y19490D01*
X481450Y8185D02*
X483930Y8185D01*
X483930Y10360D02*
X481450Y10360D01*
X481450Y12535D02*
X483930Y12535D01*
X483930Y14710D02*
X481450Y14710D01*
X481450Y16885D02*
X483930Y16885D01*
X483930Y19060D02*
X481450Y19060D01*
X478930Y19490D02*
X476450Y19490D01*
X478930Y19490D02*
X478930Y6010D01*
X476450Y6010D01*
X476450Y19490D01*
X476450Y8185D02*
X478930Y8185D01*
X478930Y10360D02*
X476450Y10360D01*
X476450Y12535D02*
X478930Y12535D01*
X478930Y14710D02*
X476450Y14710D01*
X476450Y16885D02*
X478930Y16885D01*
X478930Y19060D02*
X476450Y19060D01*
X473930Y19490D02*
X471450Y19490D01*
X473930Y19490D02*
X473930Y6010D01*
X471450Y6010D01*
X471450Y19490D01*
X471450Y8185D02*
X473930Y8185D01*
X473930Y10360D02*
X471450Y10360D01*
X471450Y12535D02*
X473930Y12535D01*
X473930Y14710D02*
X471450Y14710D01*
X471450Y16885D02*
X473930Y16885D01*
X473930Y19060D02*
X471450Y19060D01*
X468930Y19490D02*
X466450Y19490D01*
X468930Y19490D02*
X468930Y6010D01*
X466450Y6010D01*
X466450Y19490D01*
X466450Y8185D02*
X468930Y8185D01*
X468930Y10360D02*
X466450Y10360D01*
X466450Y12535D02*
X468930Y12535D01*
X468930Y14710D02*
X466450Y14710D01*
X466450Y16885D02*
X468930Y16885D01*
X468930Y19060D02*
X466450Y19060D01*
D11*
X579190Y210000D03*
X621190Y210000D03*
X600190Y197000D03*
D10*
X534680Y111990D02*
X532200Y111990D01*
X534680Y111990D02*
X534680Y109510D01*
X532200Y109510D01*
X532200Y111990D01*
X532200Y111685D02*
X534680Y111685D01*
X471180Y111990D02*
X468700Y111990D01*
X471180Y111990D02*
X471180Y109510D01*
X468700Y109510D01*
X468700Y111990D01*
X468700Y111685D02*
X471180Y111685D01*
D12*
X471172Y116482D02*
X468708Y116482D01*
X471172Y116482D02*
X471172Y114518D01*
X468708Y114518D01*
X468708Y116482D01*
X527708Y111982D02*
X529672Y111982D01*
X529672Y109518D01*
X527708Y109518D01*
X527708Y111982D01*
X527708Y111709D02*
X529672Y111709D01*
X525172Y111982D02*
X523208Y111982D01*
X525172Y111982D02*
X525172Y109518D01*
X523208Y109518D01*
X523208Y111982D01*
X523208Y111709D02*
X525172Y111709D01*
X520672Y111982D02*
X518708Y111982D01*
X520672Y111982D02*
X520672Y109518D01*
X518708Y109518D01*
X518708Y111982D01*
X518708Y111709D02*
X520672Y111709D01*
X516172Y111982D02*
X514208Y111982D01*
X516172Y111982D02*
X516172Y109518D01*
X514208Y109518D01*
X514208Y111982D01*
X514208Y111709D02*
X516172Y111709D01*
X511672Y111982D02*
X509708Y111982D01*
X511672Y111982D02*
X511672Y109518D01*
X509708Y109518D01*
X509708Y111982D01*
X509708Y111709D02*
X511672Y111709D01*
X507172Y111982D02*
X505208Y111982D01*
X507172Y111982D02*
X507172Y109518D01*
X505208Y109518D01*
X505208Y111982D01*
X505208Y111709D02*
X507172Y111709D01*
X502672Y111982D02*
X500708Y111982D01*
X502672Y111982D02*
X502672Y109518D01*
X500708Y109518D01*
X500708Y111982D01*
X500708Y111709D02*
X502672Y111709D01*
X498172Y111982D02*
X496208Y111982D01*
X498172Y111982D02*
X498172Y109518D01*
X496208Y109518D01*
X496208Y111982D01*
X496208Y111709D02*
X498172Y111709D01*
X493672Y111982D02*
X491708Y111982D01*
X493672Y111982D02*
X493672Y109518D01*
X491708Y109518D01*
X491708Y111982D01*
X491708Y111709D02*
X493672Y111709D01*
X489172Y111982D02*
X487208Y111982D01*
X489172Y111982D02*
X489172Y109518D01*
X487208Y109518D01*
X487208Y111982D01*
X487208Y111709D02*
X489172Y111709D01*
X484672Y111982D02*
X482708Y111982D01*
X484672Y111982D02*
X484672Y109518D01*
X482708Y109518D01*
X482708Y111982D01*
X482708Y111709D02*
X484672Y111709D01*
X480172Y111982D02*
X478208Y111982D01*
X480172Y111982D02*
X480172Y109518D01*
X478208Y109518D01*
X478208Y111982D01*
X478208Y111709D02*
X480172Y111709D01*
X475672Y111982D02*
X473708Y111982D01*
X475672Y111982D02*
X475672Y109518D01*
X473708Y109518D01*
X473708Y111982D01*
X473708Y111709D02*
X475672Y111709D01*
X471172Y119018D02*
X471172Y120982D01*
X471172Y119018D02*
X468708Y119018D01*
X468708Y120982D01*
X471172Y120982D01*
X471172Y123518D02*
X471172Y125482D01*
X471172Y123518D02*
X468708Y123518D01*
X468708Y125482D01*
X471172Y125482D01*
X471172Y128018D02*
X471172Y129982D01*
X471172Y128018D02*
X468708Y128018D01*
X468708Y129982D01*
X471172Y129982D01*
X471172Y132518D02*
X471172Y134482D01*
X471172Y132518D02*
X468708Y132518D01*
X468708Y134482D01*
X471172Y134482D01*
X471172Y137018D02*
X471172Y138982D01*
X471172Y137018D02*
X468708Y137018D01*
X468708Y138982D01*
X471172Y138982D01*
X471172Y141518D02*
X471172Y143482D01*
X471172Y141518D02*
X468708Y141518D01*
X468708Y143482D01*
X471172Y143482D01*
X471172Y146018D02*
X471172Y147982D01*
X471172Y146018D02*
X468708Y146018D01*
X468708Y147982D01*
X471172Y147982D01*
X471172Y150518D02*
X471172Y152482D01*
X471172Y150518D02*
X468708Y150518D01*
X468708Y152482D01*
X471172Y152482D01*
X471172Y155018D02*
X471172Y156982D01*
X471172Y155018D02*
X468708Y155018D01*
X468708Y156982D01*
X471172Y156982D01*
X471172Y159518D02*
X471172Y161482D01*
X471172Y159518D02*
X468708Y159518D01*
X468708Y161482D01*
X471172Y161482D01*
X471172Y164018D02*
X471172Y165982D01*
X471172Y164018D02*
X468708Y164018D01*
X468708Y165982D01*
X471172Y165982D01*
X471172Y168518D02*
X471172Y170482D01*
X471172Y168518D02*
X468708Y168518D01*
X468708Y170482D01*
X471172Y170482D01*
X471172Y173018D02*
X471172Y174982D01*
X471172Y173018D02*
X468708Y173018D01*
X468708Y174982D01*
X471172Y174982D01*
X471172Y177518D02*
X471172Y179482D01*
X471172Y177518D02*
X468708Y177518D01*
X468708Y179482D01*
X471172Y179482D01*
D10*
X471180Y184490D02*
X468700Y184490D01*
X471180Y184490D02*
X471180Y182010D01*
X468700Y182010D01*
X468700Y184490D01*
X468700Y184185D02*
X471180Y184185D01*
D12*
X532208Y116482D02*
X534672Y116482D01*
X534672Y114518D01*
X532208Y114518D01*
X532208Y116482D01*
X534672Y119018D02*
X534672Y120982D01*
X534672Y119018D02*
X532208Y119018D01*
X532208Y120982D01*
X534672Y120982D01*
X534672Y123518D02*
X534672Y125482D01*
X534672Y123518D02*
X532208Y123518D01*
X532208Y125482D01*
X534672Y125482D01*
X534672Y128018D02*
X534672Y129982D01*
X534672Y128018D02*
X532208Y128018D01*
X532208Y129982D01*
X534672Y129982D01*
X534672Y132518D02*
X534672Y134482D01*
X534672Y132518D02*
X532208Y132518D01*
X532208Y134482D01*
X534672Y134482D01*
X534672Y137018D02*
X534672Y138982D01*
X534672Y137018D02*
X532208Y137018D01*
X532208Y138982D01*
X534672Y138982D01*
X534672Y141518D02*
X534672Y143482D01*
X534672Y141518D02*
X532208Y141518D01*
X532208Y143482D01*
X534672Y143482D01*
X534672Y146018D02*
X534672Y147982D01*
X534672Y146018D02*
X532208Y146018D01*
X532208Y147982D01*
X534672Y147982D01*
X534672Y150518D02*
X534672Y152482D01*
X534672Y150518D02*
X532208Y150518D01*
X532208Y152482D01*
X534672Y152482D01*
X534672Y155018D02*
X534672Y156982D01*
X534672Y155018D02*
X532208Y155018D01*
X532208Y156982D01*
X534672Y156982D01*
X534672Y159518D02*
X534672Y161482D01*
X534672Y159518D02*
X532208Y159518D01*
X532208Y161482D01*
X534672Y161482D01*
X534672Y164018D02*
X534672Y165982D01*
X534672Y164018D02*
X532208Y164018D01*
X532208Y165982D01*
X534672Y165982D01*
X534672Y168518D02*
X534672Y170482D01*
X534672Y168518D02*
X532208Y168518D01*
X532208Y170482D01*
X534672Y170482D01*
X534672Y173018D02*
X534672Y174982D01*
X534672Y173018D02*
X532208Y173018D01*
X532208Y174982D01*
X534672Y174982D01*
X534672Y177518D02*
X534672Y179482D01*
X534672Y177518D02*
X532208Y177518D01*
X532208Y179482D01*
X534672Y179482D01*
D10*
X534680Y184490D02*
X532200Y184490D01*
X534680Y184490D02*
X534680Y182010D01*
X532200Y182010D01*
X532200Y184490D01*
X532200Y184185D02*
X534680Y184185D01*
D12*
X529672Y184482D02*
X527708Y184482D01*
X529672Y184482D02*
X529672Y182018D01*
X527708Y182018D01*
X527708Y184482D01*
X527708Y184209D02*
X529672Y184209D01*
X525172Y184482D02*
X523208Y184482D01*
X525172Y184482D02*
X525172Y182018D01*
X523208Y182018D01*
X523208Y184482D01*
X523208Y184209D02*
X525172Y184209D01*
X520672Y184482D02*
X518708Y184482D01*
X520672Y184482D02*
X520672Y182018D01*
X518708Y182018D01*
X518708Y184482D01*
X518708Y184209D02*
X520672Y184209D01*
X516172Y184482D02*
X514208Y184482D01*
X516172Y184482D02*
X516172Y182018D01*
X514208Y182018D01*
X514208Y184482D01*
X514208Y184209D02*
X516172Y184209D01*
X511672Y184482D02*
X509708Y184482D01*
X511672Y184482D02*
X511672Y182018D01*
X509708Y182018D01*
X509708Y184482D01*
X509708Y184209D02*
X511672Y184209D01*
X507172Y184482D02*
X505208Y184482D01*
X507172Y184482D02*
X507172Y182018D01*
X505208Y182018D01*
X505208Y184482D01*
X505208Y184209D02*
X507172Y184209D01*
X502672Y184482D02*
X500708Y184482D01*
X502672Y184482D02*
X502672Y182018D01*
X500708Y182018D01*
X500708Y184482D01*
X500708Y184209D02*
X502672Y184209D01*
X498172Y184482D02*
X496208Y184482D01*
X498172Y184482D02*
X498172Y182018D01*
X496208Y182018D01*
X496208Y184482D01*
X496208Y184209D02*
X498172Y184209D01*
X493672Y184482D02*
X491708Y184482D01*
X493672Y184482D02*
X493672Y182018D01*
X491708Y182018D01*
X491708Y184482D01*
X491708Y184209D02*
X493672Y184209D01*
X489172Y184482D02*
X487208Y184482D01*
X489172Y184482D02*
X489172Y182018D01*
X487208Y182018D01*
X487208Y184482D01*
X487208Y184209D02*
X489172Y184209D01*
X484672Y184482D02*
X482708Y184482D01*
X484672Y184482D02*
X484672Y182018D01*
X482708Y182018D01*
X482708Y184482D01*
X482708Y184209D02*
X484672Y184209D01*
X480172Y184482D02*
X478208Y184482D01*
X480172Y184482D02*
X480172Y182018D01*
X478208Y182018D01*
X478208Y184482D01*
X478208Y184209D02*
X480172Y184209D01*
X475672Y184482D02*
X473708Y184482D01*
X475672Y184482D02*
X475672Y182018D01*
X473708Y182018D01*
X473708Y184482D01*
X473708Y184209D02*
X475672Y184209D01*
D13*
X485682Y172008D02*
X490698Y172008D01*
X490698Y166992D01*
X485682Y166992D01*
X485682Y172008D01*
X485682Y169133D02*
X490698Y169133D01*
X490698Y171274D02*
X485682Y171274D01*
X485682Y163008D02*
X490698Y163008D01*
X490698Y157992D01*
X485682Y157992D01*
X485682Y163008D01*
X485682Y160133D02*
X490698Y160133D01*
X490698Y162274D02*
X485682Y162274D01*
X485682Y154008D02*
X490698Y154008D01*
X490698Y148992D01*
X485682Y148992D01*
X485682Y154008D01*
X485682Y151133D02*
X490698Y151133D01*
X490698Y153274D02*
X485682Y153274D01*
X485682Y145008D02*
X490698Y145008D01*
X490698Y139992D01*
X485682Y139992D01*
X485682Y145008D01*
X485682Y142133D02*
X490698Y142133D01*
X490698Y144274D02*
X485682Y144274D01*
X485682Y136008D02*
X490698Y136008D01*
X490698Y130992D01*
X485682Y130992D01*
X485682Y136008D01*
X485682Y133133D02*
X490698Y133133D01*
X490698Y135274D02*
X485682Y135274D01*
X485682Y127008D02*
X490698Y127008D01*
X490698Y121992D01*
X485682Y121992D01*
X485682Y127008D01*
X485682Y124133D02*
X490698Y124133D01*
X490698Y126274D02*
X485682Y126274D01*
X494682Y127008D02*
X499698Y127008D01*
X499698Y121992D01*
X494682Y121992D01*
X494682Y127008D01*
X494682Y124133D02*
X499698Y124133D01*
X499698Y126274D02*
X494682Y126274D01*
X503682Y127008D02*
X508698Y127008D01*
X508698Y121992D01*
X503682Y121992D01*
X503682Y127008D01*
X503682Y124133D02*
X508698Y124133D01*
X508698Y126274D02*
X503682Y126274D01*
X512682Y127008D02*
X517698Y127008D01*
X517698Y121992D01*
X512682Y121992D01*
X512682Y127008D01*
X512682Y124133D02*
X517698Y124133D01*
X517698Y126274D02*
X512682Y126274D01*
X512682Y130992D02*
X517698Y130992D01*
X512682Y130992D02*
X512682Y136008D01*
X517698Y136008D01*
X517698Y130992D01*
X517698Y133133D02*
X512682Y133133D01*
X512682Y135274D02*
X517698Y135274D01*
X517698Y139992D02*
X512682Y139992D01*
X512682Y145008D01*
X517698Y145008D01*
X517698Y139992D01*
X517698Y142133D02*
X512682Y142133D01*
X512682Y144274D02*
X517698Y144274D01*
X517698Y148992D02*
X512682Y148992D01*
X512682Y154008D01*
X517698Y154008D01*
X517698Y148992D01*
X517698Y151133D02*
X512682Y151133D01*
X512682Y153274D02*
X517698Y153274D01*
X517698Y157992D02*
X512682Y157992D01*
X512682Y163008D01*
X517698Y163008D01*
X517698Y157992D01*
X517698Y160133D02*
X512682Y160133D01*
X512682Y162274D02*
X517698Y162274D01*
X517698Y166992D02*
X512682Y166992D01*
X512682Y172008D01*
X517698Y172008D01*
X517698Y166992D01*
X517698Y169133D02*
X512682Y169133D01*
X512682Y171274D02*
X517698Y171274D01*
X508698Y130992D02*
X503682Y130992D01*
X503682Y136008D01*
X508698Y136008D01*
X508698Y130992D01*
X508698Y133133D02*
X503682Y133133D01*
X503682Y135274D02*
X508698Y135274D01*
X508698Y139992D02*
X503682Y139992D01*
X503682Y145008D01*
X508698Y145008D01*
X508698Y139992D01*
X508698Y142133D02*
X503682Y142133D01*
X503682Y144274D02*
X508698Y144274D01*
X508698Y148992D02*
X503682Y148992D01*
X503682Y154008D01*
X508698Y154008D01*
X508698Y148992D01*
X508698Y151133D02*
X503682Y151133D01*
X503682Y153274D02*
X508698Y153274D01*
X508698Y157992D02*
X503682Y157992D01*
X503682Y163008D01*
X508698Y163008D01*
X508698Y157992D01*
X508698Y160133D02*
X503682Y160133D01*
X503682Y162274D02*
X508698Y162274D01*
X508698Y166992D02*
X503682Y166992D01*
X503682Y172008D01*
X508698Y172008D01*
X508698Y166992D01*
X508698Y169133D02*
X503682Y169133D01*
X503682Y171274D02*
X508698Y171274D01*
X499698Y130992D02*
X494682Y130992D01*
X494682Y136008D01*
X499698Y136008D01*
X499698Y130992D01*
X499698Y133133D02*
X494682Y133133D01*
X494682Y135274D02*
X499698Y135274D01*
X499698Y139992D02*
X494682Y139992D01*
X494682Y145008D01*
X499698Y145008D01*
X499698Y139992D01*
X499698Y142133D02*
X494682Y142133D01*
X494682Y144274D02*
X499698Y144274D01*
X499698Y148992D02*
X494682Y148992D01*
X494682Y154008D01*
X499698Y154008D01*
X499698Y148992D01*
X499698Y151133D02*
X494682Y151133D01*
X494682Y153274D02*
X499698Y153274D01*
X499698Y157992D02*
X494682Y157992D01*
X494682Y163008D01*
X499698Y163008D01*
X499698Y157992D01*
X499698Y160133D02*
X494682Y160133D01*
X494682Y162274D02*
X499698Y162274D01*
X499698Y166992D02*
X494682Y166992D01*
X494682Y172008D01*
X499698Y172008D01*
X499698Y166992D01*
X499698Y169133D02*
X494682Y169133D01*
X494682Y171274D02*
X499698Y171274D01*
D14*
X530547Y214493D02*
X533833Y214493D01*
X533833Y211207D01*
X530547Y211207D01*
X530547Y214493D01*
X530547Y213377D02*
X533833Y213377D01*
X472833Y214493D02*
X469547Y214493D01*
X472833Y214493D02*
X472833Y211207D01*
X469547Y211207D01*
X469547Y214493D01*
X469547Y213377D02*
X472833Y213377D01*
D13*
X463198Y74492D02*
X458182Y74492D01*
X458182Y79508D01*
X463198Y79508D01*
X463198Y74492D01*
X463198Y76633D02*
X458182Y76633D01*
X458182Y78774D02*
X463198Y78774D01*
X468182Y74492D02*
X473198Y74492D01*
X468182Y74492D02*
X468182Y79508D01*
X473198Y79508D01*
X473198Y74492D01*
X473198Y76633D02*
X468182Y76633D01*
X468182Y78774D02*
X473198Y78774D01*
D15*
X534714Y87524D02*
X534714Y94476D01*
X542666Y94476D01*
X542666Y87524D01*
X534714Y87524D01*
X534714Y89726D02*
X542666Y89726D01*
X542666Y91928D02*
X534714Y91928D01*
X534714Y94130D02*
X542666Y94130D01*
X534714Y75476D02*
X534714Y68524D01*
X534714Y75476D02*
X542666Y75476D01*
X542666Y68524D01*
X534714Y68524D01*
X534714Y70726D02*
X542666Y70726D01*
X542666Y72928D02*
X534714Y72928D01*
X534714Y75130D02*
X542666Y75130D01*
X555714Y78024D02*
X555714Y84976D01*
X563666Y84976D01*
X563666Y78024D01*
X555714Y78024D01*
X555714Y80226D02*
X563666Y80226D01*
X563666Y82428D02*
X555714Y82428D01*
X555714Y84630D02*
X563666Y84630D01*
D13*
X574698Y69508D02*
X574698Y64492D01*
X569682Y64492D01*
X569682Y69508D01*
X574698Y69508D01*
X574698Y66633D02*
X569682Y66633D01*
X569682Y68774D02*
X574698Y68774D01*
X574698Y74492D02*
X574698Y79508D01*
X574698Y74492D02*
X569682Y74492D01*
X569682Y79508D01*
X574698Y79508D01*
X574698Y76633D02*
X569682Y76633D01*
X569682Y78774D02*
X574698Y78774D01*
X524182Y79492D02*
X524182Y84508D01*
X529198Y84508D01*
X529198Y79492D01*
X524182Y79492D01*
X524182Y81633D02*
X529198Y81633D01*
X529198Y83774D02*
X524182Y83774D01*
X524182Y74508D02*
X524182Y69492D01*
X524182Y74508D02*
X529198Y74508D01*
X529198Y69492D01*
X524182Y69492D01*
X524182Y71633D02*
X529198Y71633D01*
X529198Y73774D02*
X524182Y73774D01*
D16*
X480692Y63498D02*
X477688Y63498D01*
X477688Y66502D01*
X480692Y66502D01*
X480692Y63498D01*
X480692Y65651D02*
X477688Y65651D01*
X466692Y63498D02*
X463688Y63498D01*
X463688Y66502D01*
X466692Y66502D01*
X466692Y63498D01*
X466692Y65651D02*
X463688Y65651D01*
D17*
X593697Y131043D02*
X593697Y135057D01*
X593697Y131043D02*
X586183Y131043D01*
X586183Y135057D01*
X593697Y135057D01*
X593697Y133187D02*
X586183Y133187D01*
X593697Y122357D02*
X593697Y118343D01*
X586183Y118343D01*
X586183Y122357D01*
X593697Y122357D01*
X593697Y120487D02*
X586183Y120487D01*
X593697Y109657D02*
X593697Y105643D01*
X586183Y105643D01*
X586183Y109657D01*
X593697Y109657D01*
X593697Y107787D02*
X586183Y107787D01*
X593697Y96957D02*
X593697Y92943D01*
X586183Y92943D01*
X586183Y96957D01*
X593697Y96957D01*
X593697Y95087D02*
X586183Y95087D01*
X649197Y105643D02*
X649197Y109657D01*
X649197Y105643D02*
X641683Y105643D01*
X641683Y109657D01*
X649197Y109657D01*
X649197Y107787D02*
X641683Y107787D01*
X649197Y96957D02*
X649197Y92943D01*
X641683Y92943D01*
X641683Y96957D01*
X649197Y96957D01*
X649197Y95087D02*
X641683Y95087D01*
X649197Y118343D02*
X649197Y122357D01*
X649197Y118343D02*
X641683Y118343D01*
X641683Y122357D01*
X649197Y122357D01*
X649197Y120487D02*
X641683Y120487D01*
X649197Y131043D02*
X649197Y135057D01*
X649197Y131043D02*
X641683Y131043D01*
X641683Y135057D01*
X649197Y135057D01*
X649197Y133187D02*
X641683Y133187D01*
D18*
X642914Y191506D02*
X642914Y198494D01*
X642914Y191506D02*
X635926Y191506D01*
X635926Y198494D01*
X642914Y198494D01*
X642914Y195575D02*
X635926Y195575D01*
X660454Y198494D02*
X660454Y191506D01*
X653466Y191506D01*
X653466Y198494D01*
X660454Y198494D01*
X660454Y195575D02*
X653466Y195575D01*
D13*
X652682Y177008D02*
X657698Y177008D01*
X657698Y171992D01*
X652682Y171992D01*
X652682Y177008D01*
X652682Y174133D02*
X657698Y174133D01*
X657698Y176274D02*
X652682Y176274D01*
X647698Y177008D02*
X642682Y177008D01*
X647698Y177008D02*
X647698Y171992D01*
X642682Y171992D01*
X642682Y177008D01*
X642682Y174133D02*
X647698Y174133D01*
X647698Y176274D02*
X642682Y176274D01*
X643182Y151508D02*
X648198Y151508D01*
X648198Y146492D01*
X643182Y146492D01*
X643182Y151508D01*
X643182Y148633D02*
X648198Y148633D01*
X648198Y150774D02*
X643182Y150774D01*
X638198Y151508D02*
X633182Y151508D01*
X638198Y151508D02*
X638198Y146492D01*
X633182Y146492D01*
X633182Y151508D01*
X633182Y148633D02*
X638198Y148633D01*
X638198Y150774D02*
X633182Y150774D01*
D19*
X457190Y47000D03*
X662190Y212000D03*
D10*
X18729Y679010D02*
X16249Y679010D01*
X16249Y692490D01*
X18729Y692490D01*
X18729Y679010D01*
X18729Y681185D02*
X16249Y681185D01*
X16249Y683360D02*
X18729Y683360D01*
X18729Y685535D02*
X16249Y685535D01*
X16249Y687710D02*
X18729Y687710D01*
X18729Y689885D02*
X16249Y689885D01*
X16249Y692060D02*
X18729Y692060D01*
X21249Y679010D02*
X23729Y679010D01*
X21249Y679010D02*
X21249Y692490D01*
X23729Y692490D01*
X23729Y679010D01*
X23729Y681185D02*
X21249Y681185D01*
X21249Y683360D02*
X23729Y683360D01*
X23729Y685535D02*
X21249Y685535D01*
X21249Y687710D02*
X23729Y687710D01*
X23729Y689885D02*
X21249Y689885D01*
X21249Y692060D02*
X23729Y692060D01*
X26249Y679010D02*
X28729Y679010D01*
X26249Y679010D02*
X26249Y692490D01*
X28729Y692490D01*
X28729Y679010D01*
X28729Y681185D02*
X26249Y681185D01*
X26249Y683360D02*
X28729Y683360D01*
X28729Y685535D02*
X26249Y685535D01*
X26249Y687710D02*
X28729Y687710D01*
X28729Y689885D02*
X26249Y689885D01*
X26249Y692060D02*
X28729Y692060D01*
X31249Y679010D02*
X33729Y679010D01*
X31249Y679010D02*
X31249Y692490D01*
X33729Y692490D01*
X33729Y679010D01*
X33729Y681185D02*
X31249Y681185D01*
X31249Y683360D02*
X33729Y683360D01*
X33729Y685535D02*
X31249Y685535D01*
X31249Y687710D02*
X33729Y687710D01*
X33729Y689885D02*
X31249Y689885D01*
X31249Y692060D02*
X33729Y692060D01*
X36249Y679010D02*
X38729Y679010D01*
X36249Y679010D02*
X36249Y692490D01*
X38729Y692490D01*
X38729Y679010D01*
X38729Y681185D02*
X36249Y681185D01*
X36249Y683360D02*
X38729Y683360D01*
X38729Y685535D02*
X36249Y685535D01*
X36249Y687710D02*
X38729Y687710D01*
X38729Y689885D02*
X36249Y689885D01*
X36249Y692060D02*
X38729Y692060D01*
X41249Y679010D02*
X43729Y679010D01*
X41249Y679010D02*
X41249Y692490D01*
X43729Y692490D01*
X43729Y679010D01*
X43729Y681185D02*
X41249Y681185D01*
X41249Y683360D02*
X43729Y683360D01*
X43729Y685535D02*
X41249Y685535D01*
X41249Y687710D02*
X43729Y687710D01*
X43729Y689885D02*
X41249Y689885D01*
X41249Y692060D02*
X43729Y692060D01*
X46249Y679010D02*
X48729Y679010D01*
X46249Y679010D02*
X46249Y692490D01*
X48729Y692490D01*
X48729Y679010D01*
X48729Y681185D02*
X46249Y681185D01*
X46249Y683360D02*
X48729Y683360D01*
X48729Y685535D02*
X46249Y685535D01*
X46249Y687710D02*
X48729Y687710D01*
X48729Y689885D02*
X46249Y689885D01*
X46249Y692060D02*
X48729Y692060D01*
X51249Y679010D02*
X53729Y679010D01*
X51249Y679010D02*
X51249Y692490D01*
X53729Y692490D01*
X53729Y679010D01*
X53729Y681185D02*
X51249Y681185D01*
X51249Y683360D02*
X53729Y683360D01*
X53729Y685535D02*
X51249Y685535D01*
X51249Y687710D02*
X53729Y687710D01*
X53729Y689885D02*
X51249Y689885D01*
X51249Y692060D02*
X53729Y692060D01*
X56249Y679010D02*
X58729Y679010D01*
X56249Y679010D02*
X56249Y692490D01*
X58729Y692490D01*
X58729Y679010D01*
X58729Y681185D02*
X56249Y681185D01*
X56249Y683360D02*
X58729Y683360D01*
X58729Y685535D02*
X56249Y685535D01*
X56249Y687710D02*
X58729Y687710D01*
X58729Y689885D02*
X56249Y689885D01*
X56249Y692060D02*
X58729Y692060D01*
X61249Y679010D02*
X63729Y679010D01*
X61249Y679010D02*
X61249Y692490D01*
X63729Y692490D01*
X63729Y679010D01*
X63729Y681185D02*
X61249Y681185D01*
X61249Y683360D02*
X63729Y683360D01*
X63729Y685535D02*
X61249Y685535D01*
X61249Y687710D02*
X63729Y687710D01*
X63729Y689885D02*
X61249Y689885D01*
X61249Y692060D02*
X63729Y692060D01*
X66249Y679010D02*
X68729Y679010D01*
X66249Y679010D02*
X66249Y692490D01*
X68729Y692490D01*
X68729Y679010D01*
X68729Y681185D02*
X66249Y681185D01*
X66249Y683360D02*
X68729Y683360D01*
X68729Y685535D02*
X66249Y685535D01*
X66249Y687710D02*
X68729Y687710D01*
X68729Y689885D02*
X66249Y689885D01*
X66249Y692060D02*
X68729Y692060D01*
X71249Y679010D02*
X73729Y679010D01*
X71249Y679010D02*
X71249Y692490D01*
X73729Y692490D01*
X73729Y679010D01*
X73729Y681185D02*
X71249Y681185D01*
X71249Y683360D02*
X73729Y683360D01*
X73729Y685535D02*
X71249Y685535D01*
X71249Y687710D02*
X73729Y687710D01*
X73729Y689885D02*
X71249Y689885D01*
X71249Y692060D02*
X73729Y692060D01*
X96249Y679010D02*
X98729Y679010D01*
X96249Y679010D02*
X96249Y692490D01*
X98729Y692490D01*
X98729Y679010D01*
X98729Y681185D02*
X96249Y681185D01*
X96249Y683360D02*
X98729Y683360D01*
X98729Y685535D02*
X96249Y685535D01*
X96249Y687710D02*
X98729Y687710D01*
X98729Y689885D02*
X96249Y689885D01*
X96249Y692060D02*
X98729Y692060D01*
X101249Y679010D02*
X103729Y679010D01*
X101249Y679010D02*
X101249Y692490D01*
X103729Y692490D01*
X103729Y679010D01*
X103729Y681185D02*
X101249Y681185D01*
X101249Y683360D02*
X103729Y683360D01*
X103729Y685535D02*
X101249Y685535D01*
X101249Y687710D02*
X103729Y687710D01*
X103729Y689885D02*
X101249Y689885D01*
X101249Y692060D02*
X103729Y692060D01*
X106249Y679010D02*
X108729Y679010D01*
X106249Y679010D02*
X106249Y692490D01*
X108729Y692490D01*
X108729Y679010D01*
X108729Y681185D02*
X106249Y681185D01*
X106249Y683360D02*
X108729Y683360D01*
X108729Y685535D02*
X106249Y685535D01*
X106249Y687710D02*
X108729Y687710D01*
X108729Y689885D02*
X106249Y689885D01*
X106249Y692060D02*
X108729Y692060D01*
X111249Y679010D02*
X113729Y679010D01*
X111249Y679010D02*
X111249Y692490D01*
X113729Y692490D01*
X113729Y679010D01*
X113729Y681185D02*
X111249Y681185D01*
X111249Y683360D02*
X113729Y683360D01*
X113729Y685535D02*
X111249Y685535D01*
X111249Y687710D02*
X113729Y687710D01*
X113729Y689885D02*
X111249Y689885D01*
X111249Y692060D02*
X113729Y692060D01*
X116249Y679010D02*
X118729Y679010D01*
X116249Y679010D02*
X116249Y692490D01*
X118729Y692490D01*
X118729Y679010D01*
X118729Y681185D02*
X116249Y681185D01*
X116249Y683360D02*
X118729Y683360D01*
X118729Y685535D02*
X116249Y685535D01*
X116249Y687710D02*
X118729Y687710D01*
X118729Y689885D02*
X116249Y689885D01*
X116249Y692060D02*
X118729Y692060D01*
X121249Y679010D02*
X123729Y679010D01*
X121249Y679010D02*
X121249Y692490D01*
X123729Y692490D01*
X123729Y679010D01*
X123729Y681185D02*
X121249Y681185D01*
X121249Y683360D02*
X123729Y683360D01*
X123729Y685535D02*
X121249Y685535D01*
X121249Y687710D02*
X123729Y687710D01*
X123729Y689885D02*
X121249Y689885D01*
X121249Y692060D02*
X123729Y692060D01*
X126249Y679010D02*
X128729Y679010D01*
X126249Y679010D02*
X126249Y692490D01*
X128729Y692490D01*
X128729Y679010D01*
X128729Y681185D02*
X126249Y681185D01*
X126249Y683360D02*
X128729Y683360D01*
X128729Y685535D02*
X126249Y685535D01*
X126249Y687710D02*
X128729Y687710D01*
X128729Y689885D02*
X126249Y689885D01*
X126249Y692060D02*
X128729Y692060D01*
X131249Y679010D02*
X133729Y679010D01*
X131249Y679010D02*
X131249Y692490D01*
X133729Y692490D01*
X133729Y679010D01*
X133729Y681185D02*
X131249Y681185D01*
X131249Y683360D02*
X133729Y683360D01*
X133729Y685535D02*
X131249Y685535D01*
X131249Y687710D02*
X133729Y687710D01*
X133729Y689885D02*
X131249Y689885D01*
X131249Y692060D02*
X133729Y692060D01*
X136249Y679010D02*
X138729Y679010D01*
X136249Y679010D02*
X136249Y692490D01*
X138729Y692490D01*
X138729Y679010D01*
X138729Y681185D02*
X136249Y681185D01*
X136249Y683360D02*
X138729Y683360D01*
X138729Y685535D02*
X136249Y685535D01*
X136249Y687710D02*
X138729Y687710D01*
X138729Y689885D02*
X136249Y689885D01*
X136249Y692060D02*
X138729Y692060D01*
X141249Y679010D02*
X143729Y679010D01*
X141249Y679010D02*
X141249Y692490D01*
X143729Y692490D01*
X143729Y679010D01*
X143729Y681185D02*
X141249Y681185D01*
X141249Y683360D02*
X143729Y683360D01*
X143729Y685535D02*
X141249Y685535D01*
X141249Y687710D02*
X143729Y687710D01*
X143729Y689885D02*
X141249Y689885D01*
X141249Y692060D02*
X143729Y692060D01*
X146249Y679010D02*
X148729Y679010D01*
X146249Y679010D02*
X146249Y692490D01*
X148729Y692490D01*
X148729Y679010D01*
X148729Y681185D02*
X146249Y681185D01*
X146249Y683360D02*
X148729Y683360D01*
X148729Y685535D02*
X146249Y685535D01*
X146249Y687710D02*
X148729Y687710D01*
X148729Y689885D02*
X146249Y689885D01*
X146249Y692060D02*
X148729Y692060D01*
X151249Y679010D02*
X153729Y679010D01*
X151249Y679010D02*
X151249Y692490D01*
X153729Y692490D01*
X153729Y679010D01*
X153729Y681185D02*
X151249Y681185D01*
X151249Y683360D02*
X153729Y683360D01*
X153729Y685535D02*
X151249Y685535D01*
X151249Y687710D02*
X153729Y687710D01*
X153729Y689885D02*
X151249Y689885D01*
X151249Y692060D02*
X153729Y692060D01*
X156249Y679010D02*
X158729Y679010D01*
X156249Y679010D02*
X156249Y692490D01*
X158729Y692490D01*
X158729Y679010D01*
X158729Y681185D02*
X156249Y681185D01*
X156249Y683360D02*
X158729Y683360D01*
X158729Y685535D02*
X156249Y685535D01*
X156249Y687710D02*
X158729Y687710D01*
X158729Y689885D02*
X156249Y689885D01*
X156249Y692060D02*
X158729Y692060D01*
X161249Y679010D02*
X163729Y679010D01*
X161249Y679010D02*
X161249Y692490D01*
X163729Y692490D01*
X163729Y679010D01*
X163729Y681185D02*
X161249Y681185D01*
X161249Y683360D02*
X163729Y683360D01*
X163729Y685535D02*
X161249Y685535D01*
X161249Y687710D02*
X163729Y687710D01*
X163729Y689885D02*
X161249Y689885D01*
X161249Y692060D02*
X163729Y692060D01*
X166249Y679010D02*
X168729Y679010D01*
X166249Y679010D02*
X166249Y692490D01*
X168729Y692490D01*
X168729Y679010D01*
X168729Y681185D02*
X166249Y681185D01*
X166249Y683360D02*
X168729Y683360D01*
X168729Y685535D02*
X166249Y685535D01*
X166249Y687710D02*
X168729Y687710D01*
X168729Y689885D02*
X166249Y689885D01*
X166249Y692060D02*
X168729Y692060D01*
X171249Y679010D02*
X173729Y679010D01*
X171249Y679010D02*
X171249Y692490D01*
X173729Y692490D01*
X173729Y679010D01*
X173729Y681185D02*
X171249Y681185D01*
X171249Y683360D02*
X173729Y683360D01*
X173729Y685535D02*
X171249Y685535D01*
X171249Y687710D02*
X173729Y687710D01*
X173729Y689885D02*
X171249Y689885D01*
X171249Y692060D02*
X173729Y692060D01*
X176249Y679010D02*
X178729Y679010D01*
X176249Y679010D02*
X176249Y692490D01*
X178729Y692490D01*
X178729Y679010D01*
X178729Y681185D02*
X176249Y681185D01*
X176249Y683360D02*
X178729Y683360D01*
X178729Y685535D02*
X176249Y685535D01*
X176249Y687710D02*
X178729Y687710D01*
X178729Y689885D02*
X176249Y689885D01*
X176249Y692060D02*
X178729Y692060D01*
X181249Y679010D02*
X183729Y679010D01*
X181249Y679010D02*
X181249Y692490D01*
X183729Y692490D01*
X183729Y679010D01*
X183729Y681185D02*
X181249Y681185D01*
X181249Y683360D02*
X183729Y683360D01*
X183729Y685535D02*
X181249Y685535D01*
X181249Y687710D02*
X183729Y687710D01*
X183729Y689885D02*
X181249Y689885D01*
X181249Y692060D02*
X183729Y692060D01*
X186249Y679010D02*
X188729Y679010D01*
X186249Y679010D02*
X186249Y692490D01*
X188729Y692490D01*
X188729Y679010D01*
X188729Y681185D02*
X186249Y681185D01*
X186249Y683360D02*
X188729Y683360D01*
X188729Y685535D02*
X186249Y685535D01*
X186249Y687710D02*
X188729Y687710D01*
X188729Y689885D02*
X186249Y689885D01*
X186249Y692060D02*
X188729Y692060D01*
X191249Y679010D02*
X193729Y679010D01*
X191249Y679010D02*
X191249Y692490D01*
X193729Y692490D01*
X193729Y679010D01*
X193729Y681185D02*
X191249Y681185D01*
X191249Y683360D02*
X193729Y683360D01*
X193729Y685535D02*
X191249Y685535D01*
X191249Y687710D02*
X193729Y687710D01*
X193729Y689885D02*
X191249Y689885D01*
X191249Y692060D02*
X193729Y692060D01*
X196249Y679010D02*
X198729Y679010D01*
X196249Y679010D02*
X196249Y692490D01*
X198729Y692490D01*
X198729Y679010D01*
X198729Y681185D02*
X196249Y681185D01*
X196249Y683360D02*
X198729Y683360D01*
X198729Y685535D02*
X196249Y685535D01*
X196249Y687710D02*
X198729Y687710D01*
X198729Y689885D02*
X196249Y689885D01*
X196249Y692060D02*
X198729Y692060D01*
X201249Y679010D02*
X203729Y679010D01*
X201249Y679010D02*
X201249Y692490D01*
X203729Y692490D01*
X203729Y679010D01*
X203729Y681185D02*
X201249Y681185D01*
X201249Y683360D02*
X203729Y683360D01*
X203729Y685535D02*
X201249Y685535D01*
X201249Y687710D02*
X203729Y687710D01*
X203729Y689885D02*
X201249Y689885D01*
X201249Y692060D02*
X203729Y692060D01*
D11*
X90989Y488500D03*
X48989Y488500D03*
X69989Y501500D03*
D10*
X135499Y586510D02*
X137979Y586510D01*
X135499Y586510D02*
X135499Y588990D01*
X137979Y588990D01*
X137979Y586510D01*
X137979Y588685D02*
X135499Y588685D01*
X198999Y586510D02*
X201479Y586510D01*
X198999Y586510D02*
X198999Y588990D01*
X201479Y588990D01*
X201479Y586510D01*
X201479Y588685D02*
X198999Y588685D01*
D12*
X199007Y582018D02*
X201471Y582018D01*
X199007Y582018D02*
X199007Y583982D01*
X201471Y583982D01*
X201471Y582018D01*
X142471Y586518D02*
X140507Y586518D01*
X140507Y588982D01*
X142471Y588982D01*
X142471Y586518D01*
X142471Y588709D02*
X140507Y588709D01*
X145007Y586518D02*
X146971Y586518D01*
X145007Y586518D02*
X145007Y588982D01*
X146971Y588982D01*
X146971Y586518D01*
X146971Y588709D02*
X145007Y588709D01*
X149507Y586518D02*
X151471Y586518D01*
X149507Y586518D02*
X149507Y588982D01*
X151471Y588982D01*
X151471Y586518D01*
X151471Y588709D02*
X149507Y588709D01*
X154007Y586518D02*
X155971Y586518D01*
X154007Y586518D02*
X154007Y588982D01*
X155971Y588982D01*
X155971Y586518D01*
X155971Y588709D02*
X154007Y588709D01*
X158507Y586518D02*
X160471Y586518D01*
X158507Y586518D02*
X158507Y588982D01*
X160471Y588982D01*
X160471Y586518D01*
X160471Y588709D02*
X158507Y588709D01*
X163007Y586518D02*
X164971Y586518D01*
X163007Y586518D02*
X163007Y588982D01*
X164971Y588982D01*
X164971Y586518D01*
X164971Y588709D02*
X163007Y588709D01*
X167507Y586518D02*
X169471Y586518D01*
X167507Y586518D02*
X167507Y588982D01*
X169471Y588982D01*
X169471Y586518D01*
X169471Y588709D02*
X167507Y588709D01*
X172007Y586518D02*
X173971Y586518D01*
X172007Y586518D02*
X172007Y588982D01*
X173971Y588982D01*
X173971Y586518D01*
X173971Y588709D02*
X172007Y588709D01*
X176507Y586518D02*
X178471Y586518D01*
X176507Y586518D02*
X176507Y588982D01*
X178471Y588982D01*
X178471Y586518D01*
X178471Y588709D02*
X176507Y588709D01*
X181007Y586518D02*
X182971Y586518D01*
X181007Y586518D02*
X181007Y588982D01*
X182971Y588982D01*
X182971Y586518D01*
X182971Y588709D02*
X181007Y588709D01*
X185507Y586518D02*
X187471Y586518D01*
X185507Y586518D02*
X185507Y588982D01*
X187471Y588982D01*
X187471Y586518D01*
X187471Y588709D02*
X185507Y588709D01*
X190007Y586518D02*
X191971Y586518D01*
X190007Y586518D02*
X190007Y588982D01*
X191971Y588982D01*
X191971Y586518D01*
X191971Y588709D02*
X190007Y588709D01*
X194507Y586518D02*
X196471Y586518D01*
X194507Y586518D02*
X194507Y588982D01*
X196471Y588982D01*
X196471Y586518D01*
X196471Y588709D02*
X194507Y588709D01*
X199007Y579482D02*
X199007Y577518D01*
X199007Y579482D02*
X201471Y579482D01*
X201471Y577518D01*
X199007Y577518D01*
X199007Y574982D02*
X199007Y573018D01*
X199007Y574982D02*
X201471Y574982D01*
X201471Y573018D01*
X199007Y573018D01*
X199007Y570482D02*
X199007Y568518D01*
X199007Y570482D02*
X201471Y570482D01*
X201471Y568518D01*
X199007Y568518D01*
X199007Y565982D02*
X199007Y564018D01*
X199007Y565982D02*
X201471Y565982D01*
X201471Y564018D01*
X199007Y564018D01*
X199007Y561482D02*
X199007Y559518D01*
X199007Y561482D02*
X201471Y561482D01*
X201471Y559518D01*
X199007Y559518D01*
X199007Y556982D02*
X199007Y555018D01*
X199007Y556982D02*
X201471Y556982D01*
X201471Y555018D01*
X199007Y555018D01*
X199007Y552482D02*
X199007Y550518D01*
X199007Y552482D02*
X201471Y552482D01*
X201471Y550518D01*
X199007Y550518D01*
X199007Y547982D02*
X199007Y546018D01*
X199007Y547982D02*
X201471Y547982D01*
X201471Y546018D01*
X199007Y546018D01*
X199007Y543482D02*
X199007Y541518D01*
X199007Y543482D02*
X201471Y543482D01*
X201471Y541518D01*
X199007Y541518D01*
X199007Y538982D02*
X199007Y537018D01*
X199007Y538982D02*
X201471Y538982D01*
X201471Y537018D01*
X199007Y537018D01*
X199007Y534482D02*
X199007Y532518D01*
X199007Y534482D02*
X201471Y534482D01*
X201471Y532518D01*
X199007Y532518D01*
X199007Y529982D02*
X199007Y528018D01*
X199007Y529982D02*
X201471Y529982D01*
X201471Y528018D01*
X199007Y528018D01*
X199007Y525482D02*
X199007Y523518D01*
X199007Y525482D02*
X201471Y525482D01*
X201471Y523518D01*
X199007Y523518D01*
X199007Y520982D02*
X199007Y519018D01*
X199007Y520982D02*
X201471Y520982D01*
X201471Y519018D01*
X199007Y519018D01*
D10*
X198999Y514010D02*
X201479Y514010D01*
X198999Y514010D02*
X198999Y516490D01*
X201479Y516490D01*
X201479Y514010D01*
X201479Y516185D02*
X198999Y516185D01*
D12*
X137971Y582018D02*
X135507Y582018D01*
X135507Y583982D01*
X137971Y583982D01*
X137971Y582018D01*
X135507Y579482D02*
X135507Y577518D01*
X135507Y579482D02*
X137971Y579482D01*
X137971Y577518D01*
X135507Y577518D01*
X135507Y574982D02*
X135507Y573018D01*
X135507Y574982D02*
X137971Y574982D01*
X137971Y573018D01*
X135507Y573018D01*
X135507Y570482D02*
X135507Y568518D01*
X135507Y570482D02*
X137971Y570482D01*
X137971Y568518D01*
X135507Y568518D01*
X135507Y565982D02*
X135507Y564018D01*
X135507Y565982D02*
X137971Y565982D01*
X137971Y564018D01*
X135507Y564018D01*
X135507Y561482D02*
X135507Y559518D01*
X135507Y561482D02*
X137971Y561482D01*
X137971Y559518D01*
X135507Y559518D01*
X135507Y556982D02*
X135507Y555018D01*
X135507Y556982D02*
X137971Y556982D01*
X137971Y555018D01*
X135507Y555018D01*
X135507Y552482D02*
X135507Y550518D01*
X135507Y552482D02*
X137971Y552482D01*
X137971Y550518D01*
X135507Y550518D01*
X135507Y547982D02*
X135507Y546018D01*
X135507Y547982D02*
X137971Y547982D01*
X137971Y546018D01*
X135507Y546018D01*
X135507Y543482D02*
X135507Y541518D01*
X135507Y543482D02*
X137971Y543482D01*
X137971Y541518D01*
X135507Y541518D01*
X135507Y538982D02*
X135507Y537018D01*
X135507Y538982D02*
X137971Y538982D01*
X137971Y537018D01*
X135507Y537018D01*
X135507Y534482D02*
X135507Y532518D01*
X135507Y534482D02*
X137971Y534482D01*
X137971Y532518D01*
X135507Y532518D01*
X135507Y529982D02*
X135507Y528018D01*
X135507Y529982D02*
X137971Y529982D01*
X137971Y528018D01*
X135507Y528018D01*
X135507Y525482D02*
X135507Y523518D01*
X135507Y525482D02*
X137971Y525482D01*
X137971Y523518D01*
X135507Y523518D01*
X135507Y520982D02*
X135507Y519018D01*
X135507Y520982D02*
X137971Y520982D01*
X137971Y519018D01*
X135507Y519018D01*
D10*
X135499Y514010D02*
X137979Y514010D01*
X135499Y514010D02*
X135499Y516490D01*
X137979Y516490D01*
X137979Y514010D01*
X137979Y516185D02*
X135499Y516185D01*
D12*
X140507Y514018D02*
X142471Y514018D01*
X140507Y514018D02*
X140507Y516482D01*
X142471Y516482D01*
X142471Y514018D01*
X142471Y516209D02*
X140507Y516209D01*
X145007Y514018D02*
X146971Y514018D01*
X145007Y514018D02*
X145007Y516482D01*
X146971Y516482D01*
X146971Y514018D01*
X146971Y516209D02*
X145007Y516209D01*
X149507Y514018D02*
X151471Y514018D01*
X149507Y514018D02*
X149507Y516482D01*
X151471Y516482D01*
X151471Y514018D01*
X151471Y516209D02*
X149507Y516209D01*
X154007Y514018D02*
X155971Y514018D01*
X154007Y514018D02*
X154007Y516482D01*
X155971Y516482D01*
X155971Y514018D01*
X155971Y516209D02*
X154007Y516209D01*
X158507Y514018D02*
X160471Y514018D01*
X158507Y514018D02*
X158507Y516482D01*
X160471Y516482D01*
X160471Y514018D01*
X160471Y516209D02*
X158507Y516209D01*
X163007Y514018D02*
X164971Y514018D01*
X163007Y514018D02*
X163007Y516482D01*
X164971Y516482D01*
X164971Y514018D01*
X164971Y516209D02*
X163007Y516209D01*
X167507Y514018D02*
X169471Y514018D01*
X167507Y514018D02*
X167507Y516482D01*
X169471Y516482D01*
X169471Y514018D01*
X169471Y516209D02*
X167507Y516209D01*
X172007Y514018D02*
X173971Y514018D01*
X172007Y514018D02*
X172007Y516482D01*
X173971Y516482D01*
X173971Y514018D01*
X173971Y516209D02*
X172007Y516209D01*
X176507Y514018D02*
X178471Y514018D01*
X176507Y514018D02*
X176507Y516482D01*
X178471Y516482D01*
X178471Y514018D01*
X178471Y516209D02*
X176507Y516209D01*
X181007Y514018D02*
X182971Y514018D01*
X181007Y514018D02*
X181007Y516482D01*
X182971Y516482D01*
X182971Y514018D01*
X182971Y516209D02*
X181007Y516209D01*
X185507Y514018D02*
X187471Y514018D01*
X185507Y514018D02*
X185507Y516482D01*
X187471Y516482D01*
X187471Y514018D01*
X187471Y516209D02*
X185507Y516209D01*
X190007Y514018D02*
X191971Y514018D01*
X190007Y514018D02*
X190007Y516482D01*
X191971Y516482D01*
X191971Y514018D01*
X191971Y516209D02*
X190007Y516209D01*
X194507Y514018D02*
X196471Y514018D01*
X194507Y514018D02*
X194507Y516482D01*
X196471Y516482D01*
X196471Y514018D01*
X196471Y516209D02*
X194507Y516209D01*
D13*
X184497Y526492D02*
X179481Y526492D01*
X179481Y531508D01*
X184497Y531508D01*
X184497Y526492D01*
X184497Y528633D02*
X179481Y528633D01*
X179481Y530774D02*
X184497Y530774D01*
X184497Y535492D02*
X179481Y535492D01*
X179481Y540508D01*
X184497Y540508D01*
X184497Y535492D01*
X184497Y537633D02*
X179481Y537633D01*
X179481Y539774D02*
X184497Y539774D01*
X184497Y544492D02*
X179481Y544492D01*
X179481Y549508D01*
X184497Y549508D01*
X184497Y544492D01*
X184497Y546633D02*
X179481Y546633D01*
X179481Y548774D02*
X184497Y548774D01*
X184497Y553492D02*
X179481Y553492D01*
X179481Y558508D01*
X184497Y558508D01*
X184497Y553492D01*
X184497Y555633D02*
X179481Y555633D01*
X179481Y557774D02*
X184497Y557774D01*
X184497Y562492D02*
X179481Y562492D01*
X179481Y567508D01*
X184497Y567508D01*
X184497Y562492D01*
X184497Y564633D02*
X179481Y564633D01*
X179481Y566774D02*
X184497Y566774D01*
X184497Y571492D02*
X179481Y571492D01*
X179481Y576508D01*
X184497Y576508D01*
X184497Y571492D01*
X184497Y573633D02*
X179481Y573633D01*
X179481Y575774D02*
X184497Y575774D01*
X175497Y571492D02*
X170481Y571492D01*
X170481Y576508D01*
X175497Y576508D01*
X175497Y571492D01*
X175497Y573633D02*
X170481Y573633D01*
X170481Y575774D02*
X175497Y575774D01*
X166497Y571492D02*
X161481Y571492D01*
X161481Y576508D01*
X166497Y576508D01*
X166497Y571492D01*
X166497Y573633D02*
X161481Y573633D01*
X161481Y575774D02*
X166497Y575774D01*
X157497Y571492D02*
X152481Y571492D01*
X152481Y576508D01*
X157497Y576508D01*
X157497Y571492D01*
X157497Y573633D02*
X152481Y573633D01*
X152481Y575774D02*
X157497Y575774D01*
X157497Y567508D02*
X152481Y567508D01*
X157497Y567508D02*
X157497Y562492D01*
X152481Y562492D01*
X152481Y567508D01*
X152481Y564633D02*
X157497Y564633D01*
X157497Y566774D02*
X152481Y566774D01*
X152481Y558508D02*
X157497Y558508D01*
X157497Y553492D01*
X152481Y553492D01*
X152481Y558508D01*
X152481Y555633D02*
X157497Y555633D01*
X157497Y557774D02*
X152481Y557774D01*
X152481Y549508D02*
X157497Y549508D01*
X157497Y544492D01*
X152481Y544492D01*
X152481Y549508D01*
X152481Y546633D02*
X157497Y546633D01*
X157497Y548774D02*
X152481Y548774D01*
X152481Y540508D02*
X157497Y540508D01*
X157497Y535492D01*
X152481Y535492D01*
X152481Y540508D01*
X152481Y537633D02*
X157497Y537633D01*
X157497Y539774D02*
X152481Y539774D01*
X152481Y531508D02*
X157497Y531508D01*
X157497Y526492D01*
X152481Y526492D01*
X152481Y531508D01*
X152481Y528633D02*
X157497Y528633D01*
X157497Y530774D02*
X152481Y530774D01*
X161481Y567508D02*
X166497Y567508D01*
X166497Y562492D01*
X161481Y562492D01*
X161481Y567508D01*
X161481Y564633D02*
X166497Y564633D01*
X166497Y566774D02*
X161481Y566774D01*
X161481Y558508D02*
X166497Y558508D01*
X166497Y553492D01*
X161481Y553492D01*
X161481Y558508D01*
X161481Y555633D02*
X166497Y555633D01*
X166497Y557774D02*
X161481Y557774D01*
X161481Y549508D02*
X166497Y549508D01*
X166497Y544492D01*
X161481Y544492D01*
X161481Y549508D01*
X161481Y546633D02*
X166497Y546633D01*
X166497Y548774D02*
X161481Y548774D01*
X161481Y540508D02*
X166497Y540508D01*
X166497Y535492D01*
X161481Y535492D01*
X161481Y540508D01*
X161481Y537633D02*
X166497Y537633D01*
X166497Y539774D02*
X161481Y539774D01*
X161481Y531508D02*
X166497Y531508D01*
X166497Y526492D01*
X161481Y526492D01*
X161481Y531508D01*
X161481Y528633D02*
X166497Y528633D01*
X166497Y530774D02*
X161481Y530774D01*
X170481Y567508D02*
X175497Y567508D01*
X175497Y562492D01*
X170481Y562492D01*
X170481Y567508D01*
X170481Y564633D02*
X175497Y564633D01*
X175497Y566774D02*
X170481Y566774D01*
X170481Y558508D02*
X175497Y558508D01*
X175497Y553492D01*
X170481Y553492D01*
X170481Y558508D01*
X170481Y555633D02*
X175497Y555633D01*
X175497Y557774D02*
X170481Y557774D01*
X170481Y549508D02*
X175497Y549508D01*
X175497Y544492D01*
X170481Y544492D01*
X170481Y549508D01*
X170481Y546633D02*
X175497Y546633D01*
X175497Y548774D02*
X170481Y548774D01*
X170481Y540508D02*
X175497Y540508D01*
X175497Y535492D01*
X170481Y535492D01*
X170481Y540508D01*
X170481Y537633D02*
X175497Y537633D01*
X175497Y539774D02*
X170481Y539774D01*
X170481Y531508D02*
X175497Y531508D01*
X175497Y526492D01*
X170481Y526492D01*
X170481Y531508D01*
X170481Y528633D02*
X175497Y528633D01*
X175497Y530774D02*
X170481Y530774D01*
D14*
X139632Y484007D02*
X136346Y484007D01*
X136346Y487293D01*
X139632Y487293D01*
X139632Y484007D01*
X139632Y486177D02*
X136346Y486177D01*
X197346Y484007D02*
X200632Y484007D01*
X197346Y484007D02*
X197346Y487293D01*
X200632Y487293D01*
X200632Y484007D01*
X200632Y486177D02*
X197346Y486177D01*
D13*
X206981Y624008D02*
X211997Y624008D01*
X211997Y618992D01*
X206981Y618992D01*
X206981Y624008D01*
X206981Y621133D02*
X211997Y621133D01*
X211997Y623274D02*
X206981Y623274D01*
X201997Y624008D02*
X196981Y624008D01*
X201997Y624008D02*
X201997Y618992D01*
X196981Y618992D01*
X196981Y624008D01*
X196981Y621133D02*
X201997Y621133D01*
X201997Y623274D02*
X196981Y623274D01*
D15*
X135465Y610976D02*
X135465Y604024D01*
X127513Y604024D01*
X127513Y610976D01*
X135465Y610976D01*
X135465Y606226D02*
X127513Y606226D01*
X127513Y608428D02*
X135465Y608428D01*
X135465Y610630D02*
X127513Y610630D01*
X135465Y623024D02*
X135465Y629976D01*
X135465Y623024D02*
X127513Y623024D01*
X127513Y629976D01*
X135465Y629976D01*
X135465Y625226D02*
X127513Y625226D01*
X127513Y627428D02*
X135465Y627428D01*
X135465Y629630D02*
X127513Y629630D01*
X114465Y620476D02*
X114465Y613524D01*
X106513Y613524D01*
X106513Y620476D01*
X114465Y620476D01*
X114465Y615726D02*
X106513Y615726D01*
X106513Y617928D02*
X114465Y617928D01*
X114465Y620130D02*
X106513Y620130D01*
D13*
X95481Y628992D02*
X95481Y634008D01*
X100497Y634008D01*
X100497Y628992D01*
X95481Y628992D01*
X95481Y631133D02*
X100497Y631133D01*
X100497Y633274D02*
X95481Y633274D01*
X95481Y624008D02*
X95481Y618992D01*
X95481Y624008D02*
X100497Y624008D01*
X100497Y618992D01*
X95481Y618992D01*
X95481Y621133D02*
X100497Y621133D01*
X100497Y623274D02*
X95481Y623274D01*
X145997Y619008D02*
X145997Y613992D01*
X140981Y613992D01*
X140981Y619008D01*
X145997Y619008D01*
X145997Y616133D02*
X140981Y616133D01*
X140981Y618274D02*
X145997Y618274D01*
X145997Y623992D02*
X145997Y629008D01*
X145997Y623992D02*
X140981Y623992D01*
X140981Y629008D01*
X145997Y629008D01*
X145997Y626133D02*
X140981Y626133D01*
X140981Y628274D02*
X145997Y628274D01*
D16*
X189487Y635002D02*
X192491Y635002D01*
X192491Y631998D01*
X189487Y631998D01*
X189487Y635002D01*
X189487Y634151D02*
X192491Y634151D01*
X203487Y635002D02*
X206491Y635002D01*
X206491Y631998D01*
X203487Y631998D01*
X203487Y635002D01*
X203487Y634151D02*
X206491Y634151D01*
D17*
X76482Y567457D02*
X76482Y563443D01*
X76482Y567457D02*
X83996Y567457D01*
X83996Y563443D01*
X76482Y563443D01*
X76482Y565587D02*
X83996Y565587D01*
X76482Y576143D02*
X76482Y580157D01*
X83996Y580157D01*
X83996Y576143D01*
X76482Y576143D01*
X76482Y578287D02*
X83996Y578287D01*
X76482Y588843D02*
X76482Y592857D01*
X83996Y592857D01*
X83996Y588843D01*
X76482Y588843D01*
X76482Y590987D02*
X83996Y590987D01*
X76482Y601543D02*
X76482Y605557D01*
X83996Y605557D01*
X83996Y601543D01*
X76482Y601543D01*
X76482Y603687D02*
X83996Y603687D01*
X20982Y592857D02*
X20982Y588843D01*
X20982Y592857D02*
X28496Y592857D01*
X28496Y588843D01*
X20982Y588843D01*
X20982Y590987D02*
X28496Y590987D01*
X20982Y601543D02*
X20982Y605557D01*
X28496Y605557D01*
X28496Y601543D01*
X20982Y601543D01*
X20982Y603687D02*
X28496Y603687D01*
X20982Y580157D02*
X20982Y576143D01*
X20982Y580157D02*
X28496Y580157D01*
X28496Y576143D01*
X20982Y576143D01*
X20982Y578287D02*
X28496Y578287D01*
X20982Y567457D02*
X20982Y563443D01*
X20982Y567457D02*
X28496Y567457D01*
X28496Y563443D01*
X20982Y563443D01*
X20982Y565587D02*
X28496Y565587D01*
D18*
X27265Y506994D02*
X27265Y500006D01*
X27265Y506994D02*
X34253Y506994D01*
X34253Y500006D01*
X27265Y500006D01*
X27265Y504075D02*
X34253Y504075D01*
X9725Y506994D02*
X9725Y500006D01*
X9725Y506994D02*
X16713Y506994D01*
X16713Y500006D01*
X9725Y500006D01*
X9725Y504075D02*
X16713Y504075D01*
D13*
X17497Y521492D02*
X12481Y521492D01*
X12481Y526508D01*
X17497Y526508D01*
X17497Y521492D01*
X17497Y523633D02*
X12481Y523633D01*
X12481Y525774D02*
X17497Y525774D01*
X22481Y521492D02*
X27497Y521492D01*
X22481Y521492D02*
X22481Y526508D01*
X27497Y526508D01*
X27497Y521492D01*
X27497Y523633D02*
X22481Y523633D01*
X22481Y525774D02*
X27497Y525774D01*
X26997Y546992D02*
X21981Y546992D01*
X21981Y552008D01*
X26997Y552008D01*
X26997Y546992D01*
X26997Y549133D02*
X21981Y549133D01*
X21981Y551274D02*
X26997Y551274D01*
X31981Y546992D02*
X36997Y546992D01*
X31981Y546992D02*
X31981Y552008D01*
X36997Y552008D01*
X36997Y546992D01*
X36997Y549133D02*
X31981Y549133D01*
X31981Y551274D02*
X36997Y551274D01*
D19*
X212989Y651500D03*
X7989Y486500D03*
D10*
X241370Y679010D02*
X243850Y679010D01*
X241370Y679010D02*
X241370Y692490D01*
X243850Y692490D01*
X243850Y679010D01*
X243850Y681185D02*
X241370Y681185D01*
X241370Y683360D02*
X243850Y683360D01*
X243850Y685535D02*
X241370Y685535D01*
X241370Y687710D02*
X243850Y687710D01*
X243850Y689885D02*
X241370Y689885D01*
X241370Y692060D02*
X243850Y692060D01*
X246370Y679010D02*
X248850Y679010D01*
X246370Y679010D02*
X246370Y692490D01*
X248850Y692490D01*
X248850Y679010D01*
X248850Y681185D02*
X246370Y681185D01*
X246370Y683360D02*
X248850Y683360D01*
X248850Y685535D02*
X246370Y685535D01*
X246370Y687710D02*
X248850Y687710D01*
X248850Y689885D02*
X246370Y689885D01*
X246370Y692060D02*
X248850Y692060D01*
X251370Y679010D02*
X253850Y679010D01*
X251370Y679010D02*
X251370Y692490D01*
X253850Y692490D01*
X253850Y679010D01*
X253850Y681185D02*
X251370Y681185D01*
X251370Y683360D02*
X253850Y683360D01*
X253850Y685535D02*
X251370Y685535D01*
X251370Y687710D02*
X253850Y687710D01*
X253850Y689885D02*
X251370Y689885D01*
X251370Y692060D02*
X253850Y692060D01*
X256370Y679010D02*
X258850Y679010D01*
X256370Y679010D02*
X256370Y692490D01*
X258850Y692490D01*
X258850Y679010D01*
X258850Y681185D02*
X256370Y681185D01*
X256370Y683360D02*
X258850Y683360D01*
X258850Y685535D02*
X256370Y685535D01*
X256370Y687710D02*
X258850Y687710D01*
X258850Y689885D02*
X256370Y689885D01*
X256370Y692060D02*
X258850Y692060D01*
X261370Y679010D02*
X263850Y679010D01*
X261370Y679010D02*
X261370Y692490D01*
X263850Y692490D01*
X263850Y679010D01*
X263850Y681185D02*
X261370Y681185D01*
X261370Y683360D02*
X263850Y683360D01*
X263850Y685535D02*
X261370Y685535D01*
X261370Y687710D02*
X263850Y687710D01*
X263850Y689885D02*
X261370Y689885D01*
X261370Y692060D02*
X263850Y692060D01*
X266370Y679010D02*
X268850Y679010D01*
X266370Y679010D02*
X266370Y692490D01*
X268850Y692490D01*
X268850Y679010D01*
X268850Y681185D02*
X266370Y681185D01*
X266370Y683360D02*
X268850Y683360D01*
X268850Y685535D02*
X266370Y685535D01*
X266370Y687710D02*
X268850Y687710D01*
X268850Y689885D02*
X266370Y689885D01*
X266370Y692060D02*
X268850Y692060D01*
X271370Y679010D02*
X273850Y679010D01*
X271370Y679010D02*
X271370Y692490D01*
X273850Y692490D01*
X273850Y679010D01*
X273850Y681185D02*
X271370Y681185D01*
X271370Y683360D02*
X273850Y683360D01*
X273850Y685535D02*
X271370Y685535D01*
X271370Y687710D02*
X273850Y687710D01*
X273850Y689885D02*
X271370Y689885D01*
X271370Y692060D02*
X273850Y692060D01*
X276370Y679010D02*
X278850Y679010D01*
X276370Y679010D02*
X276370Y692490D01*
X278850Y692490D01*
X278850Y679010D01*
X278850Y681185D02*
X276370Y681185D01*
X276370Y683360D02*
X278850Y683360D01*
X278850Y685535D02*
X276370Y685535D01*
X276370Y687710D02*
X278850Y687710D01*
X278850Y689885D02*
X276370Y689885D01*
X276370Y692060D02*
X278850Y692060D01*
X281370Y679010D02*
X283850Y679010D01*
X281370Y679010D02*
X281370Y692490D01*
X283850Y692490D01*
X283850Y679010D01*
X283850Y681185D02*
X281370Y681185D01*
X281370Y683360D02*
X283850Y683360D01*
X283850Y685535D02*
X281370Y685535D01*
X281370Y687710D02*
X283850Y687710D01*
X283850Y689885D02*
X281370Y689885D01*
X281370Y692060D02*
X283850Y692060D01*
X286370Y679010D02*
X288850Y679010D01*
X286370Y679010D02*
X286370Y692490D01*
X288850Y692490D01*
X288850Y679010D01*
X288850Y681185D02*
X286370Y681185D01*
X286370Y683360D02*
X288850Y683360D01*
X288850Y685535D02*
X286370Y685535D01*
X286370Y687710D02*
X288850Y687710D01*
X288850Y689885D02*
X286370Y689885D01*
X286370Y692060D02*
X288850Y692060D01*
X291370Y679010D02*
X293850Y679010D01*
X291370Y679010D02*
X291370Y692490D01*
X293850Y692490D01*
X293850Y679010D01*
X293850Y681185D02*
X291370Y681185D01*
X291370Y683360D02*
X293850Y683360D01*
X293850Y685535D02*
X291370Y685535D01*
X291370Y687710D02*
X293850Y687710D01*
X293850Y689885D02*
X291370Y689885D01*
X291370Y692060D02*
X293850Y692060D01*
X296370Y679010D02*
X298850Y679010D01*
X296370Y679010D02*
X296370Y692490D01*
X298850Y692490D01*
X298850Y679010D01*
X298850Y681185D02*
X296370Y681185D01*
X296370Y683360D02*
X298850Y683360D01*
X298850Y685535D02*
X296370Y685535D01*
X296370Y687710D02*
X298850Y687710D01*
X298850Y689885D02*
X296370Y689885D01*
X296370Y692060D02*
X298850Y692060D01*
X321370Y679010D02*
X323850Y679010D01*
X321370Y679010D02*
X321370Y692490D01*
X323850Y692490D01*
X323850Y679010D01*
X323850Y681185D02*
X321370Y681185D01*
X321370Y683360D02*
X323850Y683360D01*
X323850Y685535D02*
X321370Y685535D01*
X321370Y687710D02*
X323850Y687710D01*
X323850Y689885D02*
X321370Y689885D01*
X321370Y692060D02*
X323850Y692060D01*
X326370Y679010D02*
X328850Y679010D01*
X326370Y679010D02*
X326370Y692490D01*
X328850Y692490D01*
X328850Y679010D01*
X328850Y681185D02*
X326370Y681185D01*
X326370Y683360D02*
X328850Y683360D01*
X328850Y685535D02*
X326370Y685535D01*
X326370Y687710D02*
X328850Y687710D01*
X328850Y689885D02*
X326370Y689885D01*
X326370Y692060D02*
X328850Y692060D01*
X331370Y679010D02*
X333850Y679010D01*
X331370Y679010D02*
X331370Y692490D01*
X333850Y692490D01*
X333850Y679010D01*
X333850Y681185D02*
X331370Y681185D01*
X331370Y683360D02*
X333850Y683360D01*
X333850Y685535D02*
X331370Y685535D01*
X331370Y687710D02*
X333850Y687710D01*
X333850Y689885D02*
X331370Y689885D01*
X331370Y692060D02*
X333850Y692060D01*
X336370Y679010D02*
X338850Y679010D01*
X336370Y679010D02*
X336370Y692490D01*
X338850Y692490D01*
X338850Y679010D01*
X338850Y681185D02*
X336370Y681185D01*
X336370Y683360D02*
X338850Y683360D01*
X338850Y685535D02*
X336370Y685535D01*
X336370Y687710D02*
X338850Y687710D01*
X338850Y689885D02*
X336370Y689885D01*
X336370Y692060D02*
X338850Y692060D01*
X341370Y679010D02*
X343850Y679010D01*
X341370Y679010D02*
X341370Y692490D01*
X343850Y692490D01*
X343850Y679010D01*
X343850Y681185D02*
X341370Y681185D01*
X341370Y683360D02*
X343850Y683360D01*
X343850Y685535D02*
X341370Y685535D01*
X341370Y687710D02*
X343850Y687710D01*
X343850Y689885D02*
X341370Y689885D01*
X341370Y692060D02*
X343850Y692060D01*
X346370Y679010D02*
X348850Y679010D01*
X346370Y679010D02*
X346370Y692490D01*
X348850Y692490D01*
X348850Y679010D01*
X348850Y681185D02*
X346370Y681185D01*
X346370Y683360D02*
X348850Y683360D01*
X348850Y685535D02*
X346370Y685535D01*
X346370Y687710D02*
X348850Y687710D01*
X348850Y689885D02*
X346370Y689885D01*
X346370Y692060D02*
X348850Y692060D01*
X351370Y679010D02*
X353850Y679010D01*
X351370Y679010D02*
X351370Y692490D01*
X353850Y692490D01*
X353850Y679010D01*
X353850Y681185D02*
X351370Y681185D01*
X351370Y683360D02*
X353850Y683360D01*
X353850Y685535D02*
X351370Y685535D01*
X351370Y687710D02*
X353850Y687710D01*
X353850Y689885D02*
X351370Y689885D01*
X351370Y692060D02*
X353850Y692060D01*
X356370Y679010D02*
X358850Y679010D01*
X356370Y679010D02*
X356370Y692490D01*
X358850Y692490D01*
X358850Y679010D01*
X358850Y681185D02*
X356370Y681185D01*
X356370Y683360D02*
X358850Y683360D01*
X358850Y685535D02*
X356370Y685535D01*
X356370Y687710D02*
X358850Y687710D01*
X358850Y689885D02*
X356370Y689885D01*
X356370Y692060D02*
X358850Y692060D01*
X361370Y679010D02*
X363850Y679010D01*
X361370Y679010D02*
X361370Y692490D01*
X363850Y692490D01*
X363850Y679010D01*
X363850Y681185D02*
X361370Y681185D01*
X361370Y683360D02*
X363850Y683360D01*
X363850Y685535D02*
X361370Y685535D01*
X361370Y687710D02*
X363850Y687710D01*
X363850Y689885D02*
X361370Y689885D01*
X361370Y692060D02*
X363850Y692060D01*
X366370Y679010D02*
X368850Y679010D01*
X366370Y679010D02*
X366370Y692490D01*
X368850Y692490D01*
X368850Y679010D01*
X368850Y681185D02*
X366370Y681185D01*
X366370Y683360D02*
X368850Y683360D01*
X368850Y685535D02*
X366370Y685535D01*
X366370Y687710D02*
X368850Y687710D01*
X368850Y689885D02*
X366370Y689885D01*
X366370Y692060D02*
X368850Y692060D01*
X371370Y679010D02*
X373850Y679010D01*
X371370Y679010D02*
X371370Y692490D01*
X373850Y692490D01*
X373850Y679010D01*
X373850Y681185D02*
X371370Y681185D01*
X371370Y683360D02*
X373850Y683360D01*
X373850Y685535D02*
X371370Y685535D01*
X371370Y687710D02*
X373850Y687710D01*
X373850Y689885D02*
X371370Y689885D01*
X371370Y692060D02*
X373850Y692060D01*
X376370Y679010D02*
X378850Y679010D01*
X376370Y679010D02*
X376370Y692490D01*
X378850Y692490D01*
X378850Y679010D01*
X378850Y681185D02*
X376370Y681185D01*
X376370Y683360D02*
X378850Y683360D01*
X378850Y685535D02*
X376370Y685535D01*
X376370Y687710D02*
X378850Y687710D01*
X378850Y689885D02*
X376370Y689885D01*
X376370Y692060D02*
X378850Y692060D01*
X381370Y679010D02*
X383850Y679010D01*
X381370Y679010D02*
X381370Y692490D01*
X383850Y692490D01*
X383850Y679010D01*
X383850Y681185D02*
X381370Y681185D01*
X381370Y683360D02*
X383850Y683360D01*
X383850Y685535D02*
X381370Y685535D01*
X381370Y687710D02*
X383850Y687710D01*
X383850Y689885D02*
X381370Y689885D01*
X381370Y692060D02*
X383850Y692060D01*
X386370Y679010D02*
X388850Y679010D01*
X386370Y679010D02*
X386370Y692490D01*
X388850Y692490D01*
X388850Y679010D01*
X388850Y681185D02*
X386370Y681185D01*
X386370Y683360D02*
X388850Y683360D01*
X388850Y685535D02*
X386370Y685535D01*
X386370Y687710D02*
X388850Y687710D01*
X388850Y689885D02*
X386370Y689885D01*
X386370Y692060D02*
X388850Y692060D01*
X391370Y679010D02*
X393850Y679010D01*
X391370Y679010D02*
X391370Y692490D01*
X393850Y692490D01*
X393850Y679010D01*
X393850Y681185D02*
X391370Y681185D01*
X391370Y683360D02*
X393850Y683360D01*
X393850Y685535D02*
X391370Y685535D01*
X391370Y687710D02*
X393850Y687710D01*
X393850Y689885D02*
X391370Y689885D01*
X391370Y692060D02*
X393850Y692060D01*
X396370Y679010D02*
X398850Y679010D01*
X396370Y679010D02*
X396370Y692490D01*
X398850Y692490D01*
X398850Y679010D01*
X398850Y681185D02*
X396370Y681185D01*
X396370Y683360D02*
X398850Y683360D01*
X398850Y685535D02*
X396370Y685535D01*
X396370Y687710D02*
X398850Y687710D01*
X398850Y689885D02*
X396370Y689885D01*
X396370Y692060D02*
X398850Y692060D01*
X401370Y679010D02*
X403850Y679010D01*
X401370Y679010D02*
X401370Y692490D01*
X403850Y692490D01*
X403850Y679010D01*
X403850Y681185D02*
X401370Y681185D01*
X401370Y683360D02*
X403850Y683360D01*
X403850Y685535D02*
X401370Y685535D01*
X401370Y687710D02*
X403850Y687710D01*
X403850Y689885D02*
X401370Y689885D01*
X401370Y692060D02*
X403850Y692060D01*
X406370Y679010D02*
X408850Y679010D01*
X406370Y679010D02*
X406370Y692490D01*
X408850Y692490D01*
X408850Y679010D01*
X408850Y681185D02*
X406370Y681185D01*
X406370Y683360D02*
X408850Y683360D01*
X408850Y685535D02*
X406370Y685535D01*
X406370Y687710D02*
X408850Y687710D01*
X408850Y689885D02*
X406370Y689885D01*
X406370Y692060D02*
X408850Y692060D01*
X411370Y679010D02*
X413850Y679010D01*
X411370Y679010D02*
X411370Y692490D01*
X413850Y692490D01*
X413850Y679010D01*
X413850Y681185D02*
X411370Y681185D01*
X411370Y683360D02*
X413850Y683360D01*
X413850Y685535D02*
X411370Y685535D01*
X411370Y687710D02*
X413850Y687710D01*
X413850Y689885D02*
X411370Y689885D01*
X411370Y692060D02*
X413850Y692060D01*
X416370Y679010D02*
X418850Y679010D01*
X416370Y679010D02*
X416370Y692490D01*
X418850Y692490D01*
X418850Y679010D01*
X418850Y681185D02*
X416370Y681185D01*
X416370Y683360D02*
X418850Y683360D01*
X418850Y685535D02*
X416370Y685535D01*
X416370Y687710D02*
X418850Y687710D01*
X418850Y689885D02*
X416370Y689885D01*
X416370Y692060D02*
X418850Y692060D01*
X421370Y679010D02*
X423850Y679010D01*
X421370Y679010D02*
X421370Y692490D01*
X423850Y692490D01*
X423850Y679010D01*
X423850Y681185D02*
X421370Y681185D01*
X421370Y683360D02*
X423850Y683360D01*
X423850Y685535D02*
X421370Y685535D01*
X421370Y687710D02*
X423850Y687710D01*
X423850Y689885D02*
X421370Y689885D01*
X421370Y692060D02*
X423850Y692060D01*
X426370Y679010D02*
X428850Y679010D01*
X426370Y679010D02*
X426370Y692490D01*
X428850Y692490D01*
X428850Y679010D01*
X428850Y681185D02*
X426370Y681185D01*
X426370Y683360D02*
X428850Y683360D01*
X428850Y685535D02*
X426370Y685535D01*
X426370Y687710D02*
X428850Y687710D01*
X428850Y689885D02*
X426370Y689885D01*
X426370Y692060D02*
X428850Y692060D01*
D11*
X316110Y488500D03*
X274110Y488500D03*
X295110Y501500D03*
D10*
X360620Y586510D02*
X363100Y586510D01*
X360620Y586510D02*
X360620Y588990D01*
X363100Y588990D01*
X363100Y586510D01*
X363100Y588685D02*
X360620Y588685D01*
X424120Y586510D02*
X426600Y586510D01*
X424120Y586510D02*
X424120Y588990D01*
X426600Y588990D01*
X426600Y586510D01*
X426600Y588685D02*
X424120Y588685D01*
D12*
X424128Y582018D02*
X426592Y582018D01*
X424128Y582018D02*
X424128Y583982D01*
X426592Y583982D01*
X426592Y582018D01*
X367592Y586518D02*
X365628Y586518D01*
X365628Y588982D01*
X367592Y588982D01*
X367592Y586518D01*
X367592Y588709D02*
X365628Y588709D01*
X370128Y586518D02*
X372092Y586518D01*
X370128Y586518D02*
X370128Y588982D01*
X372092Y588982D01*
X372092Y586518D01*
X372092Y588709D02*
X370128Y588709D01*
X374628Y586518D02*
X376592Y586518D01*
X374628Y586518D02*
X374628Y588982D01*
X376592Y588982D01*
X376592Y586518D01*
X376592Y588709D02*
X374628Y588709D01*
X379128Y586518D02*
X381092Y586518D01*
X379128Y586518D02*
X379128Y588982D01*
X381092Y588982D01*
X381092Y586518D01*
X381092Y588709D02*
X379128Y588709D01*
X383628Y586518D02*
X385592Y586518D01*
X383628Y586518D02*
X383628Y588982D01*
X385592Y588982D01*
X385592Y586518D01*
X385592Y588709D02*
X383628Y588709D01*
X388128Y586518D02*
X390092Y586518D01*
X388128Y586518D02*
X388128Y588982D01*
X390092Y588982D01*
X390092Y586518D01*
X390092Y588709D02*
X388128Y588709D01*
X392628Y586518D02*
X394592Y586518D01*
X392628Y586518D02*
X392628Y588982D01*
X394592Y588982D01*
X394592Y586518D01*
X394592Y588709D02*
X392628Y588709D01*
X397128Y586518D02*
X399092Y586518D01*
X397128Y586518D02*
X397128Y588982D01*
X399092Y588982D01*
X399092Y586518D01*
X399092Y588709D02*
X397128Y588709D01*
X401628Y586518D02*
X403592Y586518D01*
X401628Y586518D02*
X401628Y588982D01*
X403592Y588982D01*
X403592Y586518D01*
X403592Y588709D02*
X401628Y588709D01*
X406128Y586518D02*
X408092Y586518D01*
X406128Y586518D02*
X406128Y588982D01*
X408092Y588982D01*
X408092Y586518D01*
X408092Y588709D02*
X406128Y588709D01*
X410628Y586518D02*
X412592Y586518D01*
X410628Y586518D02*
X410628Y588982D01*
X412592Y588982D01*
X412592Y586518D01*
X412592Y588709D02*
X410628Y588709D01*
X415128Y586518D02*
X417092Y586518D01*
X415128Y586518D02*
X415128Y588982D01*
X417092Y588982D01*
X417092Y586518D01*
X417092Y588709D02*
X415128Y588709D01*
X419628Y586518D02*
X421592Y586518D01*
X419628Y586518D02*
X419628Y588982D01*
X421592Y588982D01*
X421592Y586518D01*
X421592Y588709D02*
X419628Y588709D01*
X424128Y579482D02*
X424128Y577518D01*
X424128Y579482D02*
X426592Y579482D01*
X426592Y577518D01*
X424128Y577518D01*
X424128Y574982D02*
X424128Y573018D01*
X424128Y574982D02*
X426592Y574982D01*
X426592Y573018D01*
X424128Y573018D01*
X424128Y570482D02*
X424128Y568518D01*
X424128Y570482D02*
X426592Y570482D01*
X426592Y568518D01*
X424128Y568518D01*
X424128Y565982D02*
X424128Y564018D01*
X424128Y565982D02*
X426592Y565982D01*
X426592Y564018D01*
X424128Y564018D01*
X424128Y561482D02*
X424128Y559518D01*
X424128Y561482D02*
X426592Y561482D01*
X426592Y559518D01*
X424128Y559518D01*
X424128Y556982D02*
X424128Y555018D01*
X424128Y556982D02*
X426592Y556982D01*
X426592Y555018D01*
X424128Y555018D01*
X424128Y552482D02*
X424128Y550518D01*
X424128Y552482D02*
X426592Y552482D01*
X426592Y550518D01*
X424128Y550518D01*
X424128Y547982D02*
X424128Y546018D01*
X424128Y547982D02*
X426592Y547982D01*
X426592Y546018D01*
X424128Y546018D01*
X424128Y543482D02*
X424128Y541518D01*
X424128Y543482D02*
X426592Y543482D01*
X426592Y541518D01*
X424128Y541518D01*
X424128Y538982D02*
X424128Y537018D01*
X424128Y538982D02*
X426592Y538982D01*
X426592Y537018D01*
X424128Y537018D01*
X424128Y534482D02*
X424128Y532518D01*
X424128Y534482D02*
X426592Y534482D01*
X426592Y532518D01*
X424128Y532518D01*
X424128Y529982D02*
X424128Y528018D01*
X424128Y529982D02*
X426592Y529982D01*
X426592Y528018D01*
X424128Y528018D01*
X424128Y525482D02*
X424128Y523518D01*
X424128Y525482D02*
X426592Y525482D01*
X426592Y523518D01*
X424128Y523518D01*
X424128Y520982D02*
X424128Y519018D01*
X424128Y520982D02*
X426592Y520982D01*
X426592Y519018D01*
X424128Y519018D01*
D10*
X424120Y514010D02*
X426600Y514010D01*
X424120Y514010D02*
X424120Y516490D01*
X426600Y516490D01*
X426600Y514010D01*
X426600Y516185D02*
X424120Y516185D01*
D12*
X363092Y582018D02*
X360628Y582018D01*
X360628Y583982D01*
X363092Y583982D01*
X363092Y582018D01*
X360628Y579482D02*
X360628Y577518D01*
X360628Y579482D02*
X363092Y579482D01*
X363092Y577518D01*
X360628Y577518D01*
X360628Y574982D02*
X360628Y573018D01*
X360628Y574982D02*
X363092Y574982D01*
X363092Y573018D01*
X360628Y573018D01*
X360628Y570482D02*
X360628Y568518D01*
X360628Y570482D02*
X363092Y570482D01*
X363092Y568518D01*
X360628Y568518D01*
X360628Y565982D02*
X360628Y564018D01*
X360628Y565982D02*
X363092Y565982D01*
X363092Y564018D01*
X360628Y564018D01*
X360628Y561482D02*
X360628Y559518D01*
X360628Y561482D02*
X363092Y561482D01*
X363092Y559518D01*
X360628Y559518D01*
X360628Y556982D02*
X360628Y555018D01*
X360628Y556982D02*
X363092Y556982D01*
X363092Y555018D01*
X360628Y555018D01*
X360628Y552482D02*
X360628Y550518D01*
X360628Y552482D02*
X363092Y552482D01*
X363092Y550518D01*
X360628Y550518D01*
X360628Y547982D02*
X360628Y546018D01*
X360628Y547982D02*
X363092Y547982D01*
X363092Y546018D01*
X360628Y546018D01*
X360628Y543482D02*
X360628Y541518D01*
X360628Y543482D02*
X363092Y543482D01*
X363092Y541518D01*
X360628Y541518D01*
X360628Y538982D02*
X360628Y537018D01*
X360628Y538982D02*
X363092Y538982D01*
X363092Y537018D01*
X360628Y537018D01*
X360628Y534482D02*
X360628Y532518D01*
X360628Y534482D02*
X363092Y534482D01*
X363092Y532518D01*
X360628Y532518D01*
X360628Y529982D02*
X360628Y528018D01*
X360628Y529982D02*
X363092Y529982D01*
X363092Y528018D01*
X360628Y528018D01*
X360628Y525482D02*
X360628Y523518D01*
X360628Y525482D02*
X363092Y525482D01*
X363092Y523518D01*
X360628Y523518D01*
X360628Y520982D02*
X360628Y519018D01*
X360628Y520982D02*
X363092Y520982D01*
X363092Y519018D01*
X360628Y519018D01*
D10*
X360620Y514010D02*
X363100Y514010D01*
X360620Y514010D02*
X360620Y516490D01*
X363100Y516490D01*
X363100Y514010D01*
X363100Y516185D02*
X360620Y516185D01*
D12*
X365628Y514018D02*
X367592Y514018D01*
X365628Y514018D02*
X365628Y516482D01*
X367592Y516482D01*
X367592Y514018D01*
X367592Y516209D02*
X365628Y516209D01*
X370128Y514018D02*
X372092Y514018D01*
X370128Y514018D02*
X370128Y516482D01*
X372092Y516482D01*
X372092Y514018D01*
X372092Y516209D02*
X370128Y516209D01*
X374628Y514018D02*
X376592Y514018D01*
X374628Y514018D02*
X374628Y516482D01*
X376592Y516482D01*
X376592Y514018D01*
X376592Y516209D02*
X374628Y516209D01*
X379128Y514018D02*
X381092Y514018D01*
X379128Y514018D02*
X379128Y516482D01*
X381092Y516482D01*
X381092Y514018D01*
X381092Y516209D02*
X379128Y516209D01*
X383628Y514018D02*
X385592Y514018D01*
X383628Y514018D02*
X383628Y516482D01*
X385592Y516482D01*
X385592Y514018D01*
X385592Y516209D02*
X383628Y516209D01*
X388128Y514018D02*
X390092Y514018D01*
X388128Y514018D02*
X388128Y516482D01*
X390092Y516482D01*
X390092Y514018D01*
X390092Y516209D02*
X388128Y516209D01*
X392628Y514018D02*
X394592Y514018D01*
X392628Y514018D02*
X392628Y516482D01*
X394592Y516482D01*
X394592Y514018D01*
X394592Y516209D02*
X392628Y516209D01*
X397128Y514018D02*
X399092Y514018D01*
X397128Y514018D02*
X397128Y516482D01*
X399092Y516482D01*
X399092Y514018D01*
X399092Y516209D02*
X397128Y516209D01*
X401628Y514018D02*
X403592Y514018D01*
X401628Y514018D02*
X401628Y516482D01*
X403592Y516482D01*
X403592Y514018D01*
X403592Y516209D02*
X401628Y516209D01*
X406128Y514018D02*
X408092Y514018D01*
X406128Y514018D02*
X406128Y516482D01*
X408092Y516482D01*
X408092Y514018D01*
X408092Y516209D02*
X406128Y516209D01*
X410628Y514018D02*
X412592Y514018D01*
X410628Y514018D02*
X410628Y516482D01*
X412592Y516482D01*
X412592Y514018D01*
X412592Y516209D02*
X410628Y516209D01*
X415128Y514018D02*
X417092Y514018D01*
X415128Y514018D02*
X415128Y516482D01*
X417092Y516482D01*
X417092Y514018D01*
X417092Y516209D02*
X415128Y516209D01*
X419628Y514018D02*
X421592Y514018D01*
X419628Y514018D02*
X419628Y516482D01*
X421592Y516482D01*
X421592Y514018D01*
X421592Y516209D02*
X419628Y516209D01*
D13*
X409618Y526492D02*
X404602Y526492D01*
X404602Y531508D01*
X409618Y531508D01*
X409618Y526492D01*
X409618Y528633D02*
X404602Y528633D01*
X404602Y530774D02*
X409618Y530774D01*
X409618Y535492D02*
X404602Y535492D01*
X404602Y540508D01*
X409618Y540508D01*
X409618Y535492D01*
X409618Y537633D02*
X404602Y537633D01*
X404602Y539774D02*
X409618Y539774D01*
X409618Y544492D02*
X404602Y544492D01*
X404602Y549508D01*
X409618Y549508D01*
X409618Y544492D01*
X409618Y546633D02*
X404602Y546633D01*
X404602Y548774D02*
X409618Y548774D01*
X409618Y553492D02*
X404602Y553492D01*
X404602Y558508D01*
X409618Y558508D01*
X409618Y553492D01*
X409618Y555633D02*
X404602Y555633D01*
X404602Y557774D02*
X409618Y557774D01*
X409618Y562492D02*
X404602Y562492D01*
X404602Y567508D01*
X409618Y567508D01*
X409618Y562492D01*
X409618Y564633D02*
X404602Y564633D01*
X404602Y566774D02*
X409618Y566774D01*
X409618Y571492D02*
X404602Y571492D01*
X404602Y576508D01*
X409618Y576508D01*
X409618Y571492D01*
X409618Y573633D02*
X404602Y573633D01*
X404602Y575774D02*
X409618Y575774D01*
X400618Y571492D02*
X395602Y571492D01*
X395602Y576508D01*
X400618Y576508D01*
X400618Y571492D01*
X400618Y573633D02*
X395602Y573633D01*
X395602Y575774D02*
X400618Y575774D01*
X391618Y571492D02*
X386602Y571492D01*
X386602Y576508D01*
X391618Y576508D01*
X391618Y571492D01*
X391618Y573633D02*
X386602Y573633D01*
X386602Y575774D02*
X391618Y575774D01*
X382618Y571492D02*
X377602Y571492D01*
X377602Y576508D01*
X382618Y576508D01*
X382618Y571492D01*
X382618Y573633D02*
X377602Y573633D01*
X377602Y575774D02*
X382618Y575774D01*
X382618Y567508D02*
X377602Y567508D01*
X382618Y567508D02*
X382618Y562492D01*
X377602Y562492D01*
X377602Y567508D01*
X377602Y564633D02*
X382618Y564633D01*
X382618Y566774D02*
X377602Y566774D01*
X377602Y558508D02*
X382618Y558508D01*
X382618Y553492D01*
X377602Y553492D01*
X377602Y558508D01*
X377602Y555633D02*
X382618Y555633D01*
X382618Y557774D02*
X377602Y557774D01*
X377602Y549508D02*
X382618Y549508D01*
X382618Y544492D01*
X377602Y544492D01*
X377602Y549508D01*
X377602Y546633D02*
X382618Y546633D01*
X382618Y548774D02*
X377602Y548774D01*
X377602Y540508D02*
X382618Y540508D01*
X382618Y535492D01*
X377602Y535492D01*
X377602Y540508D01*
X377602Y537633D02*
X382618Y537633D01*
X382618Y539774D02*
X377602Y539774D01*
X377602Y531508D02*
X382618Y531508D01*
X382618Y526492D01*
X377602Y526492D01*
X377602Y531508D01*
X377602Y528633D02*
X382618Y528633D01*
X382618Y530774D02*
X377602Y530774D01*
X386602Y567508D02*
X391618Y567508D01*
X391618Y562492D01*
X386602Y562492D01*
X386602Y567508D01*
X386602Y564633D02*
X391618Y564633D01*
X391618Y566774D02*
X386602Y566774D01*
X386602Y558508D02*
X391618Y558508D01*
X391618Y553492D01*
X386602Y553492D01*
X386602Y558508D01*
X386602Y555633D02*
X391618Y555633D01*
X391618Y557774D02*
X386602Y557774D01*
X386602Y549508D02*
X391618Y549508D01*
X391618Y544492D01*
X386602Y544492D01*
X386602Y549508D01*
X386602Y546633D02*
X391618Y546633D01*
X391618Y548774D02*
X386602Y548774D01*
X386602Y540508D02*
X391618Y540508D01*
X391618Y535492D01*
X386602Y535492D01*
X386602Y540508D01*
X386602Y537633D02*
X391618Y537633D01*
X391618Y539774D02*
X386602Y539774D01*
X386602Y531508D02*
X391618Y531508D01*
X391618Y526492D01*
X386602Y526492D01*
X386602Y531508D01*
X386602Y528633D02*
X391618Y528633D01*
X391618Y530774D02*
X386602Y530774D01*
X395602Y567508D02*
X400618Y567508D01*
X400618Y562492D01*
X395602Y562492D01*
X395602Y567508D01*
X395602Y564633D02*
X400618Y564633D01*
X400618Y566774D02*
X395602Y566774D01*
X395602Y558508D02*
X400618Y558508D01*
X400618Y553492D01*
X395602Y553492D01*
X395602Y558508D01*
X395602Y555633D02*
X400618Y555633D01*
X400618Y557774D02*
X395602Y557774D01*
X395602Y549508D02*
X400618Y549508D01*
X400618Y544492D01*
X395602Y544492D01*
X395602Y549508D01*
X395602Y546633D02*
X400618Y546633D01*
X400618Y548774D02*
X395602Y548774D01*
X395602Y540508D02*
X400618Y540508D01*
X400618Y535492D01*
X395602Y535492D01*
X395602Y540508D01*
X395602Y537633D02*
X400618Y537633D01*
X400618Y539774D02*
X395602Y539774D01*
X395602Y531508D02*
X400618Y531508D01*
X400618Y526492D01*
X395602Y526492D01*
X395602Y531508D01*
X395602Y528633D02*
X400618Y528633D01*
X400618Y530774D02*
X395602Y530774D01*
D14*
X364753Y484007D02*
X361467Y484007D01*
X361467Y487293D01*
X364753Y487293D01*
X364753Y484007D01*
X364753Y486177D02*
X361467Y486177D01*
X422467Y484007D02*
X425753Y484007D01*
X422467Y484007D02*
X422467Y487293D01*
X425753Y487293D01*
X425753Y484007D01*
X425753Y486177D02*
X422467Y486177D01*
D13*
X432102Y624008D02*
X437118Y624008D01*
X437118Y618992D01*
X432102Y618992D01*
X432102Y624008D01*
X432102Y621133D02*
X437118Y621133D01*
X437118Y623274D02*
X432102Y623274D01*
X427118Y624008D02*
X422102Y624008D01*
X427118Y624008D02*
X427118Y618992D01*
X422102Y618992D01*
X422102Y624008D01*
X422102Y621133D02*
X427118Y621133D01*
X427118Y623274D02*
X422102Y623274D01*
D15*
X360586Y610976D02*
X360586Y604024D01*
X352634Y604024D01*
X352634Y610976D01*
X360586Y610976D01*
X360586Y606226D02*
X352634Y606226D01*
X352634Y608428D02*
X360586Y608428D01*
X360586Y610630D02*
X352634Y610630D01*
X360586Y623024D02*
X360586Y629976D01*
X360586Y623024D02*
X352634Y623024D01*
X352634Y629976D01*
X360586Y629976D01*
X360586Y625226D02*
X352634Y625226D01*
X352634Y627428D02*
X360586Y627428D01*
X360586Y629630D02*
X352634Y629630D01*
X339586Y620476D02*
X339586Y613524D01*
X331634Y613524D01*
X331634Y620476D01*
X339586Y620476D01*
X339586Y615726D02*
X331634Y615726D01*
X331634Y617928D02*
X339586Y617928D01*
X339586Y620130D02*
X331634Y620130D01*
D13*
X320602Y628992D02*
X320602Y634008D01*
X325618Y634008D01*
X325618Y628992D01*
X320602Y628992D01*
X320602Y631133D02*
X325618Y631133D01*
X325618Y633274D02*
X320602Y633274D01*
X320602Y624008D02*
X320602Y618992D01*
X320602Y624008D02*
X325618Y624008D01*
X325618Y618992D01*
X320602Y618992D01*
X320602Y621133D02*
X325618Y621133D01*
X325618Y623274D02*
X320602Y623274D01*
X371118Y619008D02*
X371118Y613992D01*
X366102Y613992D01*
X366102Y619008D01*
X371118Y619008D01*
X371118Y616133D02*
X366102Y616133D01*
X366102Y618274D02*
X371118Y618274D01*
X371118Y623992D02*
X371118Y629008D01*
X371118Y623992D02*
X366102Y623992D01*
X366102Y629008D01*
X371118Y629008D01*
X371118Y626133D02*
X366102Y626133D01*
X366102Y628274D02*
X371118Y628274D01*
D16*
X414608Y635002D02*
X417612Y635002D01*
X417612Y631998D01*
X414608Y631998D01*
X414608Y635002D01*
X414608Y634151D02*
X417612Y634151D01*
X428608Y635002D02*
X431612Y635002D01*
X431612Y631998D01*
X428608Y631998D01*
X428608Y635002D01*
X428608Y634151D02*
X431612Y634151D01*
D17*
X301603Y567457D02*
X301603Y563443D01*
X301603Y567457D02*
X309117Y567457D01*
X309117Y563443D01*
X301603Y563443D01*
X301603Y565587D02*
X309117Y565587D01*
X301603Y576143D02*
X301603Y580157D01*
X309117Y580157D01*
X309117Y576143D01*
X301603Y576143D01*
X301603Y578287D02*
X309117Y578287D01*
X301603Y588843D02*
X301603Y592857D01*
X309117Y592857D01*
X309117Y588843D01*
X301603Y588843D01*
X301603Y590987D02*
X309117Y590987D01*
X301603Y601543D02*
X301603Y605557D01*
X309117Y605557D01*
X309117Y601543D01*
X301603Y601543D01*
X301603Y603687D02*
X309117Y603687D01*
X246103Y592857D02*
X246103Y588843D01*
X246103Y592857D02*
X253617Y592857D01*
X253617Y588843D01*
X246103Y588843D01*
X246103Y590987D02*
X253617Y590987D01*
X246103Y601543D02*
X246103Y605557D01*
X253617Y605557D01*
X253617Y601543D01*
X246103Y601543D01*
X246103Y603687D02*
X253617Y603687D01*
X246103Y580157D02*
X246103Y576143D01*
X246103Y580157D02*
X253617Y580157D01*
X253617Y576143D01*
X246103Y576143D01*
X246103Y578287D02*
X253617Y578287D01*
X246103Y567457D02*
X246103Y563443D01*
X246103Y567457D02*
X253617Y567457D01*
X253617Y563443D01*
X246103Y563443D01*
X246103Y565587D02*
X253617Y565587D01*
D18*
X252386Y506994D02*
X252386Y500006D01*
X252386Y506994D02*
X259374Y506994D01*
X259374Y500006D01*
X252386Y500006D01*
X252386Y504075D02*
X259374Y504075D01*
X234846Y506994D02*
X234846Y500006D01*
X234846Y506994D02*
X241834Y506994D01*
X241834Y500006D01*
X234846Y500006D01*
X234846Y504075D02*
X241834Y504075D01*
D13*
X242618Y521492D02*
X237602Y521492D01*
X237602Y526508D01*
X242618Y526508D01*
X242618Y521492D01*
X242618Y523633D02*
X237602Y523633D01*
X237602Y525774D02*
X242618Y525774D01*
X247602Y521492D02*
X252618Y521492D01*
X247602Y521492D02*
X247602Y526508D01*
X252618Y526508D01*
X252618Y521492D01*
X252618Y523633D02*
X247602Y523633D01*
X247602Y525774D02*
X252618Y525774D01*
X252118Y546992D02*
X247102Y546992D01*
X247102Y552008D01*
X252118Y552008D01*
X252118Y546992D01*
X252118Y549133D02*
X247102Y549133D01*
X247102Y551274D02*
X252118Y551274D01*
X257102Y546992D02*
X262118Y546992D01*
X257102Y546992D02*
X257102Y552008D01*
X262118Y552008D01*
X262118Y546992D01*
X262118Y549133D02*
X257102Y549133D01*
X257102Y551274D02*
X262118Y551274D01*
D19*
X438110Y651500D03*
X233110Y486500D03*
D10*
X466464Y679010D02*
X468944Y679010D01*
X466464Y679010D02*
X466464Y692490D01*
X468944Y692490D01*
X468944Y679010D01*
X468944Y681185D02*
X466464Y681185D01*
X466464Y683360D02*
X468944Y683360D01*
X468944Y685535D02*
X466464Y685535D01*
X466464Y687710D02*
X468944Y687710D01*
X468944Y689885D02*
X466464Y689885D01*
X466464Y692060D02*
X468944Y692060D01*
X471464Y679010D02*
X473944Y679010D01*
X471464Y679010D02*
X471464Y692490D01*
X473944Y692490D01*
X473944Y679010D01*
X473944Y681185D02*
X471464Y681185D01*
X471464Y683360D02*
X473944Y683360D01*
X473944Y685535D02*
X471464Y685535D01*
X471464Y687710D02*
X473944Y687710D01*
X473944Y689885D02*
X471464Y689885D01*
X471464Y692060D02*
X473944Y692060D01*
X476464Y679010D02*
X478944Y679010D01*
X476464Y679010D02*
X476464Y692490D01*
X478944Y692490D01*
X478944Y679010D01*
X478944Y681185D02*
X476464Y681185D01*
X476464Y683360D02*
X478944Y683360D01*
X478944Y685535D02*
X476464Y685535D01*
X476464Y687710D02*
X478944Y687710D01*
X478944Y689885D02*
X476464Y689885D01*
X476464Y692060D02*
X478944Y692060D01*
X481464Y679010D02*
X483944Y679010D01*
X481464Y679010D02*
X481464Y692490D01*
X483944Y692490D01*
X483944Y679010D01*
X483944Y681185D02*
X481464Y681185D01*
X481464Y683360D02*
X483944Y683360D01*
X483944Y685535D02*
X481464Y685535D01*
X481464Y687710D02*
X483944Y687710D01*
X483944Y689885D02*
X481464Y689885D01*
X481464Y692060D02*
X483944Y692060D01*
X486464Y679010D02*
X488944Y679010D01*
X486464Y679010D02*
X486464Y692490D01*
X488944Y692490D01*
X488944Y679010D01*
X488944Y681185D02*
X486464Y681185D01*
X486464Y683360D02*
X488944Y683360D01*
X488944Y685535D02*
X486464Y685535D01*
X486464Y687710D02*
X488944Y687710D01*
X488944Y689885D02*
X486464Y689885D01*
X486464Y692060D02*
X488944Y692060D01*
X491464Y679010D02*
X493944Y679010D01*
X491464Y679010D02*
X491464Y692490D01*
X493944Y692490D01*
X493944Y679010D01*
X493944Y681185D02*
X491464Y681185D01*
X491464Y683360D02*
X493944Y683360D01*
X493944Y685535D02*
X491464Y685535D01*
X491464Y687710D02*
X493944Y687710D01*
X493944Y689885D02*
X491464Y689885D01*
X491464Y692060D02*
X493944Y692060D01*
X496464Y679010D02*
X498944Y679010D01*
X496464Y679010D02*
X496464Y692490D01*
X498944Y692490D01*
X498944Y679010D01*
X498944Y681185D02*
X496464Y681185D01*
X496464Y683360D02*
X498944Y683360D01*
X498944Y685535D02*
X496464Y685535D01*
X496464Y687710D02*
X498944Y687710D01*
X498944Y689885D02*
X496464Y689885D01*
X496464Y692060D02*
X498944Y692060D01*
X501464Y679010D02*
X503944Y679010D01*
X501464Y679010D02*
X501464Y692490D01*
X503944Y692490D01*
X503944Y679010D01*
X503944Y681185D02*
X501464Y681185D01*
X501464Y683360D02*
X503944Y683360D01*
X503944Y685535D02*
X501464Y685535D01*
X501464Y687710D02*
X503944Y687710D01*
X503944Y689885D02*
X501464Y689885D01*
X501464Y692060D02*
X503944Y692060D01*
X506464Y679010D02*
X508944Y679010D01*
X506464Y679010D02*
X506464Y692490D01*
X508944Y692490D01*
X508944Y679010D01*
X508944Y681185D02*
X506464Y681185D01*
X506464Y683360D02*
X508944Y683360D01*
X508944Y685535D02*
X506464Y685535D01*
X506464Y687710D02*
X508944Y687710D01*
X508944Y689885D02*
X506464Y689885D01*
X506464Y692060D02*
X508944Y692060D01*
X511464Y679010D02*
X513944Y679010D01*
X511464Y679010D02*
X511464Y692490D01*
X513944Y692490D01*
X513944Y679010D01*
X513944Y681185D02*
X511464Y681185D01*
X511464Y683360D02*
X513944Y683360D01*
X513944Y685535D02*
X511464Y685535D01*
X511464Y687710D02*
X513944Y687710D01*
X513944Y689885D02*
X511464Y689885D01*
X511464Y692060D02*
X513944Y692060D01*
X516464Y679010D02*
X518944Y679010D01*
X516464Y679010D02*
X516464Y692490D01*
X518944Y692490D01*
X518944Y679010D01*
X518944Y681185D02*
X516464Y681185D01*
X516464Y683360D02*
X518944Y683360D01*
X518944Y685535D02*
X516464Y685535D01*
X516464Y687710D02*
X518944Y687710D01*
X518944Y689885D02*
X516464Y689885D01*
X516464Y692060D02*
X518944Y692060D01*
X521464Y679010D02*
X523944Y679010D01*
X521464Y679010D02*
X521464Y692490D01*
X523944Y692490D01*
X523944Y679010D01*
X523944Y681185D02*
X521464Y681185D01*
X521464Y683360D02*
X523944Y683360D01*
X523944Y685535D02*
X521464Y685535D01*
X521464Y687710D02*
X523944Y687710D01*
X523944Y689885D02*
X521464Y689885D01*
X521464Y692060D02*
X523944Y692060D01*
X546464Y679010D02*
X548944Y679010D01*
X546464Y679010D02*
X546464Y692490D01*
X548944Y692490D01*
X548944Y679010D01*
X548944Y681185D02*
X546464Y681185D01*
X546464Y683360D02*
X548944Y683360D01*
X548944Y685535D02*
X546464Y685535D01*
X546464Y687710D02*
X548944Y687710D01*
X548944Y689885D02*
X546464Y689885D01*
X546464Y692060D02*
X548944Y692060D01*
X551464Y679010D02*
X553944Y679010D01*
X551464Y679010D02*
X551464Y692490D01*
X553944Y692490D01*
X553944Y679010D01*
X553944Y681185D02*
X551464Y681185D01*
X551464Y683360D02*
X553944Y683360D01*
X553944Y685535D02*
X551464Y685535D01*
X551464Y687710D02*
X553944Y687710D01*
X553944Y689885D02*
X551464Y689885D01*
X551464Y692060D02*
X553944Y692060D01*
X556464Y679010D02*
X558944Y679010D01*
X556464Y679010D02*
X556464Y692490D01*
X558944Y692490D01*
X558944Y679010D01*
X558944Y681185D02*
X556464Y681185D01*
X556464Y683360D02*
X558944Y683360D01*
X558944Y685535D02*
X556464Y685535D01*
X556464Y687710D02*
X558944Y687710D01*
X558944Y689885D02*
X556464Y689885D01*
X556464Y692060D02*
X558944Y692060D01*
X561464Y679010D02*
X563944Y679010D01*
X561464Y679010D02*
X561464Y692490D01*
X563944Y692490D01*
X563944Y679010D01*
X563944Y681185D02*
X561464Y681185D01*
X561464Y683360D02*
X563944Y683360D01*
X563944Y685535D02*
X561464Y685535D01*
X561464Y687710D02*
X563944Y687710D01*
X563944Y689885D02*
X561464Y689885D01*
X561464Y692060D02*
X563944Y692060D01*
X566464Y679010D02*
X568944Y679010D01*
X566464Y679010D02*
X566464Y692490D01*
X568944Y692490D01*
X568944Y679010D01*
X568944Y681185D02*
X566464Y681185D01*
X566464Y683360D02*
X568944Y683360D01*
X568944Y685535D02*
X566464Y685535D01*
X566464Y687710D02*
X568944Y687710D01*
X568944Y689885D02*
X566464Y689885D01*
X566464Y692060D02*
X568944Y692060D01*
X571464Y679010D02*
X573944Y679010D01*
X571464Y679010D02*
X571464Y692490D01*
X573944Y692490D01*
X573944Y679010D01*
X573944Y681185D02*
X571464Y681185D01*
X571464Y683360D02*
X573944Y683360D01*
X573944Y685535D02*
X571464Y685535D01*
X571464Y687710D02*
X573944Y687710D01*
X573944Y689885D02*
X571464Y689885D01*
X571464Y692060D02*
X573944Y692060D01*
X576464Y679010D02*
X578944Y679010D01*
X576464Y679010D02*
X576464Y692490D01*
X578944Y692490D01*
X578944Y679010D01*
X578944Y681185D02*
X576464Y681185D01*
X576464Y683360D02*
X578944Y683360D01*
X578944Y685535D02*
X576464Y685535D01*
X576464Y687710D02*
X578944Y687710D01*
X578944Y689885D02*
X576464Y689885D01*
X576464Y692060D02*
X578944Y692060D01*
X581464Y679010D02*
X583944Y679010D01*
X581464Y679010D02*
X581464Y692490D01*
X583944Y692490D01*
X583944Y679010D01*
X583944Y681185D02*
X581464Y681185D01*
X581464Y683360D02*
X583944Y683360D01*
X583944Y685535D02*
X581464Y685535D01*
X581464Y687710D02*
X583944Y687710D01*
X583944Y689885D02*
X581464Y689885D01*
X581464Y692060D02*
X583944Y692060D01*
X586464Y679010D02*
X588944Y679010D01*
X586464Y679010D02*
X586464Y692490D01*
X588944Y692490D01*
X588944Y679010D01*
X588944Y681185D02*
X586464Y681185D01*
X586464Y683360D02*
X588944Y683360D01*
X588944Y685535D02*
X586464Y685535D01*
X586464Y687710D02*
X588944Y687710D01*
X588944Y689885D02*
X586464Y689885D01*
X586464Y692060D02*
X588944Y692060D01*
X591464Y679010D02*
X593944Y679010D01*
X591464Y679010D02*
X591464Y692490D01*
X593944Y692490D01*
X593944Y679010D01*
X593944Y681185D02*
X591464Y681185D01*
X591464Y683360D02*
X593944Y683360D01*
X593944Y685535D02*
X591464Y685535D01*
X591464Y687710D02*
X593944Y687710D01*
X593944Y689885D02*
X591464Y689885D01*
X591464Y692060D02*
X593944Y692060D01*
X596464Y679010D02*
X598944Y679010D01*
X596464Y679010D02*
X596464Y692490D01*
X598944Y692490D01*
X598944Y679010D01*
X598944Y681185D02*
X596464Y681185D01*
X596464Y683360D02*
X598944Y683360D01*
X598944Y685535D02*
X596464Y685535D01*
X596464Y687710D02*
X598944Y687710D01*
X598944Y689885D02*
X596464Y689885D01*
X596464Y692060D02*
X598944Y692060D01*
X601464Y679010D02*
X603944Y679010D01*
X601464Y679010D02*
X601464Y692490D01*
X603944Y692490D01*
X603944Y679010D01*
X603944Y681185D02*
X601464Y681185D01*
X601464Y683360D02*
X603944Y683360D01*
X603944Y685535D02*
X601464Y685535D01*
X601464Y687710D02*
X603944Y687710D01*
X603944Y689885D02*
X601464Y689885D01*
X601464Y692060D02*
X603944Y692060D01*
X606464Y679010D02*
X608944Y679010D01*
X606464Y679010D02*
X606464Y692490D01*
X608944Y692490D01*
X608944Y679010D01*
X608944Y681185D02*
X606464Y681185D01*
X606464Y683360D02*
X608944Y683360D01*
X608944Y685535D02*
X606464Y685535D01*
X606464Y687710D02*
X608944Y687710D01*
X608944Y689885D02*
X606464Y689885D01*
X606464Y692060D02*
X608944Y692060D01*
X611464Y679010D02*
X613944Y679010D01*
X611464Y679010D02*
X611464Y692490D01*
X613944Y692490D01*
X613944Y679010D01*
X613944Y681185D02*
X611464Y681185D01*
X611464Y683360D02*
X613944Y683360D01*
X613944Y685535D02*
X611464Y685535D01*
X611464Y687710D02*
X613944Y687710D01*
X613944Y689885D02*
X611464Y689885D01*
X611464Y692060D02*
X613944Y692060D01*
X616464Y679010D02*
X618944Y679010D01*
X616464Y679010D02*
X616464Y692490D01*
X618944Y692490D01*
X618944Y679010D01*
X618944Y681185D02*
X616464Y681185D01*
X616464Y683360D02*
X618944Y683360D01*
X618944Y685535D02*
X616464Y685535D01*
X616464Y687710D02*
X618944Y687710D01*
X618944Y689885D02*
X616464Y689885D01*
X616464Y692060D02*
X618944Y692060D01*
X621464Y679010D02*
X623944Y679010D01*
X621464Y679010D02*
X621464Y692490D01*
X623944Y692490D01*
X623944Y679010D01*
X623944Y681185D02*
X621464Y681185D01*
X621464Y683360D02*
X623944Y683360D01*
X623944Y685535D02*
X621464Y685535D01*
X621464Y687710D02*
X623944Y687710D01*
X623944Y689885D02*
X621464Y689885D01*
X621464Y692060D02*
X623944Y692060D01*
X626464Y679010D02*
X628944Y679010D01*
X626464Y679010D02*
X626464Y692490D01*
X628944Y692490D01*
X628944Y679010D01*
X628944Y681185D02*
X626464Y681185D01*
X626464Y683360D02*
X628944Y683360D01*
X628944Y685535D02*
X626464Y685535D01*
X626464Y687710D02*
X628944Y687710D01*
X628944Y689885D02*
X626464Y689885D01*
X626464Y692060D02*
X628944Y692060D01*
X631464Y679010D02*
X633944Y679010D01*
X631464Y679010D02*
X631464Y692490D01*
X633944Y692490D01*
X633944Y679010D01*
X633944Y681185D02*
X631464Y681185D01*
X631464Y683360D02*
X633944Y683360D01*
X633944Y685535D02*
X631464Y685535D01*
X631464Y687710D02*
X633944Y687710D01*
X633944Y689885D02*
X631464Y689885D01*
X631464Y692060D02*
X633944Y692060D01*
X636464Y679010D02*
X638944Y679010D01*
X636464Y679010D02*
X636464Y692490D01*
X638944Y692490D01*
X638944Y679010D01*
X638944Y681185D02*
X636464Y681185D01*
X636464Y683360D02*
X638944Y683360D01*
X638944Y685535D02*
X636464Y685535D01*
X636464Y687710D02*
X638944Y687710D01*
X638944Y689885D02*
X636464Y689885D01*
X636464Y692060D02*
X638944Y692060D01*
X641464Y679010D02*
X643944Y679010D01*
X641464Y679010D02*
X641464Y692490D01*
X643944Y692490D01*
X643944Y679010D01*
X643944Y681185D02*
X641464Y681185D01*
X641464Y683360D02*
X643944Y683360D01*
X643944Y685535D02*
X641464Y685535D01*
X641464Y687710D02*
X643944Y687710D01*
X643944Y689885D02*
X641464Y689885D01*
X641464Y692060D02*
X643944Y692060D01*
X646464Y679010D02*
X648944Y679010D01*
X646464Y679010D02*
X646464Y692490D01*
X648944Y692490D01*
X648944Y679010D01*
X648944Y681185D02*
X646464Y681185D01*
X646464Y683360D02*
X648944Y683360D01*
X648944Y685535D02*
X646464Y685535D01*
X646464Y687710D02*
X648944Y687710D01*
X648944Y689885D02*
X646464Y689885D01*
X646464Y692060D02*
X648944Y692060D01*
X651464Y679010D02*
X653944Y679010D01*
X651464Y679010D02*
X651464Y692490D01*
X653944Y692490D01*
X653944Y679010D01*
X653944Y681185D02*
X651464Y681185D01*
X651464Y683360D02*
X653944Y683360D01*
X653944Y685535D02*
X651464Y685535D01*
X651464Y687710D02*
X653944Y687710D01*
X653944Y689885D02*
X651464Y689885D01*
X651464Y692060D02*
X653944Y692060D01*
D11*
X541204Y488500D03*
X499204Y488500D03*
X520204Y501500D03*
D10*
X585714Y586510D02*
X588194Y586510D01*
X585714Y586510D02*
X585714Y588990D01*
X588194Y588990D01*
X588194Y586510D01*
X588194Y588685D02*
X585714Y588685D01*
X649214Y586510D02*
X651694Y586510D01*
X649214Y586510D02*
X649214Y588990D01*
X651694Y588990D01*
X651694Y586510D01*
X651694Y588685D02*
X649214Y588685D01*
D12*
X649222Y582018D02*
X651686Y582018D01*
X649222Y582018D02*
X649222Y583982D01*
X651686Y583982D01*
X651686Y582018D01*
X592686Y586518D02*
X590722Y586518D01*
X590722Y588982D01*
X592686Y588982D01*
X592686Y586518D01*
X592686Y588709D02*
X590722Y588709D01*
X595222Y586518D02*
X597186Y586518D01*
X595222Y586518D02*
X595222Y588982D01*
X597186Y588982D01*
X597186Y586518D01*
X597186Y588709D02*
X595222Y588709D01*
X599722Y586518D02*
X601686Y586518D01*
X599722Y586518D02*
X599722Y588982D01*
X601686Y588982D01*
X601686Y586518D01*
X601686Y588709D02*
X599722Y588709D01*
X604222Y586518D02*
X606186Y586518D01*
X604222Y586518D02*
X604222Y588982D01*
X606186Y588982D01*
X606186Y586518D01*
X606186Y588709D02*
X604222Y588709D01*
X608722Y586518D02*
X610686Y586518D01*
X608722Y586518D02*
X608722Y588982D01*
X610686Y588982D01*
X610686Y586518D01*
X610686Y588709D02*
X608722Y588709D01*
X613222Y586518D02*
X615186Y586518D01*
X613222Y586518D02*
X613222Y588982D01*
X615186Y588982D01*
X615186Y586518D01*
X615186Y588709D02*
X613222Y588709D01*
X617722Y586518D02*
X619686Y586518D01*
X617722Y586518D02*
X617722Y588982D01*
X619686Y588982D01*
X619686Y586518D01*
X619686Y588709D02*
X617722Y588709D01*
X622222Y586518D02*
X624186Y586518D01*
X622222Y586518D02*
X622222Y588982D01*
X624186Y588982D01*
X624186Y586518D01*
X624186Y588709D02*
X622222Y588709D01*
X626722Y586518D02*
X628686Y586518D01*
X626722Y586518D02*
X626722Y588982D01*
X628686Y588982D01*
X628686Y586518D01*
X628686Y588709D02*
X626722Y588709D01*
X631222Y586518D02*
X633186Y586518D01*
X631222Y586518D02*
X631222Y588982D01*
X633186Y588982D01*
X633186Y586518D01*
X633186Y588709D02*
X631222Y588709D01*
X635722Y586518D02*
X637686Y586518D01*
X635722Y586518D02*
X635722Y588982D01*
X637686Y588982D01*
X637686Y586518D01*
X637686Y588709D02*
X635722Y588709D01*
X640222Y586518D02*
X642186Y586518D01*
X640222Y586518D02*
X640222Y588982D01*
X642186Y588982D01*
X642186Y586518D01*
X642186Y588709D02*
X640222Y588709D01*
X644722Y586518D02*
X646686Y586518D01*
X644722Y586518D02*
X644722Y588982D01*
X646686Y588982D01*
X646686Y586518D01*
X646686Y588709D02*
X644722Y588709D01*
X649222Y579482D02*
X649222Y577518D01*
X649222Y579482D02*
X651686Y579482D01*
X651686Y577518D01*
X649222Y577518D01*
X649222Y574982D02*
X649222Y573018D01*
X649222Y574982D02*
X651686Y574982D01*
X651686Y573018D01*
X649222Y573018D01*
X649222Y570482D02*
X649222Y568518D01*
X649222Y570482D02*
X651686Y570482D01*
X651686Y568518D01*
X649222Y568518D01*
X649222Y565982D02*
X649222Y564018D01*
X649222Y565982D02*
X651686Y565982D01*
X651686Y564018D01*
X649222Y564018D01*
X649222Y561482D02*
X649222Y559518D01*
X649222Y561482D02*
X651686Y561482D01*
X651686Y559518D01*
X649222Y559518D01*
X649222Y556982D02*
X649222Y555018D01*
X649222Y556982D02*
X651686Y556982D01*
X651686Y555018D01*
X649222Y555018D01*
X649222Y552482D02*
X649222Y550518D01*
X649222Y552482D02*
X651686Y552482D01*
X651686Y550518D01*
X649222Y550518D01*
X649222Y547982D02*
X649222Y546018D01*
X649222Y547982D02*
X651686Y547982D01*
X651686Y546018D01*
X649222Y546018D01*
X649222Y543482D02*
X649222Y541518D01*
X649222Y543482D02*
X651686Y543482D01*
X651686Y541518D01*
X649222Y541518D01*
X649222Y538982D02*
X649222Y537018D01*
X649222Y538982D02*
X651686Y538982D01*
X651686Y537018D01*
X649222Y537018D01*
X649222Y534482D02*
X649222Y532518D01*
X649222Y534482D02*
X651686Y534482D01*
X651686Y532518D01*
X649222Y532518D01*
X649222Y529982D02*
X649222Y528018D01*
X649222Y529982D02*
X651686Y529982D01*
X651686Y528018D01*
X649222Y528018D01*
X649222Y525482D02*
X649222Y523518D01*
X649222Y525482D02*
X651686Y525482D01*
X651686Y523518D01*
X649222Y523518D01*
X649222Y520982D02*
X649222Y519018D01*
X649222Y520982D02*
X651686Y520982D01*
X651686Y519018D01*
X649222Y519018D01*
D10*
X649214Y514010D02*
X651694Y514010D01*
X649214Y514010D02*
X649214Y516490D01*
X651694Y516490D01*
X651694Y514010D01*
X651694Y516185D02*
X649214Y516185D01*
D12*
X588186Y582018D02*
X585722Y582018D01*
X585722Y583982D01*
X588186Y583982D01*
X588186Y582018D01*
X585722Y579482D02*
X585722Y577518D01*
X585722Y579482D02*
X588186Y579482D01*
X588186Y577518D01*
X585722Y577518D01*
X585722Y574982D02*
X585722Y573018D01*
X585722Y574982D02*
X588186Y574982D01*
X588186Y573018D01*
X585722Y573018D01*
X585722Y570482D02*
X585722Y568518D01*
X585722Y570482D02*
X588186Y570482D01*
X588186Y568518D01*
X585722Y568518D01*
X585722Y565982D02*
X585722Y564018D01*
X585722Y565982D02*
X588186Y565982D01*
X588186Y564018D01*
X585722Y564018D01*
X585722Y561482D02*
X585722Y559518D01*
X585722Y561482D02*
X588186Y561482D01*
X588186Y559518D01*
X585722Y559518D01*
X585722Y556982D02*
X585722Y555018D01*
X585722Y556982D02*
X588186Y556982D01*
X588186Y555018D01*
X585722Y555018D01*
X585722Y552482D02*
X585722Y550518D01*
X585722Y552482D02*
X588186Y552482D01*
X588186Y550518D01*
X585722Y550518D01*
X585722Y547982D02*
X585722Y546018D01*
X585722Y547982D02*
X588186Y547982D01*
X588186Y546018D01*
X585722Y546018D01*
X585722Y543482D02*
X585722Y541518D01*
X585722Y543482D02*
X588186Y543482D01*
X588186Y541518D01*
X585722Y541518D01*
X585722Y538982D02*
X585722Y537018D01*
X585722Y538982D02*
X588186Y538982D01*
X588186Y537018D01*
X585722Y537018D01*
X585722Y534482D02*
X585722Y532518D01*
X585722Y534482D02*
X588186Y534482D01*
X588186Y532518D01*
X585722Y532518D01*
X585722Y529982D02*
X585722Y528018D01*
X585722Y529982D02*
X588186Y529982D01*
X588186Y528018D01*
X585722Y528018D01*
X585722Y525482D02*
X585722Y523518D01*
X585722Y525482D02*
X588186Y525482D01*
X588186Y523518D01*
X585722Y523518D01*
X585722Y520982D02*
X585722Y519018D01*
X585722Y520982D02*
X588186Y520982D01*
X588186Y519018D01*
X585722Y519018D01*
D10*
X585714Y514010D02*
X588194Y514010D01*
X585714Y514010D02*
X585714Y516490D01*
X588194Y516490D01*
X588194Y514010D01*
X588194Y516185D02*
X585714Y516185D01*
D12*
X590722Y514018D02*
X592686Y514018D01*
X590722Y514018D02*
X590722Y516482D01*
X592686Y516482D01*
X592686Y514018D01*
X592686Y516209D02*
X590722Y516209D01*
X595222Y514018D02*
X597186Y514018D01*
X595222Y514018D02*
X595222Y516482D01*
X597186Y516482D01*
X597186Y514018D01*
X597186Y516209D02*
X595222Y516209D01*
X599722Y514018D02*
X601686Y514018D01*
X599722Y514018D02*
X599722Y516482D01*
X601686Y516482D01*
X601686Y514018D01*
X601686Y516209D02*
X599722Y516209D01*
X604222Y514018D02*
X606186Y514018D01*
X604222Y514018D02*
X604222Y516482D01*
X606186Y516482D01*
X606186Y514018D01*
X606186Y516209D02*
X604222Y516209D01*
X608722Y514018D02*
X610686Y514018D01*
X608722Y514018D02*
X608722Y516482D01*
X610686Y516482D01*
X610686Y514018D01*
X610686Y516209D02*
X608722Y516209D01*
X613222Y514018D02*
X615186Y514018D01*
X613222Y514018D02*
X613222Y516482D01*
X615186Y516482D01*
X615186Y514018D01*
X615186Y516209D02*
X613222Y516209D01*
X617722Y514018D02*
X619686Y514018D01*
X617722Y514018D02*
X617722Y516482D01*
X619686Y516482D01*
X619686Y514018D01*
X619686Y516209D02*
X617722Y516209D01*
X622222Y514018D02*
X624186Y514018D01*
X622222Y514018D02*
X622222Y516482D01*
X624186Y516482D01*
X624186Y514018D01*
X624186Y516209D02*
X622222Y516209D01*
X626722Y514018D02*
X628686Y514018D01*
X626722Y514018D02*
X626722Y516482D01*
X628686Y516482D01*
X628686Y514018D01*
X628686Y516209D02*
X626722Y516209D01*
X631222Y514018D02*
X633186Y514018D01*
X631222Y514018D02*
X631222Y516482D01*
X633186Y516482D01*
X633186Y514018D01*
X633186Y516209D02*
X631222Y516209D01*
X635722Y514018D02*
X637686Y514018D01*
X635722Y514018D02*
X635722Y516482D01*
X637686Y516482D01*
X637686Y514018D01*
X637686Y516209D02*
X635722Y516209D01*
X640222Y514018D02*
X642186Y514018D01*
X640222Y514018D02*
X640222Y516482D01*
X642186Y516482D01*
X642186Y514018D01*
X642186Y516209D02*
X640222Y516209D01*
X644722Y514018D02*
X646686Y514018D01*
X644722Y514018D02*
X644722Y516482D01*
X646686Y516482D01*
X646686Y514018D01*
X646686Y516209D02*
X644722Y516209D01*
D13*
X634712Y526492D02*
X629696Y526492D01*
X629696Y531508D01*
X634712Y531508D01*
X634712Y526492D01*
X634712Y528633D02*
X629696Y528633D01*
X629696Y530774D02*
X634712Y530774D01*
X634712Y535492D02*
X629696Y535492D01*
X629696Y540508D01*
X634712Y540508D01*
X634712Y535492D01*
X634712Y537633D02*
X629696Y537633D01*
X629696Y539774D02*
X634712Y539774D01*
X634712Y544492D02*
X629696Y544492D01*
X629696Y549508D01*
X634712Y549508D01*
X634712Y544492D01*
X634712Y546633D02*
X629696Y546633D01*
X629696Y548774D02*
X634712Y548774D01*
X634712Y553492D02*
X629696Y553492D01*
X629696Y558508D01*
X634712Y558508D01*
X634712Y553492D01*
X634712Y555633D02*
X629696Y555633D01*
X629696Y557774D02*
X634712Y557774D01*
X634712Y562492D02*
X629696Y562492D01*
X629696Y567508D01*
X634712Y567508D01*
X634712Y562492D01*
X634712Y564633D02*
X629696Y564633D01*
X629696Y566774D02*
X634712Y566774D01*
X634712Y571492D02*
X629696Y571492D01*
X629696Y576508D01*
X634712Y576508D01*
X634712Y571492D01*
X634712Y573633D02*
X629696Y573633D01*
X629696Y575774D02*
X634712Y575774D01*
X625712Y571492D02*
X620696Y571492D01*
X620696Y576508D01*
X625712Y576508D01*
X625712Y571492D01*
X625712Y573633D02*
X620696Y573633D01*
X620696Y575774D02*
X625712Y575774D01*
X616712Y571492D02*
X611696Y571492D01*
X611696Y576508D01*
X616712Y576508D01*
X616712Y571492D01*
X616712Y573633D02*
X611696Y573633D01*
X611696Y575774D02*
X616712Y575774D01*
X607712Y571492D02*
X602696Y571492D01*
X602696Y576508D01*
X607712Y576508D01*
X607712Y571492D01*
X607712Y573633D02*
X602696Y573633D01*
X602696Y575774D02*
X607712Y575774D01*
X607712Y567508D02*
X602696Y567508D01*
X607712Y567508D02*
X607712Y562492D01*
X602696Y562492D01*
X602696Y567508D01*
X602696Y564633D02*
X607712Y564633D01*
X607712Y566774D02*
X602696Y566774D01*
X602696Y558508D02*
X607712Y558508D01*
X607712Y553492D01*
X602696Y553492D01*
X602696Y558508D01*
X602696Y555633D02*
X607712Y555633D01*
X607712Y557774D02*
X602696Y557774D01*
X602696Y549508D02*
X607712Y549508D01*
X607712Y544492D01*
X602696Y544492D01*
X602696Y549508D01*
X602696Y546633D02*
X607712Y546633D01*
X607712Y548774D02*
X602696Y548774D01*
X602696Y540508D02*
X607712Y540508D01*
X607712Y535492D01*
X602696Y535492D01*
X602696Y540508D01*
X602696Y537633D02*
X607712Y537633D01*
X607712Y539774D02*
X602696Y539774D01*
X602696Y531508D02*
X607712Y531508D01*
X607712Y526492D01*
X602696Y526492D01*
X602696Y531508D01*
X602696Y528633D02*
X607712Y528633D01*
X607712Y530774D02*
X602696Y530774D01*
X611696Y567508D02*
X616712Y567508D01*
X616712Y562492D01*
X611696Y562492D01*
X611696Y567508D01*
X611696Y564633D02*
X616712Y564633D01*
X616712Y566774D02*
X611696Y566774D01*
X611696Y558508D02*
X616712Y558508D01*
X616712Y553492D01*
X611696Y553492D01*
X611696Y558508D01*
X611696Y555633D02*
X616712Y555633D01*
X616712Y557774D02*
X611696Y557774D01*
X611696Y549508D02*
X616712Y549508D01*
X616712Y544492D01*
X611696Y544492D01*
X611696Y549508D01*
X611696Y546633D02*
X616712Y546633D01*
X616712Y548774D02*
X611696Y548774D01*
X611696Y540508D02*
X616712Y540508D01*
X616712Y535492D01*
X611696Y535492D01*
X611696Y540508D01*
X611696Y537633D02*
X616712Y537633D01*
X616712Y539774D02*
X611696Y539774D01*
X611696Y531508D02*
X616712Y531508D01*
X616712Y526492D01*
X611696Y526492D01*
X611696Y531508D01*
X611696Y528633D02*
X616712Y528633D01*
X616712Y530774D02*
X611696Y530774D01*
X620696Y567508D02*
X625712Y567508D01*
X625712Y562492D01*
X620696Y562492D01*
X620696Y567508D01*
X620696Y564633D02*
X625712Y564633D01*
X625712Y566774D02*
X620696Y566774D01*
X620696Y558508D02*
X625712Y558508D01*
X625712Y553492D01*
X620696Y553492D01*
X620696Y558508D01*
X620696Y555633D02*
X625712Y555633D01*
X625712Y557774D02*
X620696Y557774D01*
X620696Y549508D02*
X625712Y549508D01*
X625712Y544492D01*
X620696Y544492D01*
X620696Y549508D01*
X620696Y546633D02*
X625712Y546633D01*
X625712Y548774D02*
X620696Y548774D01*
X620696Y540508D02*
X625712Y540508D01*
X625712Y535492D01*
X620696Y535492D01*
X620696Y540508D01*
X620696Y537633D02*
X625712Y537633D01*
X625712Y539774D02*
X620696Y539774D01*
X620696Y531508D02*
X625712Y531508D01*
X625712Y526492D01*
X620696Y526492D01*
X620696Y531508D01*
X620696Y528633D02*
X625712Y528633D01*
X625712Y530774D02*
X620696Y530774D01*
D14*
X589847Y484007D02*
X586561Y484007D01*
X586561Y487293D01*
X589847Y487293D01*
X589847Y484007D01*
X589847Y486177D02*
X586561Y486177D01*
X647561Y484007D02*
X650847Y484007D01*
X647561Y484007D02*
X647561Y487293D01*
X650847Y487293D01*
X650847Y484007D01*
X650847Y486177D02*
X647561Y486177D01*
D13*
X657196Y624008D02*
X662212Y624008D01*
X662212Y618992D01*
X657196Y618992D01*
X657196Y624008D01*
X657196Y621133D02*
X662212Y621133D01*
X662212Y623274D02*
X657196Y623274D01*
X652212Y624008D02*
X647196Y624008D01*
X652212Y624008D02*
X652212Y618992D01*
X647196Y618992D01*
X647196Y624008D01*
X647196Y621133D02*
X652212Y621133D01*
X652212Y623274D02*
X647196Y623274D01*
D15*
X585680Y610976D02*
X585680Y604024D01*
X577728Y604024D01*
X577728Y610976D01*
X585680Y610976D01*
X585680Y606226D02*
X577728Y606226D01*
X577728Y608428D02*
X585680Y608428D01*
X585680Y610630D02*
X577728Y610630D01*
X585680Y623024D02*
X585680Y629976D01*
X585680Y623024D02*
X577728Y623024D01*
X577728Y629976D01*
X585680Y629976D01*
X585680Y625226D02*
X577728Y625226D01*
X577728Y627428D02*
X585680Y627428D01*
X585680Y629630D02*
X577728Y629630D01*
X564680Y620476D02*
X564680Y613524D01*
X556728Y613524D01*
X556728Y620476D01*
X564680Y620476D01*
X564680Y615726D02*
X556728Y615726D01*
X556728Y617928D02*
X564680Y617928D01*
X564680Y620130D02*
X556728Y620130D01*
D13*
X545696Y628992D02*
X545696Y634008D01*
X550712Y634008D01*
X550712Y628992D01*
X545696Y628992D01*
X545696Y631133D02*
X550712Y631133D01*
X550712Y633274D02*
X545696Y633274D01*
X545696Y624008D02*
X545696Y618992D01*
X545696Y624008D02*
X550712Y624008D01*
X550712Y618992D01*
X545696Y618992D01*
X545696Y621133D02*
X550712Y621133D01*
X550712Y623274D02*
X545696Y623274D01*
X596212Y619008D02*
X596212Y613992D01*
X591196Y613992D01*
X591196Y619008D01*
X596212Y619008D01*
X596212Y616133D02*
X591196Y616133D01*
X591196Y618274D02*
X596212Y618274D01*
X596212Y623992D02*
X596212Y629008D01*
X596212Y623992D02*
X591196Y623992D01*
X591196Y629008D01*
X596212Y629008D01*
X596212Y626133D02*
X591196Y626133D01*
X591196Y628274D02*
X596212Y628274D01*
D16*
X639702Y635002D02*
X642706Y635002D01*
X642706Y631998D01*
X639702Y631998D01*
X639702Y635002D01*
X639702Y634151D02*
X642706Y634151D01*
X653702Y635002D02*
X656706Y635002D01*
X656706Y631998D01*
X653702Y631998D01*
X653702Y635002D01*
X653702Y634151D02*
X656706Y634151D01*
D17*
X526697Y567457D02*
X526697Y563443D01*
X526697Y567457D02*
X534211Y567457D01*
X534211Y563443D01*
X526697Y563443D01*
X526697Y565587D02*
X534211Y565587D01*
X526697Y576143D02*
X526697Y580157D01*
X534211Y580157D01*
X534211Y576143D01*
X526697Y576143D01*
X526697Y578287D02*
X534211Y578287D01*
X526697Y588843D02*
X526697Y592857D01*
X534211Y592857D01*
X534211Y588843D01*
X526697Y588843D01*
X526697Y590987D02*
X534211Y590987D01*
X526697Y601543D02*
X526697Y605557D01*
X534211Y605557D01*
X534211Y601543D01*
X526697Y601543D01*
X526697Y603687D02*
X534211Y603687D01*
X471197Y592857D02*
X471197Y588843D01*
X471197Y592857D02*
X478711Y592857D01*
X478711Y588843D01*
X471197Y588843D01*
X471197Y590987D02*
X478711Y590987D01*
X471197Y601543D02*
X471197Y605557D01*
X478711Y605557D01*
X478711Y601543D01*
X471197Y601543D01*
X471197Y603687D02*
X478711Y603687D01*
X471197Y580157D02*
X471197Y576143D01*
X471197Y580157D02*
X478711Y580157D01*
X478711Y576143D01*
X471197Y576143D01*
X471197Y578287D02*
X478711Y578287D01*
X471197Y567457D02*
X471197Y563443D01*
X471197Y567457D02*
X478711Y567457D01*
X478711Y563443D01*
X471197Y563443D01*
X471197Y565587D02*
X478711Y565587D01*
D18*
X477480Y506994D02*
X477480Y500006D01*
X477480Y506994D02*
X484468Y506994D01*
X484468Y500006D01*
X477480Y500006D01*
X477480Y504075D02*
X484468Y504075D01*
X459940Y506994D02*
X459940Y500006D01*
X459940Y506994D02*
X466928Y506994D01*
X466928Y500006D01*
X459940Y500006D01*
X459940Y504075D02*
X466928Y504075D01*
D13*
X467712Y521492D02*
X462696Y521492D01*
X462696Y526508D01*
X467712Y526508D01*
X467712Y521492D01*
X467712Y523633D02*
X462696Y523633D01*
X462696Y525774D02*
X467712Y525774D01*
X472696Y521492D02*
X477712Y521492D01*
X472696Y521492D02*
X472696Y526508D01*
X477712Y526508D01*
X477712Y521492D01*
X477712Y523633D02*
X472696Y523633D01*
X472696Y525774D02*
X477712Y525774D01*
X477212Y546992D02*
X472196Y546992D01*
X472196Y552008D01*
X477212Y552008D01*
X477212Y546992D01*
X477212Y549133D02*
X472196Y549133D01*
X472196Y551274D02*
X477212Y551274D01*
X482196Y546992D02*
X487212Y546992D01*
X482196Y546992D02*
X482196Y552008D01*
X487212Y552008D01*
X487212Y546992D01*
X487212Y549133D02*
X482196Y549133D01*
X482196Y551274D02*
X487212Y551274D01*
D19*
X663204Y651500D03*
X458204Y486500D03*
D20*
X-26264Y635000D03*
X696468Y635000D03*
D21*
X-35319Y63500D02*
X-35316Y63722D01*
X-35308Y63944D01*
X-35294Y64166D01*
X-35275Y64388D01*
X-35251Y64608D01*
X-35221Y64829D01*
X-35186Y65048D01*
X-35145Y65267D01*
X-35099Y65484D01*
X-35048Y65700D01*
X-34991Y65915D01*
X-34929Y66129D01*
X-34862Y66340D01*
X-34790Y66551D01*
X-34712Y66759D01*
X-34630Y66965D01*
X-34542Y67169D01*
X-34450Y67372D01*
X-34352Y67571D01*
X-34250Y67768D01*
X-34143Y67963D01*
X-34031Y68155D01*
X-33914Y68344D01*
X-33793Y68531D01*
X-33667Y68714D01*
X-33537Y68894D01*
X-33402Y69071D01*
X-33264Y69244D01*
X-33121Y69414D01*
X-32973Y69581D01*
X-32822Y69744D01*
X-32667Y69903D01*
X-32508Y70058D01*
X-32345Y70209D01*
X-32178Y70357D01*
X-32008Y70500D01*
X-31835Y70638D01*
X-31658Y70773D01*
X-31478Y70903D01*
X-31295Y71029D01*
X-31108Y71150D01*
X-30919Y71267D01*
X-30727Y71379D01*
X-30532Y71486D01*
X-30335Y71588D01*
X-30136Y71686D01*
X-29933Y71778D01*
X-29729Y71866D01*
X-29523Y71948D01*
X-29315Y72026D01*
X-29104Y72098D01*
X-28893Y72165D01*
X-28679Y72227D01*
X-28464Y72284D01*
X-28248Y72335D01*
X-28031Y72381D01*
X-27812Y72422D01*
X-27593Y72457D01*
X-27372Y72487D01*
X-27152Y72511D01*
X-26930Y72530D01*
X-26708Y72544D01*
X-26486Y72552D01*
X-26264Y72555D01*
X-26042Y72552D01*
X-25820Y72544D01*
X-25598Y72530D01*
X-25376Y72511D01*
X-25156Y72487D01*
X-24935Y72457D01*
X-24716Y72422D01*
X-24497Y72381D01*
X-24280Y72335D01*
X-24064Y72284D01*
X-23849Y72227D01*
X-23635Y72165D01*
X-23424Y72098D01*
X-23213Y72026D01*
X-23005Y71948D01*
X-22799Y71866D01*
X-22595Y71778D01*
X-22392Y71686D01*
X-22193Y71588D01*
X-21996Y71486D01*
X-21801Y71379D01*
X-21609Y71267D01*
X-21420Y71150D01*
X-21233Y71029D01*
X-21050Y70903D01*
X-20870Y70773D01*
X-20693Y70638D01*
X-20520Y70500D01*
X-20350Y70357D01*
X-20183Y70209D01*
X-20020Y70058D01*
X-19861Y69903D01*
X-19706Y69744D01*
X-19555Y69581D01*
X-19407Y69414D01*
X-19264Y69244D01*
X-19126Y69071D01*
X-18991Y68894D01*
X-18861Y68714D01*
X-18735Y68531D01*
X-18614Y68344D01*
X-18497Y68155D01*
X-18385Y67963D01*
X-18278Y67768D01*
X-18176Y67571D01*
X-18078Y67372D01*
X-17986Y67169D01*
X-17898Y66965D01*
X-17816Y66759D01*
X-17738Y66551D01*
X-17666Y66340D01*
X-17599Y66129D01*
X-17537Y65915D01*
X-17480Y65700D01*
X-17429Y65484D01*
X-17383Y65267D01*
X-17342Y65048D01*
X-17307Y64829D01*
X-17277Y64608D01*
X-17253Y64388D01*
X-17234Y64166D01*
X-17220Y63944D01*
X-17212Y63722D01*
X-17209Y63500D01*
X-17212Y63278D01*
X-17220Y63056D01*
X-17234Y62834D01*
X-17253Y62612D01*
X-17277Y62392D01*
X-17307Y62171D01*
X-17342Y61952D01*
X-17383Y61733D01*
X-17429Y61516D01*
X-17480Y61300D01*
X-17537Y61085D01*
X-17599Y60871D01*
X-17666Y60660D01*
X-17738Y60449D01*
X-17816Y60241D01*
X-17898Y60035D01*
X-17986Y59831D01*
X-18078Y59628D01*
X-18176Y59429D01*
X-18278Y59232D01*
X-18385Y59037D01*
X-18497Y58845D01*
X-18614Y58656D01*
X-18735Y58469D01*
X-18861Y58286D01*
X-18991Y58106D01*
X-19126Y57929D01*
X-19264Y57756D01*
X-19407Y57586D01*
X-19555Y57419D01*
X-19706Y57256D01*
X-19861Y57097D01*
X-20020Y56942D01*
X-20183Y56791D01*
X-20350Y56643D01*
X-20520Y56500D01*
X-20693Y56362D01*
X-20870Y56227D01*
X-21050Y56097D01*
X-21233Y55971D01*
X-21420Y55850D01*
X-21609Y55733D01*
X-21801Y55621D01*
X-21996Y55514D01*
X-22193Y55412D01*
X-22392Y55314D01*
X-22595Y55222D01*
X-22799Y55134D01*
X-23005Y55052D01*
X-23213Y54974D01*
X-23424Y54902D01*
X-23635Y54835D01*
X-23849Y54773D01*
X-24064Y54716D01*
X-24280Y54665D01*
X-24497Y54619D01*
X-24716Y54578D01*
X-24935Y54543D01*
X-25156Y54513D01*
X-25376Y54489D01*
X-25598Y54470D01*
X-25820Y54456D01*
X-26042Y54448D01*
X-26264Y54445D01*
X-26486Y54448D01*
X-26708Y54456D01*
X-26930Y54470D01*
X-27152Y54489D01*
X-27372Y54513D01*
X-27593Y54543D01*
X-27812Y54578D01*
X-28031Y54619D01*
X-28248Y54665D01*
X-28464Y54716D01*
X-28679Y54773D01*
X-28893Y54835D01*
X-29104Y54902D01*
X-29315Y54974D01*
X-29523Y55052D01*
X-29729Y55134D01*
X-29933Y55222D01*
X-30136Y55314D01*
X-30335Y55412D01*
X-30532Y55514D01*
X-30727Y55621D01*
X-30919Y55733D01*
X-31108Y55850D01*
X-31295Y55971D01*
X-31478Y56097D01*
X-31658Y56227D01*
X-31835Y56362D01*
X-32008Y56500D01*
X-32178Y56643D01*
X-32345Y56791D01*
X-32508Y56942D01*
X-32667Y57097D01*
X-32822Y57256D01*
X-32973Y57419D01*
X-33121Y57586D01*
X-33264Y57756D01*
X-33402Y57929D01*
X-33537Y58106D01*
X-33667Y58286D01*
X-33793Y58469D01*
X-33914Y58656D01*
X-34031Y58845D01*
X-34143Y59037D01*
X-34250Y59232D01*
X-34352Y59429D01*
X-34450Y59628D01*
X-34542Y59831D01*
X-34630Y60035D01*
X-34712Y60241D01*
X-34790Y60449D01*
X-34862Y60660D01*
X-34929Y60871D01*
X-34991Y61085D01*
X-35048Y61300D01*
X-35099Y61516D01*
X-35145Y61733D01*
X-35186Y61952D01*
X-35221Y62171D01*
X-35251Y62392D01*
X-35275Y62612D01*
X-35294Y62834D01*
X-35308Y63056D01*
X-35316Y63278D01*
X-35319Y63500D01*
D22*
X-26264Y63500D03*
M02*
